# Rhino

mtllib Object_02.mtl
o object_1
usemtl 石膏 (6)
v -1885.402587890625 244.66993713378906 -24324.443359375
v -1885.402587890625 244.66993713378906 -24279.9921875
v -1883.16357421875 243.28855895996094 -24324.443359375
v -1883.16357421875 243.28855895996094 -24279.9921875
v -1880.5640869140625 242.08273315429688 -24324.443359375
v -1880.5640869140625 242.08273315429688 -24279.9921875
v -1874.4512939453125 240.15998840332031 -24324.443359375
v -1874.4512939453125 240.15998840332031 -24279.9921875
v -1867.3994140625 238.82618713378906 -24324.443359375
v -1867.3994140625 238.82618713378906 -24279.9921875
v -1859.74365234375 238.005859375 -24324.443359375
v -1859.74365234375 238.005859375 -24279.9921875
v -1851.8194580078125 237.62347412109375 -24324.443359375
v -1851.8194580078125 237.62347412109375 -24279.9921875
v -1843.9620361328125 237.60354614257812 -24324.443359375
v -1843.9620361328125 237.60354614257812 -24279.9921875
v -1829.7889404296875 238.34902954101562 -24324.443359375
v -1829.7889404296875 238.34902954101562 -24279.9921875
v -1819.2198486328125 239.80674743652344 -24324.443359375
v -1819.2198486328125 239.80674743652344 -24279.9921875
v -1815.094482421875 240.86663818359375 -24324.443359375
v -1815.094482421875 240.86663818359375 -24279.9921875
v -1811.5018310546875 242.21499633789062 -24324.443359375
v -1811.5018310546875 242.21499633789062 -24279.9921875
v -1808.2618408203125 243.90266418457031 -24324.443359375
v -1808.2618408203125 243.90266418457031 -24279.9921875
v -1805.194580078125 245.98048400878906 -24324.443359375
v -1805.194580078125 245.98048400878906 -24279.9921875
v -1798.8582763671875 251.50999450683594 -24324.443359375
v -1798.8582763671875 251.50999450683594 -24279.9921875
v -1791.587158203125 259.00582885742188 -24324.443359375
v -1791.587158203125 259.00582885742188 -24279.9921875
v -1787.9527587890625 263.31158447265625 -24324.443359375
v -1787.9527587890625 263.31158447265625 -24279.9921875
v -1784.6134033203125 267.85263061523438 -24324.443359375
v -1784.6134033203125 267.85263061523438 -24279.9921875
v -1781.7899169921875 272.5264892578125 -24324.443359375
v -1781.7899169921875 272.5264892578125 -24279.9921875
v -1779.703369140625 277.230712890625 -24324.443359375
v -1779.703369140625 277.230712890625 -24279.9921875
v -1778.5743408203125 281.86276245117188 -24324.443359375
v -1778.5743408203125 281.86276245117188 -24279.9921875
v -1778.4378662109375 284.1197509765625 -24324.443359375
v -1778.4378662109375 284.1197509765625 -24279.9921875
v -1778.6236572265625 286.32025146484375 -24324.443359375
v -1778.6236572265625 286.32025146484375 -24279.9921875
v -1779.1497802734375 288.45123291015625 -24324.443359375
v -1779.1497802734375 288.45123291015625 -24279.9921875
v -1779.99658203125 290.49835205078125 -24324.443359375
v -1779.99658203125 290.49835205078125 -24279.9921875
v -1782.53564453125 294.28302001953125 -24324.443359375
v -1782.53564453125 294.28302001953125 -24279.9921875
v -1786.0078125 297.557861328125 -24324.443359375
v -1786.0078125 297.557861328125 -24279.9921875
v -1790.179931640625 300.20648193359375 -24324.443359375
v -1790.179931640625 300.20648193359375 -24279.9921875
v -1794.81884765625 302.11248779296875 -24324.443359375
v -1794.81884765625 302.11248779296875 -24279.9921875
v -1799.691650390625 303.1595458984375 -24324.443359375
v -1799.691650390625 303.1595458984375 -24279.9921875
v -1804.5650634765625 303.23126220703125 -24324.443359375
v -1804.5650634765625 303.23126220703125 -24279.9921875
v -1809.2061767578125 302.21121215820312 -24324.443359375
v -1809.2061767578125 302.21121215820312 -24279.9921875
v -1813.4395751953125 300.051025390625 -24324.443359375
v -1813.4395751953125 300.051025390625 -24279.9921875
v -1817.3209228515625 296.97418212890625 -24324.443359375
v -1817.3209228515625 296.97418212890625 -24279.9921875
v -1820.96337890625 293.27215576171875 -24324.443359375
v -1820.96337890625 293.27215576171875 -24279.9921875
v -1831.5914306640625 281.32952880859375 -24324.443359375
v -1831.5914306640625 281.32952880859375 -24279.9921875
v -1835.4122314453125 278.04135131835938 -24324.443359375
v -1835.4122314453125 278.04135131835938 -24279.9921875
v -1839.560791015625 275.58529663085938 -24324.443359375
v -1839.560791015625 275.58529663085938 -24279.9921875
v -1844.11279296875 274.15884399414062 -24324.443359375
v -1844.11279296875 274.15884399414062 -24279.9921875
v -1848.991943359375 273.58340454101562 -24324.443359375
v -1848.991943359375 273.58340454101562 -24279.9921875
v -1869.5013427734375 274.34030151367188 -24324.443359375
v -1869.5013427734375 274.34030151367188 -24279.9921875
v -1874.306884765625 273.93133544921875 -24324.443359375
v -1874.306884765625 273.93133544921875 -24279.9921875
v -1878.755615234375 272.73794555664062 -24324.443359375
v -1878.755615234375 272.73794555664062 -24279.9921875
v -1882.72900390625 270.5704345703125 -24324.443359375
v -1882.72900390625 270.5704345703125 -24279.9921875
v -1886.0892333984375 267.57052612304688 -24324.443359375
v -1886.0892333984375 267.57052612304688 -24279.9921875
v -1888.6939697265625 263.96286010742188 -24324.443359375
v -1888.6939697265625 263.96286010742188 -24279.9921875
v -1890.40087890625 259.97207641601562 -24324.443359375
v -1890.40087890625 259.97207641601562 -24279.9921875
v -1891.067626953125 255.82276916503906 -24324.443359375
v -1891.067626953125 255.82276916503906 -24279.9921875
v -1890.9664306640625 253.75886535644531 -24324.443359375
v -1890.9664306640625 253.75886535644531 -24279.9921875
v -1890.5517578125 251.73956298828125 -24324.443359375
v -1890.5517578125 251.73956298828125 -24279.9921875
v -1889.8057861328125 249.79293823242188 -24324.443359375
v -1889.8057861328125 249.79293823242188 -24279.9921875
v -1888.7108154296875 247.94708251953125 -24324.443359375
v -1888.7108154296875 247.94708251953125 -24279.9921875
v -1887.2490234375 246.23005676269531 -24324.443359375
v -1887.2490234375 246.23005676269531 -24279.9921875
v -1885.402587890625 244.66993713378906 -24324.443359375
v -1885.402587890625 244.66993713378906 -24279.9921875
v -1885.402587890625 244.66993713378906 -24324.443359375
v -1883.16357421875 243.28855895996094 -24324.443359375
v -1880.5640869140625 242.08273315429688 -24324.443359375
v -1874.4512939453125 240.15998840332031 -24324.443359375
v -1867.3994140625 238.82618713378906 -24324.443359375
v -1859.74365234375 238.005859375 -24324.443359375
v -1851.8194580078125 237.62347412109375 -24324.443359375
v -1843.9620361328125 237.60354614257812 -24324.443359375
v -1829.7889404296875 238.34902954101562 -24324.443359375
v -1819.2198486328125 239.80674743652344 -24324.443359375
v -1815.094482421875 240.86663818359375 -24324.443359375
v -1811.5018310546875 242.21499633789062 -24324.443359375
v -1808.2618408203125 243.90266418457031 -24324.443359375
v -1805.194580078125 245.98048400878906 -24324.443359375
v -1798.8582763671875 251.50999450683594 -24324.443359375
v -1791.587158203125 259.00582885742188 -24324.443359375
v -1787.9527587890625 263.31158447265625 -24324.443359375
v -1784.6134033203125 267.85263061523438 -24324.443359375
v -1781.7899169921875 272.5264892578125 -24324.443359375
v -1779.703369140625 277.230712890625 -24324.443359375
v -1778.5743408203125 281.86276245117188 -24324.443359375
v -1778.4378662109375 284.1197509765625 -24324.443359375
v -1778.6236572265625 286.32025146484375 -24324.443359375
v -1779.1497802734375 288.45123291015625 -24324.443359375
v -1779.99658203125 290.49835205078125 -24324.443359375
v -1782.53564453125 294.28302001953125 -24324.443359375
v -1786.0078125 297.557861328125 -24324.443359375
v -1790.179931640625 300.20648193359375 -24324.443359375
v -1794.81884765625 302.11248779296875 -24324.443359375
v -1799.691650390625 303.1595458984375 -24324.443359375
v -1804.5650634765625 303.23126220703125 -24324.443359375
v -1809.2061767578125 302.21121215820312 -24324.443359375
v -1813.4395751953125 300.051025390625 -24324.443359375
v -1817.3209228515625 296.97418212890625 -24324.443359375
v -1820.96337890625 293.27215576171875 -24324.443359375
v -1831.5914306640625 281.32952880859375 -24324.443359375
v -1835.4122314453125 278.04135131835938 -24324.443359375
v -1839.560791015625 275.58529663085938 -24324.443359375
v -1844.11279296875 274.15884399414062 -24324.443359375
v -1848.991943359375 273.58340454101562 -24324.443359375
v -1869.5013427734375 274.34030151367188 -24324.443359375
v -1874.306884765625 273.93133544921875 -24324.443359375
v -1878.755615234375 272.73794555664062 -24324.443359375
v -1882.72900390625 270.5704345703125 -24324.443359375
v -1886.0892333984375 267.57052612304688 -24324.443359375
v -1888.6939697265625 263.96286010742188 -24324.443359375
v -1890.40087890625 259.97207641601562 -24324.443359375
v -1891.067626953125 255.82276916503906 -24324.443359375
v -1890.9664306640625 253.75886535644531 -24324.443359375
v -1890.5517578125 251.73956298828125 -24324.443359375
v -1889.8057861328125 249.79293823242188 -24324.443359375
v -1888.7108154296875 247.94708251953125 -24324.443359375
v -1887.2490234375 246.23005676269531 -24324.443359375
v -1885.402587890625 244.66993713378906 -24279.9921875
v -1883.16357421875 243.28855895996094 -24279.9921875
v -1880.5640869140625 242.08273315429688 -24279.9921875
v -1874.4512939453125 240.15998840332031 -24279.9921875
v -1867.3994140625 238.82618713378906 -24279.9921875
v -1859.74365234375 238.005859375 -24279.9921875
v -1851.8194580078125 237.62347412109375 -24279.9921875
v -1843.9620361328125 237.60354614257812 -24279.9921875
v -1829.7889404296875 238.34902954101562 -24279.9921875
v -1819.2198486328125 239.80674743652344 -24279.9921875
v -1815.094482421875 240.86663818359375 -24279.9921875
v -1811.5018310546875 242.21499633789062 -24279.9921875
v -1808.2618408203125 243.90266418457031 -24279.9921875
v -1805.194580078125 245.98048400878906 -24279.9921875
v -1798.8582763671875 251.50999450683594 -24279.9921875
v -1791.587158203125 259.00582885742188 -24279.9921875
v -1787.9527587890625 263.31158447265625 -24279.9921875
v -1784.6134033203125 267.85263061523438 -24279.9921875
v -1781.7899169921875 272.5264892578125 -24279.9921875
v -1779.703369140625 277.230712890625 -24279.9921875
v -1778.5743408203125 281.86276245117188 -24279.9921875
v -1778.4378662109375 284.1197509765625 -24279.9921875
v -1778.6236572265625 286.32025146484375 -24279.9921875
v -1779.1497802734375 288.45123291015625 -24279.9921875
v -1779.99658203125 290.49835205078125 -24279.9921875
v -1782.53564453125 294.28302001953125 -24279.9921875
v -1786.0078125 297.557861328125 -24279.9921875
v -1790.179931640625 300.20648193359375 -24279.9921875
v -1794.81884765625 302.11248779296875 -24279.9921875
v -1799.691650390625 303.1595458984375 -24279.9921875
v -1804.5650634765625 303.23126220703125 -24279.9921875
v -1809.2061767578125 302.21121215820312 -24279.9921875
v -1813.4395751953125 300.051025390625 -24279.9921875
v -1817.3209228515625 296.97418212890625 -24279.9921875
v -1820.96337890625 293.27215576171875 -24279.9921875
v -1831.5914306640625 281.32952880859375 -24279.9921875
v -1835.4122314453125 278.04135131835938 -24279.9921875
v -1839.560791015625 275.58529663085938 -24279.9921875
v -1844.11279296875 274.15884399414062 -24279.9921875
v -1848.991943359375 273.58340454101562 -24279.9921875
v -1869.5013427734375 274.34030151367188 -24279.9921875
v -1874.306884765625 273.93133544921875 -24279.9921875
v -1878.755615234375 272.73794555664062 -24279.9921875
v -1882.72900390625 270.5704345703125 -24279.9921875
v -1886.0892333984375 267.57052612304688 -24279.9921875
v -1888.6939697265625 263.96286010742188 -24279.9921875
v -1890.40087890625 259.97207641601562 -24279.9921875
v -1891.067626953125 255.82276916503906 -24279.9921875
v -1890.9664306640625 253.75886535644531 -24279.9921875
v -1890.5517578125 251.73956298828125 -24279.9921875
v -1889.8057861328125 249.79293823242188 -24279.9921875
v -1888.7108154296875 247.94708251953125 -24279.9921875
v -1887.2490234375 246.23005676269531 -24279.9921875
vt 0 0
vt 0 0.6264917254447937
vt 0.0089285718277096748 0
vt 0.0089285718277096748 0.6264917254447937
vt 0.01785714365541935 0
vt 0.01785714365541935 0.6264917254447937
vt 0.035714287310838699 0
vt 0.035714287310838699 0.6264917254447937
vt 0.0535714291036129 0
vt 0.0535714291036129 0.6264917254447937
vt 0.071428574621677399 0
vt 0.071428574621677399 0.6264917254447937
vt 0.089285716414451599 0
vt 0.089285716414451599 0.6264917254447937
vt 0.1071428582072258 0
vt 0.1071428582072258 0.6264917254447937
vt 0.1428571492433548 0
vt 0.1428571492433548 0.6264917254447937
vt 0.1785714328289032 0
vt 0.1785714328289032 0.6264917254447937
vt 0.1964285671710968 0
vt 0.1964285671710968 0.6264917254447937
vt 0.2142857164144516 0
vt 0.2142857164144516 0.6264917254447937
vt 0.2321428507566452 0
vt 0.2321428507566452 0.6264917254447937
vt 0.25 0
vt 0.25 0.6264917254447937
vt 0.28571429848670959 0
vt 0.28571429848670959 0.6264917254447937
vt 0.3214285671710968 0
vt 0.3214285671710968 0.6264917254447937
vt 0.33928570151329041 0
vt 0.33928570151329041 0.6264917254447937
vt 0.3571428656578064 0
vt 0.3571428656578064 0.6264917254447937
vt 0.375 0
vt 0.375 0.6264917254447937
vt 0.3928571343421936 0
vt 0.3928571343421936 0.6264917254447937
vt 0.41071429848670959 0
vt 0.41071429848670959 0.6264917254447937
vt 0.4196428656578064 0
vt 0.4196428656578064 0.6264917254447937
vt 0.4285714328289032 0
vt 0.4285714328289032 0.6264917254447937
vt 0.4375 0
vt 0.4375 0.6264917254447937
vt 0.4464285671710968 0
vt 0.4464285671710968 0.6264917254447937
vt 0.46428570151329041 0
vt 0.46428570151329041 0.6264917254447937
vt 0.4821428656578064 0
vt 0.4821428656578064 0.6264917254447937
vt 0.5 0
vt 0.5 0.6264917254447937
vt 0.5178571343421936 0
vt 0.5178571343421936 0.6264917254447937
vt 0.53571426868438721 0
vt 0.53571426868438721 0.6264917254447937
vt 0.55357140302658081 0
vt 0.55357140302658081 0.6264917254447937
vt 0.57142859697341919 0
vt 0.57142859697341919 0.6264917254447937
vt 0.58928573131561279 0
vt 0.58928573131561279 0.6264917254447937
vt 0.6071428656578064 0
vt 0.6071428656578064 0.6264917254447937
vt 0.625 0
vt 0.625 0.6264917254447937
vt 0.67857140302658081 0
vt 0.67857140302658081 0.6264917254447937
vt 0.69642859697341919 0
vt 0.69642859697341919 0.6264917254447937
vt 0.71428573131561279 0
vt 0.71428573131561279 0.6264917254447937
vt 0.7321428656578064 0
vt 0.7321428656578064 0.6264917254447937
vt 0.75 0
vt 0.75 0.6264917254447937
vt 0.82142859697341919 0
vt 0.82142859697341919 0.6264917254447937
vt 0.83928573131561279 0
vt 0.83928573131561279 0.6264917254447937
vt 0.8571428656578064 0
vt 0.8571428656578064 0.6264917254447937
vt 0.875 0
vt 0.875 0.6264917254447937
vt 0.8928571343421936 0
vt 0.8928571343421936 0.6264917254447937
vt 0.91071426868438721 0
vt 0.91071426868438721 0.6264917254447937
vt 0.92857140302658081 0
vt 0.92857140302658081 0.6264917254447937
vt 0.94642859697341919 0
vt 0.94642859697341919 0.6264917254447937
vt 0.9553571343421936 0
vt 0.9553571343421936 0.6264917254447937
vt 0.96428573131561279 0
vt 0.96428573131561279 0.6264917254447937
vt 0.97321426868438721 0
vt 0.97321426868438721 0.6264917254447937
vt 0.9821428656578064 0
vt 0.9821428656578064 0.6264917254447937
vt 0.99107140302658081 0
vt 0.99107140302658081 0.6264917254447937
vt 1 0
vt 1 0.6264917254447937
vt 0.37321710586547852 0.66670936346054077
vt 0.36540508270263672 0.65884751081466675
vt 0.35633513331413269 0.65198475122451782
vt 0.33500650525093079 0.64104181528091431
vt 0.31040111184120178 0.63345080614089966
vt 0.2836889922618866 0.62878203392028809
vt 0.2560400664806366 0.6266058087348938
vt 0.22862429916858673 0.62649238109588623
vt 0.17917217314243317 0.63073515892028809
vt 0.14229494333267212 0.63903146982192993
vt 0.12790073454380035 0.64506357908248901
vt 0.11536534130573273 0.65273749828338623
vt 0.10406067222356796 0.6623426079750061
vt 0.093358658254146576 0.6741681694984436
vt 0.071250222623348236 0.70563822984695435
vt 0.045880086719989777 0.74829930067062378
vt 0.0331987664103508 0.77280479669570923
vt 0.021547231823205948 0.79864931106567383
vt 0.011695947498083115 0.82524967193603516
vt 0.0044153761118650436 0.85202276706695557
vt 0.00047598389210179448 0.87838536500930786
vt 0 0.89123052358627319
vt 0.00064823502907529473 0.90375429391860962
vt 0.0024840026162564754 0.91588222980499268
vt 0.0054386383853852749 0.92753314971923828
vt 0.014297879301011562 0.94907283782958984
vt 0.026412686333060265 0.96771091222763062
vt 0.040969789028167725 0.98278504610061646
vt 0.057155918329954147 0.99363285303115845
vt 0.074157796800136566 0.99959194660186768
vt 0.091162167489528656 1
vt 0.1073557436466217 0.9941946268081665
vt 0.12212672084569931 0.98190033435821533
vt 0.13566908240318298 0.96438908576965332
vt 0.14837829768657684 0.94331961870193481
vt 0.18546150624752045 0.87535041570663452
vt 0.19879259169101715 0.8566364049911499
vt 0.21326778829097748 0.84265828132629395
vt 0.22915032505989075 0.83453983068466187
vt 0.24617467820644379 0.83126479387283325
vt 0.3177352249622345 0.83557260036468506
vt 0.33450242877006531 0.83324503898620605
vt 0.3500249981880188 0.82645314931869507
vt 0.36388862133026123 0.81411707401275635
vt 0.37561309337615967 0.79704374074935913
vt 0.38470157980918884 0.77651149034500122
vt 0.39065730571746826 0.75379866361618042
vt 0.39298349618911743 0.73018360137939453
vt 0.39263027906417847 0.7184373140335083
vt 0.39118340611457825 0.70694482326507568
vt 0.38858073949813843 0.69586598873138428
vt 0.38476020097732544 0.6853606104850769
vt 0.37965968251228333 0.67558848857879639
vt 0.37321710586547852 0.95978301763534546
vt 0.36540508270263672 0.96764487028121948
vt 0.35633513331413269 0.97450757026672363
vt 0.33500650525093079 0.98545056581497192
vt 0.31040111184120178 0.9930415153503418
vt 0.2836889922618866 0.99771034717559814
vt 0.2560400664806366 0.99988657236099243
vt 0.22862429916858673 1
vt 0.17917217314243317 0.99575722217559814
vt 0.14229494333267212 0.9874609112739563
vt 0.12790073454380035 0.98142874240875244
vt 0.11536534130573273 0.97375482320785522
vt 0.10406067222356796 0.96414977312088013
vt 0.093358658254146576 0.95232421159744263
vt 0.071250222623348236 0.92085415124893188
vt 0.045880086719989777 0.87819308042526245
vt 0.0331987664103508 0.853687584400177
vt 0.021547231823205948 0.8278430700302124
vt 0.011695947498083115 0.8012426495552063
vt 0.0044153761118650436 0.77446961402893066
vt 0.00047598389210179448 0.74810701608657837
vt 0 0.73526185750961304
vt 0.00064823502907529473 0.72273808717727661
vt 0.0024840026162564754 0.71061015129089355
vt 0.0054386383853852749 0.69895917177200317
vt 0.014297879301011562 0.67741954326629639
vt 0.026412686333060265 0.65878146886825562
vt 0.040969789028167725 0.64370733499526978
vt 0.057155918329954147 0.63285952806472778
vt 0.074157796800136566 0.62690043449401855
vt 0.091162167489528656 0.62649238109588623
vt 0.1073557436466217 0.63229775428771973
vt 0.12212672084569931 0.6445920467376709
vt 0.13566908240318298 0.66210329532623291
vt 0.14837829768657684 0.68317270278930664
vt 0.18546150624752045 0.75114196538925171
vt 0.19879259169101715 0.76985597610473633
vt 0.21326778829097748 0.78383409976959229
vt 0.22915032505989075 0.79195249080657959
vt 0.24617467820644379 0.79522758722305298
vt 0.3177352249622345 0.79091978073120117
vt 0.33450242877006531 0.7932472825050354
vt 0.3500249981880188 0.80003923177719116
vt 0.36388862133026123 0.81237524747848511
vt 0.37561309337615967 0.8294486403465271
vt 0.38470157980918884 0.84998089075088501
vt 0.39065730571746826 0.87269371747970581
vt 0.39298349618911743 0.89630872011184692
vt 0.39263027906417847 0.90805506706237793
vt 0.39118340611457825 0.91954755783081055
vt 0.38858073949813843 0.93062639236450195
vt 0.38476020097732544 0.94113177061080933
vt 0.37965968251228333 0.95090389251708984
vn -0.58433419466018677 -0.81151312589645386 0
vn -0.58433419466018677 -0.81151312589645386 0
vn -0.47003990411758423 -0.88264518976211548 0
vn -0.47003990411758423 -0.88264518976211548 0
vn -0.37568959593772888 -0.92674553394317627 0
vn -0.37568959593772888 -0.92674553394317627 0
vn -0.23648548126220703 -0.97163504362106323 0
vn -0.23648548126220703 -0.97163504362106323 0
vn -0.14219959080219269 -0.98983800411224365 0
vn -0.14219959080219269 -0.98983800411224365 0
vn -0.074832096695899963 -0.99719613790512085 0
vn -0.074832096695899963 -0.99719613790512085 0
vn -0.023722941055893898 -0.99971854686737061 0
vn -0.023722941055893898 -0.99971854686737061 0
vn 0.017648138105869293 -0.9998442530632019 0
vn 0.017648138105869293 -0.9998442530632019 0
vn 0.08926757425069809 -0.99600768089294434 0
vn 0.08926757425069809 -0.99600768089294434 0
vn 0.20503734052181244 -0.97875416278839111 0
vn 0.20503734052181244 -0.97875416278839111 0
vn 0.29806438088417053 -0.95454579591751099 0
vn 0.29806438088417053 -0.95454579591751099 0
vn 0.40715572237968445 -0.91335874795913696 0
vn 0.40715572237968445 -0.91335874795913696 0
vn 0.5145222544670105 -0.85747700929641724 0
vn 0.5145222544670105 -0.85747700929641724 0
vn 0.60154730081558228 -0.79883718490600586 0
vn 0.60154730081558228 -0.79883718490600586 0
vn 0.69194823503494263 -0.72194713354110718 0
vn 0.69194823503494263 -0.72194713354110718 0
vn 0.74597811698913574 -0.66597044467926025 0
vn 0.74597811698913574 -0.66597044467926025 0
vn 0.78332972526550293 -0.62160646915435791 0
vn 0.78332972526550293 -0.62160646915435791 0
vn 0.82912999391555786 -0.5590558648109436 0
vn 0.82912999391555786 -0.5590558648109436 0
vn 0.88376134634017944 -0.46793791651725769 0
vn 0.88376134634017944 -0.46793791651725769 0
vn 0.94355612993240356 -0.33121263980865479 0
vn 0.94355612993240356 -0.33121263980865479 0
vn 0.99210548400878906 -0.12540611624717712 0
vn 0.99210548400878906 -0.12540611624717712 0
vn 0.99995946884155273 0.0090021016076207161 0
vn 0.99995946884155273 0.0090021016076207161 0
vn 0.98677855730056763 0.16207428276538849 0
vn 0.98677855730056763 0.16207428276538849 0
vn 0.94947481155395508 0.3138432502746582 0
vn 0.94947481155395508 0.3138432502746582 0
vn 0.89492189884185791 0.44622278213500977 0
vn 0.89492189884185791 0.44622278213500977 0
vn 0.75901073217391968 0.65107810497283936 0
vn 0.75901073217391968 0.65107810497283936 0
vn 0.61114668846130371 0.79151731729507446 0
vn 0.61114668846130371 0.79151731729507446 0
vn 0.45909249782562256 0.88838845491409302 0
vn 0.45909249782562256 0.88838845491409302 0
vn 0.29783773422241211 0.9546164870262146 0
vn 0.29783773422241211 0.9546164870262146 0
vn 0.1170196607708931 0.99312961101531982 0
vn 0.1170196607708931 0.99312961101531982 0
vn -0.094397321343421936 0.99553459882736206 0
vn -0.094397321343421936 0.99553459882736206 0
vn -0.33941254019737244 0.94063764810562134 0
vn -0.33941254019737244 0.94063764810562134 0
vn -0.5510903000831604 0.83444559574127197 0
vn -0.5510903000831604 0.83444559574127197 0
vn -0.6764671802520752 0.73647278547286987 0
vn -0.6764671802520752 0.73647278547286987 0
vn -0.73998475074768066 0.67262363433837891 0
vn -0.73998475074768066 0.67262363433837891 0
vn -0.69858652353286743 0.71552562713623047 0
vn -0.69858652353286743 0.71552562713623047 0
vn -0.59300637245178223 0.80519777536392212 0
vn -0.59300637245178223 0.80519777536392212 0
vn -0.40777519345283508 0.91308236122131348 0
vn -0.40777519345283508 0.91308236122131348 0
vn -0.19782964885234833 0.98023641109466553 0
vn -0.19782964885234833 0.98023641109466553 0
vn -0.048057194799184799 0.99884456396102905 0
vn -0.048057194799184799 0.99884456396102905 0
vn -0.021752608940005302 0.9997633695602417 0
vn -0.021752608940005302 0.9997633695602417 0
vn -0.1605510413646698 0.98702752590179443 0
vn -0.1605510413646698 0.98702752590179443 0
vn -0.36826133728027344 0.92972230911254883 0
vn -0.36826133728027344 0.92972230911254883 0
vn -0.57905000448226929 0.81529206037521362 0
vn -0.57905000448226929 0.81529206037521362 0
vn -0.74338811635971069 0.66886031627655029 0
vn -0.74338811635971069 0.66886031627655029 0
vn -0.86948972940444946 0.49395102262496948 0
vn -0.86948972940444946 0.49395102262496948 0
vn -0.95921021699905396 0.28269374370574951 0
vn -0.95921021699905396 0.28269374370574951 0
vn -0.99971538782119751 0.023856084793806076 0
vn -0.99971538782119751 0.023856084793806076 0
vn -0.99232518672943115 -0.1236555278301239 0
vn -0.99232518672943115 -0.1236555278301239 0
vn -0.96030974388122559 -0.27893590927124023 0
vn -0.96030974388122559 -0.27893590927124023 0
vn -0.90058910846710205 -0.43467149138450623 0
vn -0.90058910846710205 -0.43467149138450623 0
vn -0.81381464004516602 -0.58112454414367676 0
vn -0.81381464004516602 -0.58112454414367676 0
vn -0.70540571212768555 -0.70880377292633057 0
vn -0.70540571212768555 -0.70880377292633057 0
vn -0.58433419466018677 -0.81151312589645386 0
vn -0.58433419466018677 -0.81151312589645386 0
vn 0 0 -1
vn 0 0 -1
vn 0 0 -1
vn 0 0 -1
vn 0 0 -1
vn 0 0 -1
vn 0 0 -1
vn 0 0 -1
vn 0 0 -1
vn 0 0 -1
vn 0 0 -1
vn 0 0 -1
vn 0 0 -1
vn 0 0 -1
vn 0 0 -1
vn 0 0 -1
vn 0 0 -1
vn 0 0 -1
vn 0 0 -1
vn 0 0 -1
vn 0 0 -1
vn 0 0 -1
vn 0 0 -1
vn 0 0 -1
vn 0 0 -1
vn 0 0 -1
vn 0 0 -1
vn 0 0 -1
vn 0 0 -1
vn 0 0 -1
vn 0 0 -1
vn 0 0 -1
vn 0 0 -1
vn 0 0 -1
vn 0 0 -1
vn 0 0 -1
vn 0 0 -1
vn 0 0 -1
vn 0 0 -1
vn 0 0 -1
vn 0 0 -1
vn 0 0 -1
vn 0 0 -1
vn 0 0 -1
vn 0 0 -1
vn 0 0 -1
vn 0 0 -1
vn 0 0 -1
vn 0 0 -1
vn 0 0 -1
vn 0 0 -1
vn 0 0 -1
vn 0 0 -1
vn 0 0 1
vn 0 0 1
vn 0 0 1
vn 0 0 1
vn 0 0 1
vn 0 0 1
vn 0 0 1
vn 0 0 1
vn 0 0 1
vn 0 0 1
vn 0 0 1
vn 0 0 1
vn 0 0 1
vn 0 0 1
vn 0 0 1
vn 0 0 1
vn 0 0 1
vn 0 0 1
vn 0 0 1
vn 0 0 1
vn 0 0 1
vn 0 0 1
vn 0 0 1
vn 0 0 1
vn 0 0 1
vn 0 0 1
vn 0 0 1
vn 0 0 1
vn 0 0 1
vn 0 0 1
vn 0 0 1
vn 0 0 1
vn 0 0 1
vn 0 0 1
vn 0 0 1
vn 0 0 1
vn 0 0 1
vn 0 0 1
vn 0 0 1
vn 0 0 1
vn 0 0 1
vn 0 0 1
vn 0 0 1
vn 0 0 1
vn 0 0 1
vn 0 0 1
vn 0 0 1
vn 0 0 1
vn 0 0 1
vn 0 0 1
vn 0 0 1
vn 0 0 1
vn 0 0 1
f 1/1/1 3/3/3 4/4/4 2/2/2
f 3/3/3 5/5/5 6/6/6 4/4/4
f 5/5/5 7/7/7 8/8/8 6/6/6
f 7/7/7 9/9/9 10/10/10 8/8/8
f 9/9/9 11/11/11 12/12/12 10/10/10
f 11/11/11 13/13/13 14/14/14 12/12/12
f 13/13/13 15/15/15 16/16/16 14/14/14
f 15/15/15 17/17/17 18/18/18 16/16/16
f 17/17/17 19/19/19 20/20/20 18/18/18
f 19/19/19 21/21/21 22/22/22 20/20/20
f 21/21/21 23/23/23 24/24/24 22/22/22
f 23/23/23 25/25/25 26/26/26 24/24/24
f 25/25/25 27/27/27 28/28/28 26/26/26
f 27/27/27 29/29/29 30/30/30 28/28/28
f 29/29/29 31/31/31 32/32/32 30/30/30
f 31/31/31 33/33/33 34/34/34 32/32/32
f 33/33/33 35/35/35 36/36/36 34/34/34
f 35/35/35 37/37/37 38/38/38 36/36/36
f 37/37/37 39/39/39 40/40/40 38/38/38
f 39/39/39 41/41/41 42/42/42 40/40/40
f 41/41/41 43/43/43 44/44/44 42/42/42
f 43/43/43 45/45/45 46/46/46 44/44/44
f 45/45/45 47/47/47 48/48/48 46/46/46
f 47/47/47 49/49/49 50/50/50 48/48/48
f 49/49/49 51/51/51 52/52/52 50/50/50
f 51/51/51 53/53/53 54/54/54 52/52/52
f 53/53/53 55/55/55 56/56/56 54/54/54
f 55/55/55 57/57/57 58/58/58 56/56/56
f 57/57/57 59/59/59 60/60/60 58/58/58
f 59/59/59 61/61/61 62/62/62 60/60/60
f 61/61/61 63/63/63 64/64/64 62/62/62
f 63/63/63 65/65/65 66/66/66 64/64/64
f 65/65/65 67/67/67 68/68/68 66/66/66
f 67/67/67 69/69/69 70/70/70 68/68/68
f 69/69/69 71/71/71 72/72/72 70/70/70
f 71/71/71 73/73/73 74/74/74 72/72/72
f 73/73/73 75/75/75 76/76/76 74/74/74
f 75/75/75 77/77/77 78/78/78 76/76/76
f 77/77/77 79/79/79 80/80/80 78/78/78
f 79/79/79 81/81/81 82/82/82 80/80/80
f 81/81/81 83/83/83 84/84/84 82/82/82
f 83/83/83 85/85/85 86/86/86 84/84/84
f 85/85/85 87/87/87 88/88/88 86/86/86
f 87/87/87 89/89/89 90/90/90 88/88/88
f 89/89/89 91/91/91 92/92/92 90/90/90
f 91/91/91 93/93/93 94/94/94 92/92/92
f 93/93/93 95/95/95 96/96/96 94/94/94
f 95/95/95 97/97/97 98/98/98 96/96/96
f 97/97/97 99/99/99 100/100/100 98/98/98
f 99/99/99 101/101/101 102/102/102 100/100/100
f 101/101/101 103/103/103 104/104/104 102/102/102
f 103/103/103 105/105/105 106/106/106 104/104/104
f 105/105/105 107/107/107 108/108/108 106/106/106
f 144/144/144 143/143/143 124/124/124
f 138/138/138 126/126/126 142/142/142
f 141/141/141 140/140/140 139/139/139
f 141/141/141 138/138/138 142/142/142
f 143/143/143 142/142/142 126/126/126
f 151/151/151 150/150/150 112/112/112
f 112/112/112 150/150/150 149/149/149
f 147/147/147 146/146/146 117/117/117
f 114/114/114 149/149/149 148/148/148
f 146/146/146 145/145/145 118/118/118
f 116/116/116 148/148/148 147/147/147
f 145/145/145 144/144/144 121/121/121
f 127/127/127 126/126/126 137/137/137
f 127/127/127 137/137/137 136/136/136
f 134/134/134 128/128/128 135/135/135
f 135/135/135 127/127/127 136/136/136
f 139/139/139 138/138/138 141/141/141
f 134/134/134 129/129/129 128/128/128
f 127/127/127 135/135/135 128/128/128
f 133/133/133 129/129/129 134/134/134
f 130/130/130 132/132/132 131/131/131
f 133/133/133 132/132/132 130/130/130
f 130/130/130 129/129/129 133/133/133
f 126/126/126 138/138/138 137/137/137
f 111/111/111 152/152/152 151/151/151
f 157/157/157 156/156/156 161/161/161
f 109/109/109 156/156/156 155/155/155
f 155/155/155 154/154/154 110/110/110
f 111/111/111 154/154/154 153/153/153
f 160/160/160 158/158/158 157/157/157
f 157/157/157 161/161/161 160/160/160
f 156/156/156 109/109/109 161/161/161
f 110/110/110 154/154/154 111/111/111
f 151/151/151 112/112/112 111/111/111
f 155/155/155 110/110/110 109/109/109
f 160/160/160 159/159/159 158/158/158
f 149/149/149 113/113/113 112/112/112
f 121/121/121 120/120/120 145/145/145
f 122/122/122 121/121/121 144/144/144
f 125/125/125 124/124/124 143/143/143
f 144/144/144 124/124/124 123/123/123
f 123/123/123 122/122/122 144/144/144
f 143/143/143 126/126/126 125/125/125
f 116/116/116 115/115/115 148/148/148
f 116/116/116 147/147/147 117/117/117
f 145/145/145 120/120/120 119/119/119
f 145/145/145 119/119/119 118/118/118
f 146/146/146 118/118/118 117/117/117
f 115/115/115 114/114/114 148/148/148
f 149/149/149 114/114/114 113/113/113
f 152/152/152 111/111/111 153/153/153
f 197/197/197 177/177/177 196/196/196
f 191/191/191 195/195/195 179/179/179
f 194/194/194 192/192/192 193/193/193
f 194/194/194 195/195/195 191/191/191
f 196/196/196 179/179/179 195/195/195
f 204/204/204 165/165/165 203/203/203
f 165/165/165 202/202/202 203/203/203
f 200/200/200 170/170/170 199/199/199
f 167/167/167 201/201/201 202/202/202
f 199/199/199 171/171/171 198/198/198
f 169/169/169 200/200/200 201/201/201
f 198/198/198 174/174/174 197/197/197
f 180/180/180 190/190/190 179/179/179
f 180/180/180 189/189/189 190/190/190
f 187/187/187 188/188/188 181/181/181
f 188/188/188 189/189/189 180/180/180
f 192/192/192 194/194/194 191/191/191
f 187/187/187 181/181/181 182/182/182
f 180/180/180 181/181/181 188/188/188
f 186/186/186 187/187/187 182/182/182
f 183/183/183 184/184/184 185/185/185
f 186/186/186 183/183/183 185/185/185
f 183/183/183 186/186/186 182/182/182
f 179/179/179 190/190/190 191/191/191
f 164/164/164 204/204/204 205/205/205
f 210/210/210 214/214/214 209/209/209
f 162/162/162 208/208/208 209/209/209
f 208/208/208 163/163/163 207/207/207
f 164/164/164 206/206/206 207/207/207
f 213/213/213 210/210/210 211/211/211
f 210/210/210 213/213/213 214/214/214
f 209/209/209 214/214/214 162/162/162
f 163/163/163 164/164/164 207/207/207
f 204/204/204 164/164/164 165/165/165
f 208/208/208 162/162/162 163/163/163
f 213/213/213 211/211/211 212/212/212
f 202/202/202 165/165/165 166/166/166
f 174/174/174 198/198/198 173/173/173
f 175/175/175 197/197/197 174/174/174
f 178/178/178 196/196/196 177/177/177
f 197/197/197 176/176/176 177/177/177
f 176/176/176 197/197/197 175/175/175
f 196/196/196 178/178/178 179/179/179
f 169/169/169 201/201/201 168/168/168
f 169/169/169 170/170/170 200/200/200
f 198/198/198 172/172/172 173/173/173
f 198/198/198 171/171/171 172/172/172
f 199/199/199 170/170/170 171/171/171
f 168/168/168 201/201/201 167/167/167
f 202/202/202 166/166/166 167/167/167
f 205/205/205 206/206/206 164/164/164
