# Rhino

o object_1
v -4000.6982421875 250.47627258300781 -24424.40234375
v -3996.530029296875 250.96797180175781 -24448.9140625
v -4028.2744140625 236.49276733398438 -24429.37109375
v -4024.106201171875 236.98446655273438 -24453.884765625
v -4046.79296875 237.47915649414062 -24432.5
v -4042.624755859375 237.97087097167969 -24457.013671875
v -4057.283203125 243.33639526367188 -24434.166015625
v -4053.114990234375 243.82809448242188 -24458.6796875
v -4063.90625 251.89295959472656 -24435.12109375
v -4059.738037109375 252.38465881347656 -24459.634765625
v -4063.40087890625 256.82742309570312 -24434.935546875
v -4059.232666015625 257.31912231445312 -24459.44921875
v -4056.21533203125 264.7811279296875 -24433.5546875
v -4052.047119140625 265.2728271484375 -24458.068359375
v -4009.4931640625 263.951904296875 -24425.626953125
v -4005.324951171875 264.443603515625 -24450.140625
v -4004.7119140625 262.642333984375 -24424.83984375
v -4000.543701171875 263.134033203125 -24449.353515625
v -4001.03076171875 259.47589111328125 -24424.27734375
v -3996.862548828125 259.96762084960938 -24448.791015625
v -3999.382080078125 255.17857360839844 -24424.083984375
v -3995.2138671875 255.67027282714844 -24448.595703125
v -4000.6982421875 250.47627258300781 -24424.40234375
v -3996.530029296875 250.96797180175781 -24448.9140625
v -4000.6982421875 250.47627258300781 -24424.40234375
v -4028.2744140625 236.49276733398438 -24429.37109375
v -4046.79296875 237.47915649414062 -24432.5
v -4057.283203125 243.33639526367188 -24434.166015625
v -4063.90625 251.89295959472656 -24435.12109375
v -4063.40087890625 256.82742309570312 -24434.935546875
v -4056.21533203125 264.7811279296875 -24433.5546875
v -4009.4931640625 263.951904296875 -24425.626953125
v -4004.7119140625 262.642333984375 -24424.83984375
v -4001.03076171875 259.47589111328125 -24424.27734375
v -3999.382080078125 255.17857360839844 -24424.083984375
v -3996.530029296875 250.96797180175781 -24448.9140625
v -4024.106201171875 236.98446655273438 -24453.884765625
v -4042.624755859375 237.97087097167969 -24457.013671875
v -4053.114990234375 243.82809448242188 -24458.6796875
v -4059.738037109375 252.38465881347656 -24459.634765625
v -4059.232666015625 257.31912231445312 -24459.44921875
v -4052.047119140625 265.2728271484375 -24458.068359375
v -4005.324951171875 264.443603515625 -24450.140625
v -4000.543701171875 263.134033203125 -24449.353515625
v -3996.862548828125 259.96762084960938 -24448.791015625
v -3995.2138671875 255.67027282714844 -24448.595703125
vt 0 0
vt 0 0.62767934799194336
vt 0.1428571492433548 0
vt 0.1428571492433548 0.62767934799194336
vt 0.28571429848670959 0
vt 0.28571429848670959 0.62767934799194336
vt 0.3571428656578064 0
vt 0.3571428656578064 0.62767934799194336
vt 0.4285714328289032 0
vt 0.4285714328289032 0.62767934799194336
vt 0.46428570151329041 0
vt 0.46428570151329041 0.62767934799194336
vt 0.53571426868438721 0
vt 0.53571426868438721 0.62767934799194336
vt 0.8571428656578064 0
vt 0.8571428656578064 0.62767934799194336
vt 0.8928571343421936 0
vt 0.8928571343421936 0.62767934799194336
vt 0.92857140302658081 0
vt 0.92857140302658081 0.62767934799194336
vt 0.96428573131561279 0
vt 0.96428573131561279 0.62767934799194336
vt 1 0
vt 1 0.62767934799194336
vt 0.38372299075126648 0.66399198770523071
vt 0.18386867642402649 0.62768000364303589
vt 0.072715699672698975 0.70328634977340698
vt 0.021524680778384209 0.79717069864273071
vt 0 0.90326255559921265
vt 0.014058292843401432 0.94900655746459961
vt 0.075710326433181763 1
vt 0.35983654856681824 0.82523560523986816
vt 0.38619071245193481 0.79555010795593262
vt 0.40168532729148865 0.75189894437789917
vt 0.40222716331481934 0.70460522174835205
vt 0.38372299075126648 0.96368801593780518
vt 0.18386867642402649 1
vt 0.072715699672698975 0.92439365386962891
vt 0.021524680778384209 0.83050930500030518
vt 0 0.72441744804382324
vt 0.014058292843401432 0.67867344617843628
vt 0.075710326433181763 0.62768000364303589
vt 0.35983654856681824 0.80244439840316772
vt 0.38619071245193481 0.83212989568710327
vt 0.40168532729148865 0.87578105926513672
vt 0.40222716331481934 0.92307478189468384
vn 0.8172268271446228 -0.5619928240776062 0.12768843770027161
vn 0.8172268271446228 -0.5619928240776062 0.12768843770027161
vn 0.257049560546875 -0.96609193086624146 0.02433026023209095
vn 0.257049560546875 -0.96609193086624146 0.02433026023209095
vn -0.39388516545295715 -0.91518992185592651 -0.085333630442619324
vn -0.39388516545295715 -0.91518992185592651 -0.085333630442619324
vn -0.57632267475128174 -0.80919951200485229 -0.11422928422689438
vn -0.57632267475128174 -0.80919951200485229 -0.11422928422689438
vn -0.96804279088973999 -0.18589399755001068 -0.1683347225189209
vn -0.96804279088973999 -0.18589399755001068 -0.1683347225189209
vn -0.92409825325012207 0.35145008563995361 -0.15008404850959778
vn -0.92409825325012207 0.35145008563995361 -0.15008404850959778
vn -0.44688549637794495 0.89270365238189697 -0.058082021772861481
vn -0.44688549637794495 0.89270365238189697 -0.058082021772861481
vn 0.023624179884791374 0.99943125247955322 0.024064227938652039
vn 0.023624179884791374 0.99943125247955322 0.024064227938652039
vn 0.45956921577453613 0.88295400142669678 0.095855936408042908
vn 0.45956921577453613 0.88295400142669678 0.095855936408042908
vn 0.79088306427001953 0.59419769048690796 0.14640048146247864
vn 0.79088306427001953 0.59419769048690796 0.14640048146247864
vn 0.98340684175491333 0.067061625421047211 0.16856361925601959
vn 0.98340684175491333 0.067061625421047211 0.16856361925601959
vn 0.8172268271446228 -0.5619928240776062 0.12768843770027161
vn 0.8172268271446228 -0.5619928240776062 0.12768843770027161
vn -0.16760101914405823 -0.019770875573158264 0.98565661907196045
vn -0.16760101914405823 -0.019770875573158264 0.98565661907196045
vn -0.16760101914405823 -0.019770875573158264 0.98565661907196045
vn -0.16760101914405823 -0.019770875573158264 0.98565661907196045
vn -0.16760101914405823 -0.019770875573158264 0.98565661907196045
vn -0.16760101914405823 -0.019770875573158264 0.98565661907196045
vn -0.16760101914405823 -0.019770875573158264 0.98565661907196045
vn -0.16760101914405823 -0.019770875573158264 0.98565661907196045
vn -0.16760101914405823 -0.019770875573158264 0.98565661907196045
vn -0.16760101914405823 -0.019770875573158264 0.98565661907196045
vn -0.16760101914405823 -0.019770875573158264 0.98565661907196045
vn 0.16760101914405823 0.019770875573158264 -0.98565661907196045
vn 0.16760101914405823 0.019770875573158264 -0.98565661907196045
vn 0.16760101914405823 0.019770875573158264 -0.98565661907196045
vn 0.16760101914405823 0.019770875573158264 -0.98565661907196045
vn 0.16760101914405823 0.019770875573158264 -0.98565661907196045
vn 0.16760101914405823 0.019770875573158264 -0.98565661907196045
vn 0.16760101914405823 0.019770875573158264 -0.98565661907196045
vn 0.16760101914405823 0.019770875573158264 -0.98565661907196045
vn 0.16760101914405823 0.019770875573158264 -0.98565661907196045
vn 0.16760101914405823 0.019770875573158264 -0.98565661907196045
vn 0.16760101914405823 0.019770875573158264 -0.98565661907196045
f 1/1/1 3/3/3 4/4/4 2/2/2
f 3/3/3 5/5/5 6/6/6 4/4/4
f 5/5/5 7/7/7 8/8/8 6/6/6
f 7/7/7 9/9/9 10/10/10 8/8/8
f 9/9/9 11/11/11 12/12/12 10/10/10
f 11/11/11 13/13/13 14/14/14 12/12/12
f 13/13/13 15/15/15 16/16/16 14/14/14
f 15/15/15 17/17/17 18/18/18 16/16/16
f 17/17/17 19/19/19 20/20/20 18/18/18
f 19/19/19 21/21/21 22/22/22 20/20/20
f 21/21/21 23/23/23 24/24/24 22/22/22
f 27/27/27 31/31/31 28/28/28
f 29/29/29 28/28/28 30/30/30
f 31/31/31 30/30/30 28/28/28
f 26/26/26 32/32/32 31/31/31
f 34/34/34 33/33/33 25/25/25
f 35/35/35 34/34/34 25/25/25
f 31/31/31 27/27/27 26/26/26
f 26/26/26 25/25/25 32/32/32
f 25/25/25 33/33/33 32/32/32
f 38/38/38 39/39/39 42/42/42
f 40/40/40 41/41/41 39/39/39
f 42/42/42 39/39/39 41/41/41
f 37/37/37 42/42/42 43/43/43
f 45/45/45 36/36/36 44/44/44
f 46/46/46 36/36/36 45/45/45
f 42/42/42 37/37/37 38/38/38
f 37/37/37 43/43/43 36/36/36
f 36/36/36 43/43/43 44/44/44
