# Rhino

o object_1
v -4040.564208984375 321.81451416015625 -24447.591796875
v -4054.9765625 321.81451416015625 -24463.978515625
v -4058.458984375 308.134521484375 -24431.8515625
v -4072.871337890625 308.134521484375 -24448.23828125
v -4070.8505859375 308.04144287109375 -24420.953125
v -4085.2626953125 308.04144287109375 -24437.33984375
v -4078.06103515625 312.6319580078125 -24414.611328125
v -4092.47314453125 312.6319580078125 -24430.998046875
v -4082.78857421875 319.78790283203125 -24410.453125
v -4097.20068359375 319.78790283203125 -24426.83984375
v -4082.62939453125 324.13827514648438 -24410.59375
v -4097.04150390625 324.13827514648438 -24426.98046875
v -4078.1220703125 331.4798583984375 -24414.55859375
v -4092.534423828125 331.4798583984375 -24430.9453125
v -4046.918212890625 333.1689453125 -24442.001953125
v -4061.33056640625 333.1689453125 -24458.388671875
v -4043.680908203125 332.26852416992188 -24444.849609375
v -4058.09326171875 332.26852416992188 -24461.236328125
v -4041.110595703125 329.68399047851562 -24447.111328125
v -4055.52294921875 329.68399047851562 -24463.49609375
v -4039.855712890625 326.00332641601562 -24448.21484375
v -4054.26806640625 326.00332641601562 -24464.6015625
v -4040.564208984375 321.81451416015625 -24447.591796875
v -4054.9765625 321.81451416015625 -24463.978515625
v -4040.564208984375 321.81451416015625 -24447.591796875
v -4058.458984375 308.134521484375 -24431.8515625
v -4070.8505859375 308.04144287109375 -24420.953125
v -4078.06103515625 312.6319580078125 -24414.611328125
v -4082.78857421875 319.78790283203125 -24410.453125
v -4082.62939453125 324.13827514648438 -24410.59375
v -4078.1220703125 331.4798583984375 -24414.55859375
v -4046.918212890625 333.1689453125 -24442.001953125
v -4043.680908203125 332.26852416992188 -24444.849609375
v -4041.110595703125 329.68399047851562 -24447.111328125
v -4039.855712890625 326.00332641601562 -24448.21484375
v -4054.9765625 321.81451416015625 -24463.978515625
v -4072.871337890625 308.134521484375 -24448.23828125
v -4085.2626953125 308.04144287109375 -24437.33984375
v -4092.47314453125 312.6319580078125 -24430.998046875
v -4097.20068359375 319.78790283203125 -24426.83984375
v -4097.04150390625 324.13827514648438 -24426.98046875
v -4092.534423828125 331.4798583984375 -24430.9453125
v -4061.33056640625 333.1689453125 -24458.388671875
v -4058.09326171875 332.26852416992188 -24461.236328125
v -4055.52294921875 329.68399047851562 -24463.49609375
v -4054.26806640625 326.00332641601562 -24464.6015625
vt 0 0
vt 0 0.62767934799194336
vt 0.1428571492433548 0
vt 0.1428571492433548 0.62767934799194336
vt 0.28571429848670959 0
vt 0.28571429848670959 0.62767934799194336
vt 0.3571428656578064 0
vt 0.3571428656578064 0.62767934799194336
vt 0.4285714328289032 0
vt 0.4285714328289032 0.62767934799194336
vt 0.46428570151329041 0
vt 0.46428570151329041 0.62767934799194336
vt 0.53571426868438721 0
vt 0.53571426868438721 0.62767934799194336
vt 0.8571428656578064 0
vt 0.8571428656578064 0.62767934799194336
vt 0.8928571343421936 0
vt 0.8928571343421936 0.62767934799194336
vt 0.92857140302658081 0
vt 0.92857140302658081 0.62767934799194336
vt 0.96428573131561279 0
vt 0.96428573131561279 0.62767934799194336
vt 1 0
vt 1 0.62767934799194336
vt 0.38372299075126648 0.66399198770523071
vt 0.18386867642402649 0.62768000364303589
vt 0.072715699672698975 0.70328634977340698
vt 0.021524680778384209 0.79717069864273071
vt 0 0.90326255559921265
vt 0.014058292843401432 0.94900655746459961
vt 0.075710326433181763 1
vt 0.35983654856681824 0.82523560523986816
vt 0.38619071245193481 0.79555010795593262
vt 0.40168532729148865 0.75189894437789917
vt 0.40222716331481934 0.70460522174835205
vt 0.38372299075126648 0.96368801593780518
vt 0.18386867642402649 1
vt 0.072715699672698975 0.92439365386962891
vt 0.021524680778384209 0.83050930500030518
vt 0 0.72441744804382324
vt 0.014058292843401432 0.67867344617843628
vt 0.075710326433181763 0.62768000364303589
vt 0.35983654856681824 0.80244439840316772
vt 0.38619071245193481 0.83212989568710327
vt 0.40168532729148865 0.87578105926513672
vt 0.40222716331481934 0.92307478189468384
vn 0.64450764656066895 -0.51310920715332031 -0.56685870885848999
vn 0.64450764656066895 -0.51310920715332031 -0.56685870885848999
vn 0.23516950011253357 -0.94969147443771362 -0.2068367600440979
vn 0.23516950011253357 -0.94969147443771362 -0.2068367600440979
vn -0.26188290119171143 -0.93721109628677368 0.23033179342746735
vn -0.26188290119171143 -0.93721109628677368 0.23033179342746735
vn -0.40496233105659485 -0.84210813045501709 0.3561733067035675
vn -0.40496233105659485 -0.84210813045501709 0.3561733067035675
vn -0.72844207286834717 -0.24269337952136993 0.64068090915679932
vn -0.72844207286834717 -0.24269337952136993 0.64068090915679932
vn -0.71711611747741699 0.29654255509376526 0.63071942329406738
vn -0.71711611747741699 0.29654255509376526 0.63071942329406738
vn -0.37650081515312195 0.86521261930465698 0.33114078640937805
vn -0.37650081515312195 0.86521261930465698 0.33114078640937805
vn -0.02312033623456955 0.99952584505081177 0.020334847271442413
vn -0.02312033623456955 0.99952584505081177 0.020334847271442413
vn 0.31315305829048157 0.90888732671737671 -0.27542504668235779
vn 0.31315305829048157 0.90888732671737671 -0.27542504668235779
vn 0.57694858312606812 0.64002811908721924 -0.5074390172958374
vn 0.57694858312606812 0.64002811908721924 -0.5074390172958374
vn 0.74500954151153564 0.12492057681083679 -0.65525233745574951
vn 0.74500954151153564 0.12492057681083679 -0.65525233745574951
vn 0.64450764656066895 -0.51310920715332031 -0.56685870885848999
vn 0.64450764656066895 -0.51310920715332031 -0.56685870885848999
vn 0.66042560338973999 0 0.75089144706726074
vn 0.66042560338973999 0 0.75089144706726074
vn 0.66042560338973999 0 0.75089144706726074
vn 0.66042560338973999 0 0.75089144706726074
vn 0.66042560338973999 0 0.75089144706726074
vn 0.66042560338973999 0 0.75089144706726074
vn 0.66042560338973999 0 0.75089144706726074
vn 0.66042560338973999 0 0.75089144706726074
vn 0.66042560338973999 0 0.75089144706726074
vn 0.66042560338973999 0 0.75089144706726074
vn 0.66042560338973999 0 0.75089144706726074
vn -0.66042560338973999 0 -0.75089144706726074
vn -0.66042560338973999 0 -0.75089144706726074
vn -0.66042560338973999 0 -0.75089144706726074
vn -0.66042560338973999 0 -0.75089144706726074
vn -0.66042560338973999 0 -0.75089144706726074
vn -0.66042560338973999 0 -0.75089144706726074
vn -0.66042560338973999 0 -0.75089144706726074
vn -0.66042560338973999 0 -0.75089144706726074
vn -0.66042560338973999 0 -0.75089144706726074
vn -0.66042560338973999 0 -0.75089144706726074
vn -0.66042560338973999 0 -0.75089144706726074
f 1/1/1 3/3/3 4/4/4 2/2/2
f 3/3/3 5/5/5 6/6/6 4/4/4
f 5/5/5 7/7/7 8/8/8 6/6/6
f 7/7/7 9/9/9 10/10/10 8/8/8
f 9/9/9 11/11/11 12/12/12 10/10/10
f 11/11/11 13/13/13 14/14/14 12/12/12
f 13/13/13 15/15/15 16/16/16 14/14/14
f 15/15/15 17/17/17 18/18/18 16/16/16
f 17/17/17 19/19/19 20/20/20 18/18/18
f 19/19/19 21/21/21 22/22/22 20/20/20
f 21/21/21 23/23/23 24/24/24 22/22/22
f 27/27/27 31/31/31 28/28/28
f 29/29/29 28/28/28 30/30/30
f 31/31/31 30/30/30 28/28/28
f 26/26/26 32/32/32 31/31/31
f 34/34/34 33/33/33 25/25/25
f 35/35/35 34/34/34 25/25/25
f 31/31/31 27/27/27 26/26/26
f 26/26/26 25/25/25 32/32/32
f 25/25/25 33/33/33 32/32/32
f 38/38/38 39/39/39 42/42/42
f 40/40/40 41/41/41 39/39/39
f 42/42/42 39/39/39 41/41/41
f 37/37/37 42/42/42 43/43/43
f 45/45/45 36/36/36 44/44/44
f 46/46/46 36/36/36 45/45/45
f 42/42/42 37/37/37 38/38/38
f 37/37/37 43/43/43 36/36/36
f 36/36/36 43/43/43 44/44/44
