# Rhino

o object_1
v -4083.968505859375 353.40582275390625 -24320.681640625
v -4086.62451171875 358.17349243164062 -24320.6796875
v -4090.421875 362.33880615234375 -24320.67578125
v -4095.065673828125 365.49749755859375 -24320.671875
v -4100.37255859375 367.50851440429688 -24320.6640625
v -4105.90625 368.22015380859375 -24320.654296875
v -4089.68896484375 356.89718627929688 -24332.666015625
v -4093.2373046875 361.16610717773438 -24331.689453125
v -4097.47998046875 364.49200439453125 -24330.11328125
v -4102.24755859375 366.72756958007812 -24327.998046875
v -4107.14990234375 367.70233154296875 -24325.517578125
v -4097.6064453125 353.5994873046875 -24341.044921875
v -4100.51220703125 358.13613891601562 -24339.388671875
v -4103.71728515625 361.89407348632812 -24336.71484375
v -4107.09228515625 364.70977783203125 -24333.125
v -4108.3125 349.140380859375 -24344.08984375
v -4110.34912109375 354.03903198242188 -24342.185546875
v -4112.15185546875 358.38113403320312 -24339.11328125
v -4113.64306640625 361.9813232421875 -24334.98828125
v -4114.7060546875 364.55517578125 -24330.15234375
v -4119.3779296875 344.53170776367188 -24340.771484375
v -4120.51611328125 349.80450439453125 -24339.13671875
v -4120.869140625 354.75039672851562 -24336.498046875
v -4120.41357421875 359.161376953125 -24332.95703125
v -4127.11279296875 341.31005859375 -24332.193359375
v -4127.623046875 346.84439086914062 -24331.255859375
v -4126.962890625 352.21234130859375 -24329.7421875
v -4125.14697265625 357.19009399414062 -24327.708984375
v -4122.33349609375 361.378173828125 -24325.326171875
v -4129.92333984375 340.13946533203125 -24320.595703125
v -4130.20556640625 345.76882934570312 -24320.599609375
v -4129.1767578125 351.29013061523438 -24320.60546875
v -4126.86669921875 356.47384643554688 -24320.61328125
v -4123.47412109375 360.90325927734375 -24320.62109375
v -4126.85888671875 341.415771484375 -24308.609375
v -4127.39013671875 346.9415283203125 -24309.5859375
v -4126.7626953125 352.29562377929688 -24311.162109375
v -4124.9912109375 357.25479125976562 -24313.27734375
v -4122.23046875 361.42108154296875 -24315.7578125
v -4118.94140625 344.71347045898438 -24300.23046875
v -4120.115234375 349.97149658203125 -24301.88671875
v -4120.525390625 354.89358520507812 -24304.560546875
v -4120.14697265625 359.2725830078125 -24308.150390625
v -4119.0185546875 362.759033203125 -24312.357421875
v -4108.2353515625 349.17254638671875 -24297.185546875
v -4110.2783203125 354.068603515625 -24299.08984375
v -4112.0908203125 358.406494140625 -24302.162109375
v -4113.59619140625 362.00103759765625 -24306.287109375
v -4114.67431640625 364.5682373046875 -24311.123046875
v -4097.169921875 353.78121948242188 -24300.505859375
v -4100.111328125 358.30313110351562 -24302.140625
v -4103.37353515625 362.0372314453125 -24304.77734375
v -4106.8251953125 364.82098388671875 -24308.318359375
v -4110.18505859375 366.4381103515625 -24312.46875
v -4089.43505859375 357.00289916992188 -24309.08203125
v -4093.004150390625 361.26324462890625 -24310.01953125
v -4097.27978515625 364.5753173828125 -24311.53515625
v -4102.09228515625 366.79226684570312 -24313.56640625
v -4107.046875 367.7452392578125 -24315.94921875
v -4083.968505859375 353.40582275390625 -24320.681640625
v -4086.62451171875 358.17349243164062 -24320.6796875
v -4090.421875 362.33880615234375 -24320.67578125
v -4095.065673828125 365.49749755859375 -24320.671875
v -4100.37255859375 367.50851440429688 -24320.6640625
v -4105.90625 368.22015380859375 -24320.654296875
v -4085.4833984375 352.77490234375 -24329.373046875
v -4089.794677734375 350.979248046875 -24336.88671875
v -4096.31982421875 348.26141357421875 -24342.205078125
v -4104.17822265625 344.98843383789062 -24344.609375
v -4112.30810546875 341.60232543945312 -24343.77734375
v -4119.61181640625 338.56045532226562 -24339.8203125
v -4125.10205078125 336.27359008789062 -24333.2734375
v -4128.03857421875 335.05059814453125 -24325.01953125
v -4128.02392578125 335.05667114257812 -24316.171875
v -4125.060546875 336.29095458984375 -24307.9296875
v -4119.54833984375 338.5867919921875 -24301.40234375
v -4112.23193359375 341.63409423828125 -24297.474609375
v -4104.099609375 345.02130126953125 -24296.673828125
v -4096.2490234375 348.29098510742188 -24299.109375
v -4089.7412109375 351.00149536132812 -24304.453125
v -4085.454833984375 352.78683471679688 -24311.982421875
v -4118.90087890625 363.2193603515625 -24328.001953125
v -4117.0068359375 364.3541259765625 -24328.001953125
v -4115.0126953125 365.30136108398438 -24328.001953125
v -4112.66650390625 366.133544921875 -24328.001953125
v -4110.24462890625 366.70639038085938 -24328.001953125
v -4110.1640625 366.72064208984375 -24328.001953125
v -4110.1708984375 366.7369384765625 -24327.947265625
v -4110.40966796875 367.309814453125 -24325.6640625
v -4110.56591796875 367.68475341796875 -24323.169921875
v -4110.6181640625 367.81082153320312 -24320.646484375
v -4110.6181640625 367.81082153320312 -24320.646484375
v -4110.56689453125 367.68743896484375 -24318.1328125
v -4110.41259765625 367.3170166015625 -24315.6484375
v -4110.39599609375 367.27716064453125 -24315.453125
v -4112.84521484375 366.694580078125 -24315.453125
v -4115.21826171875 365.8533935546875 -24315.453125
v -4117.22412109375 364.90554809570312 -24315.453125
v -4119.13134765625 363.7728271484375 -24315.453125
v -4119.1923828125 363.91946411132812 -24316.21875
v -4119.3125 364.20706176757812 -24318.4140625
v -4119.3525390625 364.30368041992188 -24320.630859375
v -4119.31298828125 364.20913696289062 -24322.837890625
v -4119.19482421875 363.92495727539062 -24325.025390625
v -4070.646728515625 321.42050170898438 -24320.681640625
v -4083.968505859375 353.40582275390625 -24320.681640625
v -4070.646728515625 321.42050170898438 -24320.681640625
v -4083.968505859375 353.40582275390625 -24320.681640625
v -4085.454833984375 352.78683471679688 -24311.982421875
v -4089.7412109375 351.00149536132812 -24304.453125
v -4096.2490234375 348.29098510742188 -24299.109375
v -4104.099609375 345.02130126953125 -24296.673828125
v -4112.23193359375 341.63409423828125 -24297.474609375
v -4119.54833984375 338.5867919921875 -24301.40234375
v -4125.060546875 336.29095458984375 -24307.9296875
v -4128.02392578125 335.05667114257812 -24316.171875
v -4128.03857421875 335.05059814453125 -24325.01953125
v -4125.10205078125 336.27359008789062 -24333.2734375
v -4119.61181640625 338.56045532226562 -24339.8203125
v -4112.30810546875 341.60232543945312 -24343.77734375
v -4104.17822265625 344.98843383789062 -24344.609375
v -4096.31982421875 348.26141357421875 -24342.205078125
v -4089.794677734375 350.979248046875 -24336.88671875
v -4085.4833984375 352.77490234375 -24329.373046875
v -4072.161376953125 320.78958129882812 -24329.373046875
v -4076.47265625 318.99392700195312 -24336.88671875
v -4082.998046875 316.27609252929688 -24342.205078125
v -4090.8564453125 313.00311279296875 -24344.609375
v -4098.986328125 309.61700439453125 -24343.77734375
v -4106.28955078125 306.57513427734375 -24339.8203125
v -4111.7802734375 304.28826904296875 -24333.2734375
v -4114.716796875 303.06527709960938 -24325.01953125
v -4114.7021484375 303.07135009765625 -24316.171875
v -4111.73876953125 304.30563354492188 -24307.9296875
v -4106.2265625 306.60147094726562 -24301.40234375
v -4098.91015625 309.64877319335938 -24297.474609375
v -4090.77734375 313.03598022460938 -24296.673828125
v -4082.92724609375 316.3056640625 -24299.109375
v -4076.419189453125 319.01617431640625 -24304.453125
v -4072.1328125 320.801513671875 -24311.982421875
v -4104.09423828125 327.66885375976562 -24344.302734375
v -4099.74462890625 329.48037719726562 -24344.70703125
v -4095.40625 331.28732299804688 -24344.181640625
v -4095.40625 331.28732299804688 -24297.09375
v -4099.74462890625 329.48037719726562 -24296.568359375
v -4104.09423828125 327.66885375976562 -24296.97265625
v -4108.91845703125 339.25259399414062 -24344.302734375
v -4108.91845703125 339.25259399414062 -24296.97265625
v -4100.23095703125 342.87106323242188 -24344.181640625
v -4104.5693359375 341.06411743164062 -24344.70703125
v -4104.5693359375 341.06411743164062 -24296.568359375
v -4100.23095703125 342.87106323242188 -24297.09375
v -4070.646728515625 321.42050170898438 -24320.681640625
v -4072.161376953125 320.78958129882812 -24329.373046875
v -4076.47265625 318.99392700195312 -24336.88671875
v -4082.998046875 316.27609252929688 -24342.205078125
v -4090.8564453125 313.00311279296875 -24344.609375
v -4098.986328125 309.61700439453125 -24343.77734375
v -4106.28955078125 306.57513427734375 -24339.8203125
v -4111.7802734375 304.28826904296875 -24333.2734375
v -4114.716796875 303.06527709960938 -24325.01953125
v -4114.7021484375 303.07135009765625 -24316.171875
v -4111.73876953125 304.30563354492188 -24307.9296875
v -4106.2265625 306.60147094726562 -24301.40234375
v -4098.91015625 309.64877319335938 -24297.474609375
v -4090.77734375 313.03598022460938 -24296.673828125
v -4082.92724609375 316.3056640625 -24299.109375
v -4076.419189453125 319.01617431640625 -24304.453125
v -4072.1328125 320.801513671875 -24311.982421875
v -4096.931640625 310.47268676757812 -24328.001953125
v -4088.244140625 314.09115600585938 -24328.001953125
v -4088.244140625 314.09115600585938 -24315.453125
v -4096.931640625 310.47268676757812 -24315.453125
v -4104.09423828125 327.66885375976562 -24315.453125
v -4095.40625 331.28732299804688 -24297.09375
v -4099.74462890625 329.48037719726562 -24296.568359375
v -4104.09423828125 327.66885375976562 -24296.97265625
v -4095.40625 331.28732299804688 -24315.453125
v -4108.91845703125 339.25259399414062 -24315.453125
v -4108.91845703125 339.25259399414062 -24296.97265625
v -4104.5693359375 341.06411743164062 -24296.568359375
v -4100.23095703125 342.87106323242188 -24297.09375
v -4100.23095703125 342.87106323242188 -24315.453125
v -4100.23095703125 342.87106323242188 -24328.001953125
v -4100.23095703125 342.87106323242188 -24315.453125
v -4110.1640625 366.72064208984375 -24328.001953125
v -4110.1708984375 366.7369384765625 -24327.947265625
v -4110.40966796875 367.309814453125 -24325.6640625
v -4110.56591796875 367.68475341796875 -24323.169921875
v -4110.6181640625 367.81082153320312 -24320.646484375
v -4110.56689453125 367.68743896484375 -24318.1328125
v -4110.41259765625 367.3170166015625 -24315.6484375
v -4110.39599609375 367.27716064453125 -24315.453125
v -4104.09423828125 327.66885375976562 -24328.001953125
v -4104.09423828125 327.66885375976562 -24344.302734375
v -4099.74462890625 329.48037719726562 -24344.70703125
v -4095.40625 331.28732299804688 -24344.181640625
v -4095.40625 331.28732299804688 -24328.001953125
v -4104.09423828125 327.66885375976562 -24296.97265625
v -4108.91845703125 339.25259399414062 -24344.302734375
v -4104.09423828125 327.66885375976562 -24315.453125
v -4108.91845703125 339.25259399414062 -24296.97265625
v -4108.91845703125 339.25259399414062 -24315.453125
v -4104.09423828125 327.66885375976562 -24344.302734375
v -4104.09423828125 327.66885375976562 -24328.001953125
v -4108.91845703125 339.25259399414062 -24328.001953125
v -4100.23095703125 342.87106323242188 -24328.001953125
v -4100.23095703125 342.87106323242188 -24344.181640625
v -4104.5693359375 341.06411743164062 -24344.70703125
v -4108.91845703125 339.25259399414062 -24344.302734375
v -4108.91845703125 339.25259399414062 -24328.001953125
v -4100.23095703125 342.87106323242188 -24297.09375
v -4095.40625 331.28732299804688 -24344.181640625
v -4095.40625 331.28732299804688 -24297.09375
v -4095.40625 331.28732299804688 -24315.453125
v -4100.23095703125 342.87106323242188 -24315.453125
v -4095.40625 331.28732299804688 -24328.001953125
v -4100.23095703125 342.87106323242188 -24344.181640625
v -4100.23095703125 342.87106323242188 -24328.001953125
v -4104.09423828125 327.66885375976562 -24328.001953125
v -4096.931640625 310.47268676757812 -24328.001953125
v -4095.40625 331.28732299804688 -24328.001953125
v -4088.244140625 314.09115600585938 -24328.001953125
v -4108.91845703125 339.25259399414062 -24328.001953125
v -4100.23095703125 342.87106323242188 -24328.001953125
v -4118.90087890625 363.2193603515625 -24328.001953125
v -4117.0068359375 364.3541259765625 -24328.001953125
v -4115.0126953125 365.30136108398438 -24328.001953125
v -4112.66650390625 366.133544921875 -24328.001953125
v -4110.24462890625 366.70639038085938 -24328.001953125
v -4110.1640625 366.72064208984375 -24328.001953125
v -4095.40625 331.28732299804688 -24328.001953125
v -4088.244140625 314.09115600585938 -24328.001953125
v -4095.40625 331.28732299804688 -24315.453125
v -4088.244140625 314.09115600585938 -24315.453125
v -4100.23095703125 342.87106323242188 -24315.453125
v -4108.91845703125 339.25259399414062 -24315.453125
v -4110.39599609375 367.27716064453125 -24315.453125
v -4112.84521484375 366.694580078125 -24315.453125
v -4115.21826171875 365.8533935546875 -24315.453125
v -4117.22412109375 364.90554809570312 -24315.453125
v -4119.13134765625 363.7728271484375 -24315.453125
v -4095.40625 331.28732299804688 -24315.453125
v -4088.244140625 314.09115600585938 -24315.453125
v -4104.09423828125 327.66885375976562 -24315.453125
v -4096.931640625 310.47268676757812 -24315.453125
v -4108.91845703125 339.25259399414062 -24315.453125
v -4108.91845703125 339.25259399414062 -24328.001953125
v -4119.13134765625 363.7728271484375 -24315.453125
v -4119.1923828125 363.91946411132812 -24316.21875
v -4119.3125 364.20706176757812 -24318.4140625
v -4119.3525390625 364.30368041992188 -24320.630859375
v -4119.31298828125 364.20913696289062 -24322.837890625
v -4119.19482421875 363.92495727539062 -24325.025390625
v -4118.90087890625 363.2193603515625 -24328.001953125
v -4104.09423828125 327.66885375976562 -24315.453125
v -4096.931640625 310.47268676757812 -24315.453125
v -4104.09423828125 327.66885375976562 -24328.001953125
v -4096.931640625 310.47268676757812 -24328.001953125
vt 0.49256888031959534 0
vt 0.45686686038970947 0
vt 0.42235073447227478 0
vt 0.38925537467002869 0
vt 0.35616001486778259 0
vt 0.3230646550655365 0
vt 0.45686686038970947 0.079035066068172455
vt 0.42235073447227478 0.079035066068172455
vt 0.38925537467002869 0.079035066068172455
vt 0.35616001486778259 0.079035066068172455
vt 0.3230646550655365 0.079035066068172455
vt 0.45686686038970947 0.15516215562820435
vt 0.42235073447227478 0.15516215562820435
vt 0.38925537467002869 0.15516215562820435
vt 0.35616001486778259 0.15516215562820435
vt 0.45686686038970947 0.23128923773765564
vt 0.42235073447227478 0.23128923773765564
vt 0.38925537467002869 0.23128923773765564
vt 0.35616001486778259 0.23128923773765564
vt 0.3230646550655365 0.23128923773765564
vt 0.45686686038970947 0.31032431125640869
vt 0.42235073447227478 0.31032431125640869
vt 0.38925537467002869 0.31032431125640869
vt 0.35616001486778259 0.31032431125640869
vt 0.45686686038970947 0.38645139336585999
vt 0.42235073447227478 0.38645139336585999
vt 0.38925537467002869 0.38645139336585999
vt 0.35616001486778259 0.38645139336585999
vt 0.3230646550655365 0.38645139336585999
vt 0.45686686038970947 0.46257847547531128
vt 0.42235073447227478 0.46257847547531128
vt 0.38925537467002869 0.46257847547531128
vt 0.35616001486778259 0.46257847547531128
vt 0.3230646550655365 0.46257847547531128
vt 0.45686686038970947 0.54161357879638672
vt 0.42235073447227478 0.54161357879638672
vt 0.38925537467002869 0.54161357879638672
vt 0.35616001486778259 0.54161357879638672
vt 0.3230646550655365 0.54161357879638672
vt 0.45686686038970947 0.61774063110351562
vt 0.42235073447227478 0.61774063110351562
vt 0.38925537467002869 0.61774063110351562
vt 0.35616001486778259 0.61774063110351562
vt 0.3230646550655365 0.61774063110351562
vt 0.45686686038970947 0.69386774301528931
vt 0.42235073447227478 0.69386774301528931
vt 0.38925537467002869 0.69386774301528931
vt 0.35616001486778259 0.69386774301528931
vt 0.3230646550655365 0.69386774301528931
vt 0.45686686038970947 0.77290278673171997
vt 0.42235073447227478 0.77290278673171997
vt 0.38925537467002869 0.77290278673171997
vt 0.35616001486778259 0.77290278673171997
vt 0.3230646550655365 0.77290278673171997
vt 0.45686686038970947 0.84902989864349365
vt 0.42235073447227478 0.84902989864349365
vt 0.38925537467002869 0.84902989864349365
vt 0.35616001486778259 0.84902989864349365
vt 0.3230646550655365 0.84902989864349365
vt 0.49256888031959534 0.92515695095062256
vt 0.45686686038970947 0.92515695095062256
vt 0.42235073447227478 0.92515695095062256
vt 0.38925537467002869 0.92515695095062256
vt 0.35616001486778259 0.92515695095062256
vt 0.3230646550655365 0.92515695095062256
vt 0.49256888031959534 0.054421000182628632
vt 0.49256888031959534 0.10884200036525726
vt 0.49256888031959534 0.1632629930973053
vt 0.49256888031959534 0.21768400073051453
vt 0.49256888031959534 0.27210500836372375
vt 0.49256888031959534 0.3265259861946106
vt 0.49256888031959534 0.38094699382781982
vt 0.49256888031959534 0.43536800146102905
vt 0.49256888031959534 0.48978900909423828
vt 0.49256888031959534 0.54421001672744751
vt 0.49256888031959534 0.59863102436065674
vt 0.49256888031959534 0.65305197238922119
vt 0.49256888031959534 0.70747298002243042
vt 0.49256888031959534 0.76189398765563965
vt 0.49256888031959534 0.81631499528884888
vt 0.49256888031959534 0.87073600292205811
vt 0.3169536292552948 0.31038305163383484
vt 0.31118854880332947 0.27411589026451111
vt 0.30907535552978516 0.23128923773765564
vt 0.31168702244758606 0.18332719802856445
vt 0.31878417730331421 0.14417093992233276
vt 0.319073885679245 0.14307902753353119
vt 0.31878417730331421 0.14257603883743286
vt 0.30734613537788391 0.11564471572637558
vt 0.29778009653091431 0.06866348534822464
vt 0.29388359189033508 0
vt 0.29388359189033508 0.92515695095062256
vt 0.29770201444625854 0.85660332441329956
vt 0.30718329548835754 0.80951237678527832
vt 0.30808025598526001 0.80669111013412476
vt 0.29877844452857971 0.76028740406036377
vt 0.29502764344215393 0.69386774301528931
vt 0.29793187975883484 0.63435977697372437
vt 0.3054579496383667 0.58994513750076294
vt 0.30181843042373657 0.57822310924530029
vt 0.29339459538459778 0.53116047382354736
vt 0.28996932506561279 0.46257847547531128
vt 0.29332557320594788 0.39410513639450073
vt 0.30167511105537415 0.34693384170532227
vt 0.99853515625 0
vt 0.78772091865539551 0
vt 0.99853515625 0.92515695095062256
vt 0.78772091865539551 0.92515695095062256
vt 0.78772091865539551 0.87073600292205811
vt 0.78772091865539551 0.81631499528884888
vt 0.78772091865539551 0.76189398765563965
vt 0.78772091865539551 0.70747298002243042
vt 0.78772091865539551 0.65305197238922119
vt 0.78772091865539551 0.59863102436065674
vt 0.78772091865539551 0.54421001672744751
vt 0.78772091865539551 0.48978900909423828
vt 0.78772091865539551 0.43536800146102905
vt 0.78772091865539551 0.38094699382781982
vt 0.78772091865539551 0.3265259861946106
vt 0.78772091865539551 0.27210500836372375
vt 0.78772091865539551 0.21768400073051453
vt 0.78772091865539551 0.1632629930973053
vt 0.78772091865539551 0.10884200036525726
vt 0.78772091865539551 0.054421000182628632
vt 0.99853515625 0.054421000182628632
vt 0.99853515625 0.10884200036525726
vt 0.99853515625 0.1632629930973053
vt 0.99853515625 0.21768400073051453
vt 0.99853515625 0.27210500836372375
vt 0.99853515625 0.3265259861946106
vt 0.99853515625 0.38094699382781982
vt 0.99853515625 0.43536800146102905
vt 0.99853515625 0.48978900909423828
vt 0.99853515625 0.54421001672744751
vt 0.99853515625 0.59863102436065674
vt 0.99853515625 0.65305197238922119
vt 0.99853515625 0.70747298002243042
vt 0.99853515625 0.76189398765563965
vt 0.99853515625 0.81631499528884888
vt 0.99853515625 0.87073600292205811
vt 0.88519579172134399 0.25811314582824707
vt 0.88519579172134399 0.22913959622383118
vt 0.88519579172134399 0.20016603171825409
vt 0.88519579172134399 0.72446554899215698
vt 0.88519579172134399 0.6954919695854187
vt 0.88519579172134399 0.66651839017868042
vt 0.80884766578674316 0.25811314582824707
vt 0.80884766578674316 0.66651839017868042
vt 0.80884766578674316 0.20016603171825409
vt 0.80884766578674316 0.22913959622383118
vt 0.80884766578674316 0.6954919695854187
vt 0.80884766578674316 0.72446554899215698
vt 0.63990724086761475 0.69983541965484619
vt 0.58691734075546265 0.68978184461593628
vt 0.54111939668655396 0.66116911172866821
vt 0.50869864225387573 0.61786139011383057
vt 0.49403372406959534 0.5657077431678772
vt 0.49910515546798706 0.51175183057785034
vt 0.52322804927825928 0.46328058838844299
vt 0.5631445050239563 0.4268403947353363
vt 0.61346352100372314 0.40735268592834473
vt 0.66738927364349365 0.40744936466217041
vt 0.71763879060745239 0.42711740732192993
vt 0.75742554664611816 0.46370053291320801
vt 0.78137624263763428 0.51225793361663818
vt 0.78625607490539551 0.56623172760009766
vt 0.77140605449676514 0.61833244562149048
vt 0.73883175849914551 0.66152358055114746
vt 0.69293248653411865 0.689971923828125
vt 0.59528356790542603 0.52538663148880005
vt 0.59528356790542603 0.58304554224014282
vt 0.67177873849868774 0.58304554224014282
vt 0.67177873849868774 0.52538663148880005
vt 0.61989963054656982 0.16002571582794189
vt 0.73237723112106323 0.10236676782369614
vt 0.73559236526489258 0.13115976750850677
vt 0.73311620950698853 0.16002571582794189
vt 0.61989963054656982 0.10236676782369614
vt 0.61989963054656982 0
vt 0.73311620950698853 0
vt 0.73559236526489258 0.028865942731499672
vt 0.73237723112106323 0.05765894427895546
vt 0.61989963054656982 0.05765894427895546
vt 0.12427257001399994 0.61073148250579834
vt 0.20115116238594055 0.61073148250579834
vt 0.12427257001399994 0.45244741439819336
vt 0.12460228800773621 0.4523392915725708
vt 0.13859051465988159 0.44853717088699341
vt 0.15387006103992462 0.44604876637458801
vt 0.16932830214500427 0.44521218538284302
vt 0.18473018705844879 0.44603094458580017
vt 0.19995659589767456 0.44848951697349548
vt 0.20115116238594055 0.44875389337539673
vt 0.61462563276290894 0
vt 0.61462563276290894 0.099874190986156464
vt 0.58575969934463501 0.10235033929347992
vt 0.55696666240692139 0.099135242402553558
vt 0.55696666240692139 0
vt 0.28850448131561279 0.22260609269142151
vt 0 0.29948469996452332
vt 0.17585988342761993 0.22260609269142151
vt 0.28850448131561279 0.29948469996452332
vt 0.17585988342761993 0.29948469996452332
vt 0 0.22260609269142151
vt 0.099369660019874573 0.22260609269142151
vt 0.099369660019874573 0.29948469996452332
vt 0.5516926646232605 0
vt 0.5516926646232605 0.099135242402553558
vt 0.52289962768554688 0.10235033929347992
vt 0.49403372406959534 0.099874190986156464
vt 0.49403372406959534 0
vt 0.28849142789840698 0
vt 0 0.076878592371940613
vt 0.28849142789840698 0.076878592371940613
vt 0.17601384222507477 0.076878592371940613
vt 0.17601384222507477 0
vt 0.099135242402553558 0.076878592371940613
vt 0 0
vt 0.099135242402553558 0
vt 0.55696666240692139 0.19259612262248993
vt 0.55696666240692139 0.30672305822372437
vt 0.61462563276290894 0.19259612262248993
vt 0.61462563276290894 0.30672305822372437
vt 0 0.60688984394073486
vt 0.05765894427895546 0.60688984394073486
vt 0 0.4478280246257782
vt 0.013384728692471981 0.44587156176567078
vt 0.026895610615611076 0.44521218538284302
vt 0.04212319478392601 0.4460316002368927
vt 0.057172097265720367 0.44849765300750732
vt 0.05765894427895546 0.44860577583312988
vt 0.61989963054656982 0.20473353564739227
vt 0.61989963054656982 0.31886047124862671
vt 0.69677823781967163 0.20473353564739227
vt 0.69677823781967163 0.31886047124862671
vt 0.062136285006999969 0.61049634218215942
vt 0.11979522556066513 0.61049634218215942
vt 0.062136285006999969 0.4485187828540802
vt 0.07736070454120636 0.44604426622390747
vt 0.092762455344200134 0.44521218538284302
vt 0.10633905231952667 0.44584822654724121
vt 0.11979522556066513 0.44776132702827454
vt 0.49403372406959534 0.19259612262248993
vt 0.49403372406959534 0.30672305822372437
vt 0.5516926646232605 0.19259612262248993
vt 0.5516926646232605 0.30672305822372437
vt 0.20712095499038696 0.61147040128707886
vt 0.28399953246116638 0.61147040128707886
vt 0.20712095499038696 0.44873541593551636
vt 0.21181654930114746 0.44776219129562378
vt 0.22526893019676208 0.44585335254669189
vt 0.23884093761444092 0.44521218538284302
vt 0.25236374139785767 0.44583970308303833
vt 0.26576906442642212 0.44772574305534363
vt 0.28399953246116638 0.45240861177444458
vt 0.70381027460098267 0.20473353564739227
vt 0.70381027460098267 0.31886047124862671
vt 0.78068888187408447 0.20473353564739227
vt 0.78068888187408447 0.31886047124862671
vn 0.92312967777252197 0.38448458909988403 -0.0017841184744611382
vn 0.81279146671295166 0.58255213499069214 -0.0017382618971168995
vn 0.6550363302230835 0.75559568405151367 -0.0015971451066434383
vn 0.46211150288581848 0.88682079315185547 -0.0013694183435291052
vn 0.24163617193698883 0.97036635875701904 -0.0010636099614202976
vn 0.011743830516934395 0.99993079900741577 -0.0007052625878714025
vn 0.68548554182052612 0.52952903509140015 -0.49970844388008118
vn 0.53806549310684204 0.70687717199325562 -0.45914074778556824
vn 0.36181876063346863 0.84504872560501099 -0.39367479085922241
vn 0.16374005377292633 0.93792253732681274 -0.30576223134994507
vn -0.039907827973365784 0.97841781377792358 -0.20274601876735687
vn 0.35655778646469116 0.39253026247024536 -0.84781277179718018
vn 0.23584096133708954 0.58100032806396484 -0.77898502349853516
vn 0.10268650203943253 0.73711985349655151 -0.66791450977325439
vn -0.037524688988924026 0.85409551858901978 -0.5187608003616333
vn -0.08821597695350647 0.2072814553976059 -0.97429579496383667
vn -0.17282485961914062 0.41079050302505493 -0.89519983530044556
vn -0.24771027266979218 0.59117919206619263 -0.7675589919090271
vn -0.30967342853546143 0.74074524641036987 -0.5961533784866333
vn -0.35382068157196045 0.84767276048660278 -0.39529970288276672
vn -0.54790776968002319 0.015819286927580833 -0.83638918399810791
vn -0.59519761800765991 0.2348717600107193 -0.76848882436752319
vn -0.60985958576202393 0.44034355878829956 -0.65891486406326294
vn -0.59095025062561035 0.62359315156936646 -0.51177084445953369
vn -0.86925375461578369 -0.11802168190479279 -0.48007169365882874
vn -0.89045584201812744 0.11189636588096619 -0.44109815359115601
vn -0.86301881074905396 0.33490243554115295 -0.37820479273796082
vn -0.78757584095001221 0.54169833660125732 -0.29374688863754272
vn -0.67071002721786499 0.71568793058395386 -0.19477881491184235
vn -0.98601412773132324 -0.16665253043174744 0.0017382618971168995
vn -0.9977373480796814 0.067213498055934906 0.0015971451066434383
vn -0.95500373840332031 0.29659062623977661 0.0013694183435291052
vn -0.85901933908462524 0.51194202899932861 0.0010636099614202976
vn -0.71808308362960815 0.6959570050239563 0.0007052625878714025
vn -0.85870820283889771 -0.11362946778535843 0.49970844388008118
vn -0.88076645135879517 0.11593201011419296 0.45914074778556824
vn -0.85471099615097046 0.33836266398429871 0.39367479085922241
vn -0.78112322092056274 0.54438585042953491 0.30576223134994507
vn -0.66643142700195312 0.71746999025344849 0.20274601876735687
vn -0.52978044748306274 0.023369330912828445 0.84781277179718018
vn -0.57854193449020386 0.24180887639522552 0.77898502349853516
vn -0.59557873010635376 0.44629156589508057 0.66791450977325439
vn -0.57985848188400269 0.62821286916732788 0.5187608003616333
vn -0.53297603130340576 0.77305436134338379 0.34398192167282104
vn -0.085006684064865112 0.20861813426017761 0.97429579496383667
vn -0.16987611353397369 0.41201865673065186 0.89519983530044556
vn -0.24518196284770966 0.59223222732543945 0.7675589919090271
vn -0.30770972371101379 0.74156314134597778 0.5961533784866333
vn -0.35251858830451965 0.84821504354476929 0.39529970288276672
vn 0.37468510866165161 0.40008029341697693 0.83638918399810791
vn 0.2524966299533844 0.58793741464614868 0.76848882436752319
vn 0.11696735769510269 0.74306786060333252 0.65891486406326294
vn -0.026432931423187256 0.8587152361869812 0.51177084445953369
vn -0.16600847244262695 0.92589676380157471 0.33934700489044189
vn 0.69603109359741211 0.53392124176025391 0.48007169365882874
vn 0.54775488376617432 0.71091282367706299 0.44109815359115601
vn 0.37012660503387451 0.84850895404815674 0.37820479273796082
vn 0.1701926589012146 0.94061005115509033 0.29374688863754272
vn -0.035629212856292725 0.98019987344741821 0.19477881491184235
vn 0.92312967777252197 0.38448458909988403 -0.0017841184744611382
vn 0.81279146671295166 0.58255213499069214 -0.0017382618971168995
vn 0.6550363302230835 0.75559568405151367 -0.0015971451066434383
vn 0.46211150288581848 0.88682079315185547 -0.0013694183435291052
vn 0.24163617193698883 0.97036635875701904 -0.0010636099614202976
vn 0.011743830516934395 0.99993079900741577 -0.0007052625878714025
vn 0.86019784212112427 0.35827341675758362 -0.36290472745895386
vn 0.68109148740768433 0.28367540240287781 -0.67501306533813477
vn 0.40999999642372131 0.1707654744386673 -0.89595711231231689
vn 0.083535708487033844 0.034792721271514893 -0.99589723348617554
vn -0.25421053171157837 -0.10587898641824722 -0.96133583784103394
vn -0.5576242208480835 -0.23225115239620209 -0.79694080352783203
vn -0.78572767972946167 -0.32725650072097778 -0.5249144434928894
vn -0.90771430730819702 -0.37806406617164612 -0.18199548125267029
vn -0.90710902214050293 -0.3778119683265686 0.18550296127796173
vn -0.78399366140365601 -0.32653427124023438 0.52794820070266724
vn -0.55499559640884399 -0.23115631937980652 0.79909110069274902
vn -0.25104233622550964 -0.10455942153930664 0.96231234073638916
vn 0.086815610527992249 0.036158803850412369 0.99556797742843628
vn 0.4129486083984375 0.17199358344078064 0.89436662197113037
vn 0.68331062793731689 0.2845996618270874 0.67237609624862671
vn 0.86138772964477539 0.3587689995765686 0.35957744717597961
vn -0.52809703350067139 0.79217731952667236 -0.30588984489440918
vn -0.44941383600234985 0.8393206000328064 -0.30588912963867188
vn -0.36655959486961365 0.87867319583892822 -0.30588793754577637
vn -0.26910382509231567 0.91324430704116821 -0.30588889122009277
vn -0.16847309470176697 0.93704229593276978 -0.30588969588279724
vn -0.16514357924461365 0.93763476610183716 -0.30588984489440918
vn -0.16542550921440125 0.93831157684326172 -0.3036540150642395
vn -0.17533993721008301 0.96211147308349609 -0.20879988372325897
vn -0.18182824552059174 0.9776877760887146 -0.1051909327507019
vn -0.1840069591999054 0.98292487859725952 -0.00037119985790923238
vn -0.1840069591999054 0.98292487859725952 -0.00037119985790923238
vn -0.18187256157398224 0.97779977321624756 0.10406742990016937
vn -0.17546278238296509 0.96240991353988647 0.20731619000434875
vn -0.17477314174175262 0.96075493097305298 0.21541665494441986
vn -0.27652454376220703 0.93655216693878174 0.21541635692119598
vn -0.37510356307029724 0.90160590410232544 0.21541614830493927
vn -0.45843020081520081 0.86222827434539795 0.21541634202003479
vn -0.53767365217208862 0.81517034769058228 0.21541665494441986
vn -0.54021096229553223 0.82126235961914062 0.18357622623443604
vn -0.54518651962280273 0.83321183919906616 0.092356212437152863
vn -0.54685711860656738 0.83722591400146484 0.00032635137904435396
vn -0.54522132873535156 0.83329784870147705 -0.091369450092315674
vn -0.54030579328536987 0.82149076461791992 -0.18227055668830872
vn 0.92312967777252197 0.38448458909988403 -0.0017841184744611382
vn 0.92312967777252197 0.38448458909988403 -0.0017841184744611382
vn 0.92312967777252197 0.38448458909988403 -0.0017841184744611382
vn 0.92312967777252197 0.38448458909988403 -0.0017841184744611382
vn 0.86138772964477539 0.3587689995765686 0.35957744717597961
vn 0.68331062793731689 0.2845996618270874 0.67237609624862671
vn 0.4129486083984375 0.17199358344078064 0.89436662197113037
vn 0.086815610527992249 0.036158803850412369 0.99556797742843628
vn -0.25104233622550964 -0.10455942153930664 0.96231234073638916
vn -0.55499559640884399 -0.23115631937980652 0.79909110069274902
vn -0.78399366140365601 -0.32653427124023438 0.52794820070266724
vn -0.90710902214050293 -0.3778119683265686 0.18550296127796173
vn -0.90771430730819702 -0.37806406617164612 -0.18199548125267029
vn -0.78572767972946167 -0.32725650072097778 -0.5249144434928894
vn -0.5576242208480835 -0.23225115239620209 -0.79694080352783203
vn -0.25421053171157837 -0.10587898641824722 -0.96133583784103394
vn 0.083535708487033844 0.034792721271514893 -0.99589723348617554
vn 0.40999999642372131 0.1707654744386673 -0.89595711231231689
vn 0.68109148740768433 0.28367540240287781 -0.67501306533813477
vn 0.86019784212112427 0.35827341675758362 -0.36290472745895386
vn 0.86019784212112427 0.35827341675758362 -0.36290472745895386
vn 0.68109148740768433 0.28367540240287781 -0.67501306533813477
vn 0.40999999642372131 0.1707654744386673 -0.89595711231231689
vn 0.083535708487033844 0.034792721271514893 -0.99589723348617554
vn -0.25421053171157837 -0.10587898641824722 -0.96133583784103394
vn -0.5576242208480835 -0.23225115239620209 -0.79694080352783203
vn -0.78572767972946167 -0.32725650072097778 -0.5249144434928894
vn -0.90771430730819702 -0.37806406617164612 -0.18199548125267029
vn -0.90710902214050293 -0.3778119683265686 0.18550296127796173
vn -0.78399366140365601 -0.32653427124023438 0.52794820070266724
vn -0.55499559640884399 -0.23115631937980652 0.79909110069274902
vn -0.25104233622550964 -0.10455942153930664 0.96231234073638916
vn 0.086815610527992249 0.036158803850412369 0.99556797742843628
vn 0.4129486083984375 0.17199358344078064 0.89436662197113037
vn 0.68331062793731689 0.2845996618270874 0.67237609624862671
vn 0.86138772964477539 0.3587689995765686 0.35957744717597961
vn -0.16886132955551147 -0.070330940186977386 -0.98312735557556152
vn 0.011829812079668045 0.0049271304160356522 -0.99991786479949951
vn 0.19206437468528748 0.079995036125183105 -0.97811657190322876
vn 0.19206437468528748 0.079995036125183105 0.97811657190322876
vn 0.011829812079668045 0.0049271304160356522 0.99991786479949951
vn -0.16886132955551147 -0.070330940186977386 0.98312735557556152
vn -0.16886132955551147 -0.070330940186977386 -0.98312735557556152
vn -0.16886132955551147 -0.070330940186977386 0.98312735557556152
vn 0.19206437468528748 0.079995036125183105 -0.97811657190322876
vn 0.011829812079668045 0.0049271304160356522 -0.99991786479949951
vn 0.011829812079668045 0.0049271304160356522 0.99991786479949951
vn 0.19206437468528748 0.079995036125183105 0.97811657190322876
vn 0.38448521494865417 -0.92313116788864136 0
vn 0.38448521494865417 -0.92313116788864136 0
vn 0.38448521494865417 -0.92313116788864136 0
vn 0.38448521494865417 -0.92313116788864136 0
vn 0.38448521494865417 -0.92313116788864136 0
vn 0.38448521494865417 -0.92313116788864136 0
vn 0.38448521494865417 -0.92313116788864136 0
vn 0.38448521494865417 -0.92313116788864136 0
vn 0.38448521494865417 -0.92313116788864136 0
vn 0.38448521494865417 -0.92313116788864136 0
vn 0.38448521494865417 -0.92313116788864136 0
vn 0.38448521494865417 -0.92313116788864136 0
vn 0.38448521494865417 -0.92313116788864136 0
vn 0.38448521494865417 -0.92313116788864136 0
vn 0.38448521494865417 -0.92313116788864136 0
vn 0.38448521494865417 -0.92313116788864136 0
vn 0.38448521494865417 -0.92313116788864136 0
vn 0.38448521494865417 -0.92313116788864136 0
vn 0.38448521494865417 -0.92313116788864136 0
vn 0.38448521494865417 -0.92313116788864136 0
vn 0.38448521494865417 -0.92313116788864136 0
vn -0.38448521494865417 0.92313116788864136 0
vn -0.38448521494865417 0.92313116788864136 0
vn -0.38448521494865417 0.92313116788864136 0
vn -0.38448521494865417 0.92313116788864136 0
vn -0.38448521494865417 0.92313116788864136 0
vn 0.38448521494865417 -0.92313116788864136 0
vn 0.38448521494865417 -0.92313116788864136 0
vn 0.38448521494865417 -0.92313116788864136 0
vn 0.38448521494865417 -0.92313116788864136 0
vn 0.38448521494865417 -0.92313116788864136 0
vn -0.92313116788864136 -0.38448521494865417 0
vn -0.92313116788864136 -0.38448521494865417 0
vn -0.92313116788864136 -0.38448521494865417 0
vn -0.92313116788864136 -0.38448521494865417 0
vn -0.92313116788864136 -0.38448521494865417 0
vn -0.92313116788864136 -0.38448521494865417 0
vn -0.92313116788864136 -0.38448521494865417 0
vn -0.92313116788864136 -0.38448521494865417 0
vn -0.92313116788864136 -0.38448521494865417 0
vn -0.92313116788864136 -0.38448521494865417 0
vn -0.38448521494865417 0.92313116788864136 0
vn -0.38448521494865417 0.92313116788864136 0
vn -0.38448521494865417 0.92313116788864136 0
vn -0.38448521494865417 0.92313116788864136 0
vn -0.38448521494865417 0.92313116788864136 0
vn 0.92313116788864136 0.38448521494865417 0
vn 0.92313116788864136 0.38448521494865417 0
vn 0.92313116788864136 0.38448521494865417 0
vn 0.92313116788864136 0.38448521494865417 0
vn 0.92313116788864136 0.38448521494865417 0
vn 0.92313116788864136 0.38448521494865417 0
vn 0.92313116788864136 0.38448521494865417 0
vn 0.92313116788864136 0.38448521494865417 0
vn 0.38448521494865417 -0.92313116788864136 0
vn 0.38448521494865417 -0.92313116788864136 0
vn 0.38448521494865417 -0.92313116788864136 0
vn 0.38448521494865417 -0.92313116788864136 0
vn 0.38448521494865417 -0.92313116788864136 0
vn -0.92313116788864136 -0.38448521494865417 0
vn -0.92313116788864136 -0.38448521494865417 0
vn -0.92313116788864136 -0.38448521494865417 0
vn -0.92313116788864136 -0.38448521494865417 0
vn -0.92313116788864136 -0.38448521494865417 0
vn -0.92313116788864136 -0.38448521494865417 0
vn -0.92313116788864136 -0.38448521494865417 0
vn -0.92313116788864136 -0.38448521494865417 0
vn 0 0 1
vn 0 0 1
vn 0 0 1
vn 0 0 1
vn 0 0 1
vn 0 0 1
vn 0 0 1
vn 0 0 1
vn 0 0 1
vn 0 0 1
vn 0 0 1
vn 0 0 1
vn -0.92313116788864136 -0.38448521494865417 0
vn -0.92313116788864136 -0.38448521494865417 0
vn -0.92313116788864136 -0.38448521494865417 0
vn -0.92313116788864136 -0.38448521494865417 0
vn 0 0 -1
vn 0 0 -1
vn 0 0 -1
vn 0 0 -1
vn 0 0 -1
vn 0 0 -1
vn 0 0 -1
vn 0 0 -1
vn 0 0 -1
vn 0 0 -1
vn 0 0 -1
vn 0.92313116788864136 0.38448521494865417 0
vn 0.92313116788864136 0.38448521494865417 0
vn 0.92313116788864136 0.38448521494865417 0
vn 0.92313116788864136 0.38448521494865417 0
vn 0.92313116788864136 0.38448521494865417 0
vn 0.92313116788864136 0.38448521494865417 0
vn 0.92313116788864136 0.38448521494865417 0
vn 0.92313116788864136 0.38448521494865417 0
vn 0.92313116788864136 0.38448521494865417 0
vn 0.92313116788864136 0.38448521494865417 0
vn 0.92313116788864136 0.38448521494865417 0
vn 0.92313116788864136 0.38448521494865417 0
vn 0.92313116788864136 0.38448521494865417 0
f 8/8/8 3/3/3 2/2/2 7/7/7
f 9/9/9 4/4/4 3/3/3 8/8/8
f 10/10/10 5/5/5 4/4/4 9/9/9
f 11/11/11 6/6/6 5/5/5 10/10/10
f 13/13/13 8/8/8 7/7/7 12/12/12
f 14/14/14 9/9/9 8/8/8 13/13/13
f 15/15/15 10/10/10 9/9/9 14/14/14
f 11/11/11 10/10/10 15/15/15
f 17/17/17 13/13/13 12/12/12 16/16/16
f 18/18/18 14/14/14 13/13/13 17/17/17
f 19/19/19 15/15/15 14/14/14 18/18/18
f 15/15/15 19/19/19 20/20/20
f 22/22/22 17/17/17 16/16/16 21/21/21
f 23/23/23 18/18/18 17/17/17 22/22/22
f 24/24/24 19/19/19 18/18/18 23/23/23
f 20/20/20 19/19/19 24/24/24
f 26/26/26 22/22/22 21/21/21 25/25/25
f 27/27/27 23/23/23 22/22/22 26/26/26
f 28/28/28 24/24/24 23/23/23 27/27/27
f 24/24/24 28/28/28 29/29/29
f 31/31/31 26/26/26 25/25/25 30/30/30
f 32/32/32 27/27/27 26/26/26 31/31/31
f 33/33/33 28/28/28 27/27/27 32/32/32
f 34/34/34 29/29/29 28/28/28 33/33/33
f 36/36/36 31/31/31 30/30/30 35/35/35
f 37/37/37 32/32/32 31/31/31 36/36/36
f 38/38/38 33/33/33 32/32/32 37/37/37
f 39/39/39 34/34/34 33/33/33 38/38/38
f 41/41/41 36/36/36 35/35/35 40/40/40
f 42/42/42 37/37/37 36/36/36 41/41/41
f 43/43/43 38/38/38 37/37/37 42/42/42
f 44/44/44 39/39/39 38/38/38 43/43/43
f 46/46/46 41/41/41 40/40/40 45/45/45
f 47/47/47 42/42/42 41/41/41 46/46/46
f 48/48/48 43/43/43 42/42/42 47/47/47
f 49/49/49 44/44/44 43/43/43 48/48/48
f 51/51/51 46/46/46 45/45/45 50/50/50
f 52/52/52 47/47/47 46/46/46 51/51/51
f 53/53/53 48/48/48 47/47/47 52/52/52
f 54/54/54 49/49/49 48/48/48 53/53/53
f 56/56/56 51/51/51 50/50/50 55/55/55
f 57/57/57 52/52/52 51/51/51 56/56/56
f 58/58/58 53/53/53 52/52/52 57/57/57
f 59/59/59 54/54/54 53/53/53 58/58/58
f 62/62/62 56/56/56 55/55/55 61/61/61
f 63/63/63 57/57/57 56/56/56 62/62/62
f 64/64/64 58/58/58 57/57/57 63/63/63
f 65/65/65 59/59/59 58/58/58 64/64/64
f 1/1/1 66/66/66 7/7/7 2/2/2
f 12/12/12 67/67/67 68/68/68
f 7/7/7 66/66/66 67/67/67
f 12/12/12 7/7/7 67/67/67
f 68/68/68 69/69/69 16/16/16 12/12/12
f 16/16/16 69/69/69 70/70/70
f 71/71/71 72/72/72 25/25/25 21/21/21
f 21/21/21 70/70/70 71/71/71
f 21/21/21 16/16/16 70/70/70
f 72/72/72 73/73/73 25/25/25
f 11/11/11 90/90/90 6/6/6
f 11/11/11 87/87/87 88/88/88
f 11/11/11 15/15/15 87/87/87
f 88/88/88 89/89/89 11/11/11
f 90/90/90 91/91/91 6/6/6
f 11/11/11 89/89/89 90/90/90
f 87/87/87 15/15/15 86/86/86
f 82/82/82 20/20/20 24/24/24
f 15/15/15 85/85/85 86/86/86
f 104/104/104 82/82/82 29/29/29
f 24/24/24 29/29/29 82/82/82
f 83/83/83 20/20/20 82/82/82
f 84/84/84 85/85/85 20/20/20
f 29/29/29 103/103/103 104/104/104
f 84/84/84 20/20/20 83/83/83
f 34/34/34 103/103/103 29/29/29
f 15/15/15 20/20/20 85/85/85
f 73/73/73 30/30/30 25/25/25
f 74/74/74 75/75/75 35/35/35 30/30/30
f 40/40/40 76/76/76 77/77/77
f 75/75/75 76/76/76 40/40/40 35/35/35
f 45/45/45 40/40/40 77/77/77 78/78/78
f 73/73/73 74/74/74 30/30/30
f 78/78/78 79/79/79 50/50/50 45/45/45
f 55/55/55 80/80/80 81/81/81
f 50/50/50 79/79/79 80/80/80
f 61/61/61 55/55/55 81/81/81 60/60/60
f 80/80/80 55/55/55 50/50/50
f 100/100/100 39/39/39 99/99/99
f 44/44/44 99/99/99 39/39/39
f 98/98/98 99/99/99 44/44/44
f 49/49/49 98/98/98 44/44/44
f 102/102/102 34/34/34 101/101/101
f 101/101/101 39/39/39 100/100/100
f 98/98/98 49/49/49 97/97/97
f 39/39/39 101/101/101 34/34/34
f 96/96/96 54/54/54 95/95/95
f 59/59/59 95/95/95 54/54/54
f 94/94/94 95/95/95 59/59/59
f 65/65/65 93/93/93 59/59/59
f 97/97/97 49/49/49 96/96/96
f 94/94/94 59/59/59 93/93/93
f 92/92/92 93/93/93 65/65/65
f 54/54/54 96/96/96 49/49/49
f 103/103/103 34/34/34 102/102/102
f 125/125/125 124/124/124 106/106/106 105/105/105
f 125/125/125 126/126/126 123/123/123 124/124/124
f 143/143/143 127/127/127 128/128/128
f 142/142/142 143/143/143 128/128/128
f 126/126/126 127/127/127 122/122/122 123/123/123
f 122/122/122 127/127/127 143/143/143
f 141/141/141 129/129/129 130/130/130
f 119/119/119 141/141/141 130/130/130
f 128/128/128 141/141/141 142/142/142
f 130/130/130 131/131/131 118/118/118 119/119/119
f 131/131/131 132/132/132 117/117/117 118/118/118
f 129/129/129 141/141/141 128/128/128
f 143/143/143 149/149/149 122/122/122
f 149/149/149 121/121/121 122/122/122
f 121/121/121 149/149/149 150/150/150
f 121/121/121 147/147/147 120/120/120
f 120/120/120 147/147/147 141/141/141
f 150/150/150 147/147/147 121/121/121
f 119/119/119 120/120/120 141/141/141
f 132/132/132 133/133/133 116/116/116 117/117/117
f 133/133/133 134/134/134 115/115/115 116/116/116
f 134/134/134 135/135/135 114/114/114 115/115/115
f 145/145/145 146/146/146 137/137/137
f 136/136/136 137/137/137 146/146/146
f 135/135/135 136/136/136 146/146/146
f 135/135/135 146/146/146 114/114/114
f 144/144/144 137/137/137 138/138/138
f 111/111/111 144/144/144 138/138/138
f 139/139/139 140/140/140 109/109/109 110/110/110
f 138/138/138 139/139/139 110/110/110 111/111/111
f 107/107/107 108/108/108 109/109/109 140/140/140
f 145/145/145 137/137/137 144/144/144
f 146/146/146 148/148/148 113/113/113
f 148/148/148 112/112/112 113/113/113
f 113/113/113 114/114/114 146/146/146
f 112/112/112 148/148/148 151/151/151
f 111/111/111 112/112/112 152/152/152
f 111/111/111 152/152/152 144/144/144
f 151/151/151 152/152/152 112/112/112
f 170/170/170 159/159/159 158/158/158
f 170/170/170 161/161/161 160/160/160
f 159/159/159 170/170/170 160/160/160
f 157/157/157 170/170/170 158/158/158
f 171/171/171 157/157/157 156/156/156
f 154/154/154 171/171/171 155/155/155
f 156/156/156 155/155/155 171/171/171
f 171/171/171 154/154/154 153/153/153
f 171/171/171 170/170/170 157/157/157
f 161/161/161 170/170/170 173/173/173
f 163/163/163 162/162/162 173/173/173
f 173/173/173 165/165/165 164/164/164
f 163/163/163 173/173/173 164/164/164
f 166/166/166 165/165/165 173/173/173
f 169/169/169 172/172/172 153/153/153
f 172/172/172 171/171/171 153/153/153
f 168/168/168 172/172/172 169/169/169
f 168/168/168 167/167/167 172/172/172
f 166/166/166 172/172/172 167/167/167
f 166/166/166 173/173/173 172/172/172
f 162/162/162 161/161/161 173/173/173
f 176/176/176 175/175/175 178/178/178
f 174/174/174 177/177/177 176/176/176
f 178/178/178 174/174/174 176/176/176
f 181/181/181 180/180/180 179/179/179
f 183/183/183 182/182/182 181/181/181
f 179/179/179 183/183/183 181/181/181
f 184/184/184 189/189/189 188/188/188
f 184/184/184 187/187/187 186/186/186
f 188/188/188 187/187/187 184/184/184
f 184/184/184 185/185/185 189/189/189
f 185/185/185 191/191/191 190/190/190
f 185/185/185 193/193/193 192/192/192
f 191/191/191 185/185/185 192/192/192
f 189/189/189 185/185/185 190/190/190
f 196/196/196 198/198/198 197/197/197
f 195/195/195 194/194/194 196/196/196
f 198/198/198 196/196/196 194/194/194
f 201/201/201 203/203/203 202/202/202 199/199/199
f 204/204/204 200/200/200 206/206/206 205/205/205
f 205/205/205 206/206/206 203/203/203 201/201/201
f 209/209/209 211/211/211 210/210/210
f 208/208/208 207/207/207 209/209/209
f 211/211/211 209/209/209 207/207/207
f 216/216/216 215/215/215 214/214/214 212/212/212
f 218/218/218 213/213/213 217/217/217 219/219/219
f 219/219/219 217/217/217 215/215/215 216/216/216
f 221/221/221 223/223/223 222/222/222 220/220/220
f 224/224/224 228/228/228 227/227/227
f 227/227/227 226/226/226 224/224/224
f 224/224/224 225/225/225 228/228/228
f 225/225/225 230/230/230 229/229/229
f 230/230/230 225/225/225 231/231/231
f 228/228/228 225/225/225 229/229/229
f 233/233/233 235/235/235 234/234/234 232/232/232
f 236/236/236 239/239/239 238/238/238
f 240/240/240 239/239/239 236/236/236
f 237/237/237 241/241/241 240/240/240
f 241/241/241 237/237/237 242/242/242
f 236/236/236 237/237/237 240/240/240
f 244/244/244 246/246/246 245/245/245 243/243/243
f 247/247/247 251/251/251 250/250/250
f 250/250/250 249/249/249 247/247/247
f 247/247/247 252/252/252 251/251/251
f 247/247/247 248/248/248 253/253/253
f 248/248/248 255/255/255 254/254/254
f 253/253/253 248/248/248 254/254/254
f 252/252/252 247/247/247 253/253/253
f 257/257/257 259/259/259 258/258/258 256/256/256
