# Rhino

o object_1
v -3978.770751953125 298.10189819335938 -24301.99609375
v -3972.653564453125 299.75775146484375 -24296.349609375
v -3967.467529296875 304.4732666015625 -24291.564453125
v -3962.78564453125 319.85507202148438 -24287.2421875
v -3967.467529296875 335.23690795898438 -24291.564453125
v -3972.653564453125 339.952392578125 -24296.349609375
v -3978.770751953125 298.10189819335938 -24301.99609375
v -3970.72265625 299.75775146484375 -24299.869140625
v -3963.899658203125 304.4732666015625 -24298.06640625
v -3957.739990234375 319.85507202148438 -24296.4375
v -3963.899658203125 335.23690795898438 -24298.06640625
v -3970.72265625 339.952392578125 -24299.869140625
v -3978.770751953125 341.60824584960938 -24301.99609375
v -3978.770751953125 298.10189819335938 -24301.99609375
v -3970.663330078125 299.75775146484375 -24303.884765625
v -3963.7900390625 304.4732666015625 -24305.486328125
v -3957.5849609375 319.85507202148438 -24306.931640625
v -3963.7900390625 335.23690795898438 -24305.486328125
v -3970.663330078125 339.952392578125 -24303.884765625
v -3978.770751953125 341.60824584960938 -24301.99609375
v -3978.770751953125 298.10189819335938 -24301.99609375
v -3972.436767578125 299.75775146484375 -24307.3984375
v -3967.067138671875 304.4732666015625 -24311.9765625
v -3962.21923828125 319.85507202148438 -24316.111328125
v -3967.067138671875 335.23690795898438 -24311.9765625
v -3972.436767578125 339.952392578125 -24307.3984375
v -3978.770751953125 341.60824584960938 -24301.99609375
v -3978.770751953125 298.10189819335938 -24301.99609375
v -3975.754638671875 299.75775146484375 -24309.755859375
v -3973.19775390625 304.4732666015625 -24316.333984375
v -3970.889404296875 319.85507202148438 -24322.271484375
v -3973.19775390625 335.23690795898438 -24316.333984375
v -3975.754638671875 339.952392578125 -24309.755859375
v -3978.770751953125 341.60824584960938 -24301.99609375
v -3978.770751953125 298.10189819335938 -24301.99609375
v -3979.68115234375 299.75775146484375 -24310.271484375
v -3980.452880859375 304.4732666015625 -24317.28515625
v -3981.149658203125 319.85507202148438 -24323.619140625
v -3980.452880859375 335.23690795898438 -24317.28515625
v -3979.68115234375 339.952392578125 -24310.271484375
v -3978.770751953125 341.60824584960938 -24301.99609375
v -3978.770751953125 298.10189819335938 -24301.99609375
v -3983.380126953125 299.75775146484375 -24308.927734375
v -3987.287841796875 304.4732666015625 -24314.8046875
v -3990.81591796875 319.85507202148438 -24320.111328125
v -3987.287841796875 335.23690795898438 -24314.8046875
v -3983.380126953125 339.952392578125 -24308.927734375
v -3978.770751953125 341.60824584960938 -24301.99609375
v -3978.770751953125 298.10189819335938 -24301.99609375
v -3986.1025390625 299.75775146484375 -24305.939453125
v -3992.31787109375 304.4732666015625 -24309.28125
v -3997.929443359375 319.85507202148438 -24312.298828125
v -3992.31787109375 335.23690795898438 -24309.28125
v -3986.1025390625 339.952392578125 -24305.939453125
v -3978.770751953125 341.60824584960938 -24301.99609375
v -3978.770751953125 298.10189819335938 -24301.99609375
v -3987.094970703125 299.75775146484375 -24302.078125
v -3994.15185546875 304.4732666015625 -24302.146484375
v -4000.52294921875 319.85507202148438 -24302.208984375
v -3994.15185546875 335.23690795898438 -24302.146484375
v -3987.094970703125 339.952392578125 -24302.078125
v -3978.770751953125 341.60824584960938 -24301.99609375
v -3978.770751953125 298.10189819335938 -24301.99609375
v -3986.2021484375 299.75775146484375 -24298.244140625
v -3992.502197265625 304.4732666015625 -24295.064453125
v -3998.189697265625 319.85507202148438 -24292.193359375
v -3992.502197265625 335.23690795898438 -24295.064453125
v -3986.2021484375 339.952392578125 -24298.244140625
v -3978.770751953125 341.60824584960938 -24301.99609375
v -3978.770751953125 298.10189819335938 -24301.99609375
v -3983.5810546875 299.75775146484375 -24295.203125
v -3987.658935546875 304.4732666015625 -24289.443359375
v -3991.340576171875 319.85507202148438 -24284.2421875
v -3987.658935546875 335.23690795898438 -24289.443359375
v -3983.5810546875 339.952392578125 -24295.203125
v -3978.770751953125 341.60824584960938 -24301.99609375
v -3978.770751953125 298.10189819335938 -24301.99609375
v -3979.842041015625 299.75775146484375 -24293.740234375
v -3980.750244140625 304.4732666015625 -24286.7421875
v -3981.5703125 319.85507202148438 -24280.423828125
v -3980.750244140625 335.23690795898438 -24286.7421875
v -3979.842041015625 339.952392578125 -24293.740234375
v -3978.770751953125 341.60824584960938 -24301.99609375
v -3978.770751953125 298.10189819335938 -24301.99609375
v -3975.930419921875 299.75775146484375 -24294.171875
v -3973.5224609375 304.4732666015625 -24287.537109375
v -3971.3486328125 319.85507202148438 -24281.548828125
v -3973.5224609375 335.23690795898438 -24287.537109375
v -3975.930419921875 339.952392578125 -24294.171875
v -3978.770751953125 341.60824584960938 -24301.99609375
v -3972.653564453125 299.75775146484375 -24296.349609375
v -3967.467529296875 304.4732666015625 -24291.564453125
v -3962.78564453125 319.85507202148438 -24287.2421875
v -3967.467529296875 335.23690795898438 -24291.564453125
v -3972.653564453125 339.952392578125 -24296.349609375
v -3978.770751953125 341.60824584960938 -24301.99609375
v -3959.3408203125 328.17965698242188 -24296.861328125
v -3965.285888671875 335.23690795898438 -24294.595703125
v -3964.00244140625 328.17965698242188 -24288.365234375
v -3959.7001953125 319.85507202148438 -24291.53125
v -3961.15185546875 328.17965698242188 -24292.328125
v -3959.197509765625 328.17965698242188 -24306.556640625
v -3963.390625 335.23690795898438 -24301.76953125
v -3957.02001953125 319.85507202148438 -24301.67578125
v -3958.67578125 328.17965698242188 -24301.69921875
v -3971.4892578125 311.53048706054688 -24320.728515625
v -3966.172119140625 319.85507202148438 -24319.73046875
v -3963.479248046875 311.53048706054688 -24315.037109375
v -3969.862060546875 304.4732666015625 -24314.53515625
v -3967.131103515625 311.53048706054688 -24318.37890625
v -3971.4892578125 328.17965698242188 -24320.728515625
v -3969.862060546875 335.23690795898438 -24314.53515625
v -3963.479248046875 328.17965698242188 -24315.037109375
v -3967.131103515625 328.17965698242188 -24318.37890625
v -3980.968505859375 311.53048706054688 -24321.97265625
v -3975.938232421875 319.85507202148438 -24323.564453125
v -3976.767822265625 304.4732666015625 -24317.248046875
v -3976.15380859375 311.53048706054688 -24321.921875
v -3980.968505859375 328.17965698242188 -24321.97265625
v -3976.767822265625 335.23690795898438 -24317.248046875
v -3976.15380859375 328.17965698242188 -24321.921875
v -3989.89892578125 311.53048706054688 -24318.732421875
v -3986.193115234375 319.85507202148438 -24322.443359375
v -3984.01904296875 304.4732666015625 -24316.455078125
v -3985.6279296875 311.53048706054688 -24320.88671875
v -3989.89892578125 328.17965698242188 -24318.732421875
v -3984.01904296875 335.23690795898438 -24316.455078125
v -3985.6279296875 328.17965698242188 -24320.88671875
v -3996.470947265625 311.53048706054688 -24311.515625
v -3994.85400390625 319.85507202148438 -24316.642578125
v -3990.143310546875 304.4732666015625 -24312.353515625
v -3993.629638671875 311.53048706054688 -24315.529296875
v -3996.470947265625 328.17965698242188 -24311.515625
v -3990.143310546875 335.23690795898438 -24312.353515625
v -3993.629638671875 328.17965698242188 -24315.529296875
v -3998.8671875 311.53048706054688 -24302.19140625
v -3999.83935546875 319.85507202148438 -24307.412109375
v -3993.66845703125 304.4732666015625 -24305.826171875
v -3998.235595703125 311.53048706054688 -24307
v -3998.8671875 328.17965698242188 -24302.19140625
v -3993.66845703125 335.23690795898438 -24305.826171875
v -3998.235595703125 328.17965698242188 -24307
v -3990.3837890625 311.53048706054688 -24285.59375
v -3995.251708984375 319.85507202148438 -24287.798828125
v -3996.711669921875 311.53048706054688 -24292.939453125
v -3990.424560546875 304.4732666015625 -24291.95703125
v -3993.997314453125 311.53048706054688 -24288.87890625
v -3990.3837890625 328.17965698242188 -24285.59375
v -3990.424560546875 335.23690795898438 -24291.95703125
v -3996.711669921875 328.17965698242188 -24292.939453125
v -3993.997314453125 328.17965698242188 -24288.87890625
v -3981.357177734375 311.53048706054688 -24282.06640625
v -3986.68896484375 319.85507202148438 -24281.736328125
v -3984.369873046875 304.4732666015625 -24287.669921875
v -3986.086181640625 311.53048706054688 -24283.27734375
v -3981.357177734375 328.17965698242188 -24282.06640625
v -3984.369873046875 335.23690795898438 -24287.669921875
v -3986.086181640625 328.17965698242188 -24283.27734375
v -3971.91357421875 311.53048706054688 -24283.10546875
v -3976.39208984375 319.85507202148438 -24280.373046875
v -3977.0888671875 304.4732666015625 -24286.70703125
v -3976.5732421875 311.53048706054688 -24282.01953125
v -3964.00244140625 311.53048706054688 -24288.365234375
v -3966.725830078125 319.85507202148438 -24283.8828125
v -3970.253662109375 304.4732666015625 -24289.1875
v -3967.642578125 311.53048706054688 -24285.26171875
v -3964.00244140625 328.17965698242188 -24288.365234375
v -3970.253662109375 335.23690795898438 -24289.1875
v -3971.91357421875 328.17965698242188 -24283.10546875
v -3967.642578125 328.17965698242188 -24285.26171875
v -3959.3408203125 311.53048706054688 -24296.861328125
v -3964.00244140625 311.53048706054688 -24288.365234375
v -3965.285888671875 304.4732666015625 -24294.595703125
v -3961.15185546875 311.53048706054688 -24292.328125
vt 0 0
vt 0 0.125
vt 0 0.25
vt 0 0.5
vt 0 0.75
vt 0 0.875
vt 0.077500000596046448 0
vt 0.077500000596046448 0.125
vt 0.077500000596046448 0.25
vt 0.077500000596046448 0.5
vt 0.077500000596046448 0.75
vt 0.077500000596046448 0.875
vt 0.077500000596046448 1
vt 0.15505509078502655 0
vt 0.15505509078502655 0.125
vt 0.15505509078502655 0.25
vt 0.15505509078502655 0.5
vt 0.15505509078502655 0.75
vt 0.15505509078502655 0.875
vt 0.15505509078502655 1
vt 0.23101101815700531 0
vt 0.23101101815700531 0.125
vt 0.23101101815700531 0.25
vt 0.23101101815700531 0.5
vt 0.23101101815700531 0.75
vt 0.23101101815700531 0.875
vt 0.23101101815700531 1
vt 0.30962160229682922 0
vt 0.30962160229682922 0.125
vt 0.30962160229682922 0.25
vt 0.30962160229682922 0.5
vt 0.30962160229682922 0.75
vt 0.30962160229682922 0.875
vt 0.30962160229682922 1
vt 0.38606610894203186 0
vt 0.38606610894203186 0.125
vt 0.38606610894203186 0.25
vt 0.38606610894203186 0.5
vt 0.38606610894203186 0.75
vt 0.38606610894203186 0.875
vt 0.38606610894203186 1
vt 0.46202203631401062 0
vt 0.46202203631401062 0.125
vt 0.46202203631401062 0.25
vt 0.46202203631401062 0.5
vt 0.46202203631401062 0.75
vt 0.46202203631401062 0.875
vt 0.46202203631401062 1
vt 0.54009914398193359 0
vt 0.54009914398193359 0.125
vt 0.54009914398193359 0.25
vt 0.54009914398193359 0.5
vt 0.54009914398193359 0.75
vt 0.54009914398193359 0.875
vt 0.54009914398193359 1
vt 0.61707711219787598 0
vt 0.61707711219787598 0.125
vt 0.61707711219787598 0.25
vt 0.61707711219787598 0.5
vt 0.61707711219787598 0.75
vt 0.61707711219787598 0.875
vt 0.61707711219787598 1
vt 0.69303303956985474 0
vt 0.69303303956985474 0.125
vt 0.69303303956985474 0.25
vt 0.69303303956985474 0.5
vt 0.69303303956985474 0.75
vt 0.69303303956985474 0.875
vt 0.69303303956985474 1
vt 0.77057665586471558 0
vt 0.77057665586471558 0.125
vt 0.77057665586471558 0.25
vt 0.77057665586471558 0.5
vt 0.77057665586471558 0.75
vt 0.77057665586471558 0.875
vt 0.77057665586471558 1
vt 0.84808814525604248 0
vt 0.84808814525604248 0.125
vt 0.84808814525604248 0.25
vt 0.84808814525604248 0.5
vt 0.84808814525604248 0.75
vt 0.84808814525604248 0.875
vt 0.84808814525604248 1
vt 0.92404407262802124 0
vt 0.92404407262802124 0.125
vt 0.92404407262802124 0.25
vt 0.92404407262802124 0.5
vt 0.92404407262802124 0.75
vt 0.92404407262802124 0.875
vt 0.92404407262802124 1
vt 1 0.125
vt 1 0.25
vt 1 0.5
vt 1 0.75
vt 1 0.875
vt 1 1
vt 0.077500000596046448 0.625
vt 0.038750000298023224 0.75
vt 0 0.625
vt 0.038750000298023224 0.5
vt 0.038750000298023224 0.625
vt 0.15505509078502655 0.625
vt 0.1162775456905365 0.75
vt 0.1162775456905365 0.5
vt 0.1162775456905365 0.625
vt 0.30962160229682922 0.375
vt 0.27031630277633667 0.5
vt 0.23101101815700531 0.375
vt 0.27031630277633667 0.25
vt 0.27031630277633667 0.375
vt 0.30962160229682922 0.625
vt 0.27031630277633667 0.75
vt 0.23101101815700531 0.625
vt 0.27031630277633667 0.625
vt 0.38606610894203186 0.375
vt 0.34784385561943054 0.5
vt 0.34784385561943054 0.25
vt 0.34784385561943054 0.375
vt 0.38606610894203186 0.625
vt 0.34784385561943054 0.75
vt 0.34784385561943054 0.625
vt 0.46202203631401062 0.375
vt 0.42404407262802124 0.5
vt 0.42404407262802124 0.25
vt 0.42404407262802124 0.375
vt 0.46202203631401062 0.625
vt 0.42404407262802124 0.75
vt 0.42404407262802124 0.625
vt 0.54009914398193359 0.375
vt 0.5010606050491333 0.5
vt 0.5010606050491333 0.25
vt 0.5010606050491333 0.375
vt 0.54009914398193359 0.625
vt 0.5010606050491333 0.75
vt 0.5010606050491333 0.625
vt 0.61707711219787598 0.375
vt 0.57858812808990479 0.5
vt 0.57858812808990479 0.25
vt 0.57858812808990479 0.375
vt 0.61707711219787598 0.625
vt 0.57858812808990479 0.75
vt 0.57858812808990479 0.625
vt 0.77057665586471558 0.375
vt 0.73180484771728516 0.5
vt 0.69303303956985474 0.375
vt 0.73180484771728516 0.25
vt 0.73180484771728516 0.375
vt 0.77057665586471558 0.625
vt 0.73180484771728516 0.75
vt 0.69303303956985474 0.625
vt 0.73180484771728516 0.625
vt 0.84808814525604248 0.375
vt 0.80933237075805664 0.5
vt 0.80933237075805664 0.25
vt 0.80933237075805664 0.375
vt 0.84808814525604248 0.625
vt 0.80933237075805664 0.75
vt 0.80933237075805664 0.625
vt 0.92404407262802124 0.375
vt 0.88606607913970947 0.5
vt 0.88606607913970947 0.25
vt 0.88606607913970947 0.375
vt 1 0.375
vt 0.96202200651168823 0.5
vt 0.96202200651168823 0.25
vt 0.96202200651168823 0.375
vt 1 0.625
vt 0.96202200651168823 0.75
vt 0.92404407262802124 0.625
vt 0.96202200651168823 0.625
vt 0.077500000596046448 0.375
vt 0 0.375
vt 0.038750000298023224 0.25
vt 0.038750000298023224 0.375
vn 0 -1 0
vn 0.28121307492256165 -0.92387950420379639 0.25954926013946533
vn 0.51961404085159302 -0.70710676908493042 0.47958448529243469
vn 0.73484516143798828 0 0.67823487520217896
vn 0.51961404085159302 0.70710676908493042 0.47958448529243469
vn 0.28121307492256165 0.92387950420379639 0.25954926013946533
vn 0 -1 0
vn 0.36997729539871216 -0.92387950420379639 0.097792722284793854
vn 0.68362885713577271 -0.70710676908493042 0.18069739639759064
vn 0.96679723262786865 0 0.25554469227790833
vn 0.68362885713577271 0.70710676908493042 0.18069739639759064
vn 0.36997729539871216 0.92387950420379639 0.097792722284793854
vn 0 1 0
vn 0 -1 0
vn 0.37270331382751465 -0.92387950420379639 -0.086826562881469727
vn 0.68866592645645142 -0.70710676908493042 -0.16043455898761749
vn 0.97392070293426514 0 -0.22688873112201691
vn 0.68866592645645142 0.70710676908493042 -0.16043455898761749
vn 0.37270331382751465 0.92387950420379639 -0.086826562881469727
vn 0 1 0
vn 0 -1 0
vn 0.291176438331604 -0.92387950420379639 -0.24832014739513397
vn 0.53802388906478882 -0.70710676908493042 -0.45883581042289734
vn 0.76088064908981323 0 -0.64889180660247803
vn 0.53802388906478882 0.70710676908493042 -0.45883581042289734
vn 0.291176438331604 0.92387950420379639 -0.24832014739513397
vn 0 1 0
vn 0 -1 0
vn 0.13864976167678833 -0.92387950420379639 -0.35668313503265381
vn 0.25619137287139893 -0.70710676908493042 -0.65906447172164917
vn 0.36230930685997009 0 -0.93205791711807251
vn 0.25619137287139893 0.70710676908493042 -0.65906447172164917
vn 0.13864976167678833 0.92387950420379639 -0.35668313503265381
vn 0 1 0
vn 0 -1 0
vn -0.041847009211778641 -0.92387950420379639 -0.3803885281085968
vn -0.077323190867900848 -0.70710676908493042 -0.70286637544631958
vn -0.1093515008687973 0 -0.99400311708450317
vn -0.077323190867900848 0.70710676908493042 -0.70286637544631958
vn -0.041847009211778641 0.92387950420379639 -0.3803885281085968
vn 0 1 0
vn 0 -1 0
vn -0.21189653873443604 -0.92387950420379639 -0.31866356730461121
vn -0.39153373241424561 -0.70710676908493042 -0.58881348371505737
vn -0.55371230840682983 0 -0.83270800113677979
vn -0.39153373241424561 0.70710676908493042 -0.58881348371505737
vn -0.21189653873443604 0.92387950420379639 -0.31866356730461121
vn 0 1 0
vn 0 -1 0
vn -0.33703848719596863 -0.92387950420379639 -0.18125030398368835
vn -0.62276589870452881 -0.70710676908493042 -0.33490690588951111
vn -0.88072401285171509 0 -0.47362986207008362
vn -0.62276589870452881 0.70710676908493042 -0.33490690588951111
vn -0.33703848719596863 0.92387950420379639 -0.18125030398368835
vn 0 1 0
vn 0 -1 0
vn -0.38266527652740479 -0.92387950420379639 -0.0037275373470038176
vn -0.70707321166992188 -0.70710676908493042 -0.0068875905126333237
vn -0.99995255470275879 0 -0.0097405239939689636
vn -0.70707321166992188 0.70710676908493042 -0.0068875905126333237
vn -0.38266527652740479 0.92387950420379639 -0.0037275373470038176
vn 0 1 0
vn 0 -1 0
vn -0.34161984920501709 -0.92387950420379639 0.17246010899543762
vn -0.63123118877410889 -0.70710676908493042 0.31866472959518433
vn -0.89269566535949707 0 0.45065996050834656
vn -0.63123118877410889 0.70710676908493042 0.31866472959518433
vn -0.34161984920501709 0.92387950420379639 0.17246010899543762
vn 0 1 0
vn 0 -1 0
vn -0.22112712264060974 -0.92387950420379639 0.3123289942741394
vn -0.40858963131904602 -0.70710676908493042 0.57710874080657959
vn -0.57783299684524536 0 0.81615501642227173
vn -0.40858963131904602 0.70710676908493042 0.57710874080657959
vn -0.22112712264060974 0.92387950420379639 0.3123289942741394
vn 0 1 0
vn 0 -1 0
vn -0.049249082803726196 -0.92387950420379639 0.37950116395950317
vn -0.09100043773651123 -0.70710676908493042 0.70122671127319336
vn -0.12869405746459961 0 0.99168431758880615
vn -0.09100043773651123 0.70710676908493042 0.70122671127319336
vn -0.049249082803726196 0.92387950420379639 0.37950116395950317
vn 0 1 0
vn 0 -1 0
vn 0.13057158887386322 -0.92387950420379639 0.35971888899803162
vn 0.24126483500003815 -0.70710676908493042 0.66467380523681641
vn 0.34119999408721924 0 0.93999069929122925
vn 0.24126483500003815 0.70710676908493042 0.66467380523681641
vn 0.13057158887386322 0.92387950420379639 0.35971888899803162
vn 0 1 0
vn 0.28121307492256165 -0.92387950420379639 0.25954926013946533
vn 0.51961404085159302 -0.70710676908493042 0.47958448529243469
vn 0.73484516143798828 0 0.67823487520217896
vn 0.51961404085159302 0.70710676908493042 0.47958448529243469
vn 0.28121307492256165 0.92387950420379639 0.25954926013946533
vn 0 1 0
vn 0.8932042121887207 0.38268342614173889 0.23609252274036407
vn 0.61990463733673096 0.70710676908493042 0.3401738703250885
vn 0.67890840768814087 0.38268342614173889 0.62660729885101318
vn 0.87667751312255859 0 0.48107850551605225
vn 0.80994445085525513 0.38268342614173889 0.44445857405662537
vn 0.89978539943695068 0.38268342614173889 -0.20961786806583405
vn 0.70702970027923584 0.70710676908493042 0.010439754463732243
vn 0.99989098310470581 0 0.014764042571187019
vn 0.92377883195877075 0.38268342614173889 0.013640196062624454
vn 0.33473014831542969 -0.38268342614173889 -0.86110925674438477
vn 0.57916724681854248 0 -0.81520873308181763
vn 0.70296210050582886 -0.38268342614173889 -0.59949785470962524
vn 0.40953308343887329 -0.70710676908493042 -0.57643961906433105
vn 0.53508073091506958 -0.38268342614173889 -0.7531546950340271
vn 0.33473014831542969 0.38268342614173889 -0.86110925674438477
vn 0.40953308343887329 0.70710676908493042 -0.57643961906433105
vn 0.70296210050582886 0.38268342614173889 -0.59949785470962524
vn 0.53508073091506958 0.38268342614173889 -0.7531546950340271
vn -0.10102761536836624 -0.38268342614173889 -0.91833913326263428
vn 0.13021603226661682 0 -0.99148565530776978
vn 0.092076636850833893 -0.70710676908493042 -0.70108622312545776
vn 0.1203039214015007 -0.38268342614173889 -0.91601330041885376
vn -0.10102761536836624 0.38268342614173889 -0.91833913326263428
vn 0.092076636850833893 0.70710676908493042 -0.70108622312545776
vn 0.1203039214015007 0.38268342614173889 -0.91601330041885376
vn -0.51156347990036011 -0.38268342614173889 -0.76932191848754883
vn -0.34119999408721924 0 -0.93999069929122925
vn -0.24126483500003815 -0.70710676908493042 -0.66467380523681641
vn -0.3152276873588562 -0.38268342614173889 -0.86843818426132202
vn -0.51156347990036011 0.38268342614173889 -0.76932191848754883
vn -0.24126483500003815 0.70710676908493042 -0.66467380523681641
vn -0.3152276873588562 0.38268342614173889 -0.86843818426132202
vn -0.81368285417556763 -0.38268342614173889 -0.43757694959640503
vn -0.73934847116470337 0 -0.67332297563552856
vn -0.52279829978942871 -0.70710676908493042 -0.47611123323440552
vn -0.68306893110275269 -0.38268342614173889 -0.62206929922103882
vn -0.81368285417556763 0.38268342614173889 -0.43757694959640503
vn -0.52279829978942871 0.70710676908493042 -0.47611123323440552
vn -0.68306893110275269 0.38268342614173889 -0.62206929922103882
vn -0.92383569478988647 -0.38268342614173889 -0.0089990710839629173
vn -0.96852177381515503 0 -0.24892890453338623
vn -0.68484830856323242 -0.70710676908493042 -0.17601931095123291
vn -0.89479744434356689 -0.38268342614173889 -0.22998031973838806
vn -0.92383569478988647 0.38268342614173889 -0.0089990710839629173
vn -0.68484830856323242 0.70710676908493042 -0.17601931095123291
vn -0.89479744434356689 0.38268342614173889 -0.22998031973838806
vn -0.5338481068611145 -0.38268342614173889 0.75402891635894775
vn -0.75763469934463501 0 0.65267884731292725
vn -0.82474327087402344 -0.38268342614173889 0.41635552048683167
vn -0.53572863340377808 -0.70710676908493042 0.46151363849639893
vn -0.69996315240859985 -0.38268342614173889 0.60299664735794067
vn -0.5338481068611145 0.38268342614173889 0.75402891635894775
vn -0.53572863340377808 0.70710676908493042 0.46151363849639893
vn -0.82474327087402344 0.38268342614173889 0.41635552048683167
vn -0.69996315240859985 0.38268342614173889 0.60299664735794067
vn -0.11889780312776566 -0.38268342614173889 0.91619688272476196
vn -0.36400240659713745 0 0.93139797449111938
vn -0.25738859176635742 -0.70710676908493042 0.65859782695770264
vn -0.33629438281059265 -0.38268342614173889 0.86049956083297729
vn -0.11889780312776566 0.38268342614173889 0.91619688272476196
vn -0.25738859176635742 0.70710676908493042 0.65859782695770264
vn -0.33629438281059265 0.38268342614173889 0.86049956083297729
vn 0.3152276873588562 -0.38268342614173889 0.86843818426132202
vn 0.1093515008687973 0 0.99400311708450317
vn 0.077323190867900848 -0.70710676908493042 0.70286637544631958
vn 0.10102761536836624 -0.38268342614173889 0.91833913326263428
vn 0.67890840768814087 -0.38268342614173889 0.62660729885101318
vn 0.55371230840682983 0 0.83270800113677979
vn 0.39153373241424561 -0.70710676908493042 0.58881348371505737
vn 0.51156347990036011 -0.38268342614173889 0.76932191848754883
vn 0.67890840768814087 0.38268342614173889 0.62660729885101318
vn 0.39153373241424561 0.70710676908493042 0.58881348371505737
vn 0.3152276873588562 0.38268342614173889 0.86843818426132202
vn 0.51156347990036011 0.38268342614173889 0.76932191848754883
vn 0.8932042121887207 -0.38268342614173889 0.23609252274036407
vn 0.67890840768814087 -0.38268342614173889 0.62660729885101318
vn 0.61990463733673096 -0.70710676908493042 0.3401738703250885
vn 0.80994445085525513 -0.38268342614173889 0.44445857405662537
f 8/8/8 2/2/2 1/1/1
f 173/173/173 3/3/3 2/2/2
f 8/8/8 9/9/9 173/173/173
f 2/2/2 8/8/8 173/173/173
f 10/10/10 100/100/100 174/174/174 171/171/171
f 100/100/100 4/4/4 172/172/172 174/174/174
f 174/174/174 172/172/172 3/3/3 173/173/173
f 171/171/171 174/174/174 173/173/173 9/9/9
f 11/11/11 98/98/98 101/101/101 97/97/97
f 98/98/98 5/5/5 99/99/99 101/101/101
f 101/101/101 99/99/99 4/4/4 100/100/100
f 97/97/97 101/101/101 100/100/100 10/10/10
f 98/98/98 11/11/11 12/12/12
f 6/6/6 5/5/5 98/98/98
f 12/12/12 6/6/6 98/98/98
f 13/13/13 6/6/6 12/12/12
f 15/15/15 8/8/8 7/7/7
f 16/16/16 9/9/9 8/8/8 15/15/15
f 104/104/104 10/10/10 171/171/171
f 171/171/171 9/9/9 16/16/16
f 16/16/16 17/17/17 104/104/104
f 104/104/104 171/171/171 16/16/16
f 18/18/18 103/103/103 105/105/105 102/102/102
f 103/103/103 11/11/11 97/97/97 105/105/105
f 105/105/105 97/97/97 10/10/10 104/104/104
f 102/102/102 105/105/105 104/104/104 17/17/17
f 103/103/103 18/18/18 19/19/19
f 12/12/12 11/11/11 103/103/103
f 19/19/19 12/12/12 103/103/103
f 20/20/20 12/12/12 19/19/19
f 22/22/22 15/15/15 14/14/14
f 23/23/23 16/16/16 15/15/15 22/22/22
f 108/108/108 24/24/24 17/17/17
f 16/16/16 23/23/23 108/108/108
f 17/17/17 16/16/16 108/108/108
f 113/113/113 25/25/25 18/18/18 102/102/102
f 102/102/102 17/17/17 24/24/24 113/113/113
f 26/26/26 19/19/19 18/18/18 25/25/25
f 27/27/27 19/19/19 26/26/26
f 29/29/29 22/22/22 21/21/21
f 109/109/109 23/23/23 22/22/22
f 29/29/29 30/30/30 109/109/109
f 22/22/22 29/29/29 109/109/109
f 31/31/31 107/107/107 110/110/110 106/106/106
f 107/107/107 24/24/24 108/108/108 110/110/110
f 110/110/110 108/108/108 23/23/23 109/109/109
f 106/106/106 110/110/110 109/109/109 30/30/30
f 32/32/32 112/112/112 114/114/114 111/111/111
f 112/112/112 25/25/25 113/113/113 114/114/114
f 114/114/114 113/113/113 24/24/24 107/107/107
f 111/111/111 114/114/114 107/107/107 31/31/31
f 112/112/112 32/32/32 33/33/33
f 26/26/26 25/25/25 112/112/112
f 33/33/33 26/26/26 112/112/112
f 34/34/34 26/26/26 33/33/33
f 36/36/36 29/29/29 28/28/28
f 117/117/117 30/30/30 29/29/29
f 36/36/36 37/37/37 117/117/117
f 29/29/29 36/36/36 117/117/117
f 38/38/38 116/116/116 118/118/118 115/115/115
f 116/116/116 31/31/31 106/106/106 118/118/118
f 118/118/118 106/106/106 30/30/30 117/117/117
f 115/115/115 118/118/118 117/117/117 37/37/37
f 39/39/39 120/120/120 121/121/121 119/119/119
f 120/120/120 32/32/32 111/111/111 121/121/121
f 121/121/121 111/111/111 31/31/31 116/116/116
f 119/119/119 121/121/121 116/116/116 38/38/38
f 120/120/120 39/39/39 40/40/40
f 33/33/33 32/32/32 120/120/120
f 40/40/40 33/33/33 120/120/120
f 41/41/41 33/33/33 40/40/40
f 43/43/43 36/36/36 35/35/35
f 124/124/124 37/37/37 36/36/36
f 43/43/43 44/44/44 124/124/124
f 36/36/36 43/43/43 124/124/124
f 45/45/45 123/123/123 125/125/125 122/122/122
f 123/123/123 38/38/38 115/115/115 125/125/125
f 125/125/125 115/115/115 37/37/37 124/124/124
f 122/122/122 125/125/125 124/124/124 44/44/44
f 46/46/46 127/127/127 128/128/128 126/126/126
f 127/127/127 39/39/39 119/119/119 128/128/128
f 128/128/128 119/119/119 38/38/38 123/123/123
f 126/126/126 128/128/128 123/123/123 45/45/45
f 127/127/127 46/46/46 47/47/47
f 40/40/40 39/39/39 127/127/127
f 47/47/47 40/40/40 127/127/127
f 48/48/48 40/40/40 47/47/47
f 50/50/50 43/43/43 42/42/42
f 131/131/131 44/44/44 43/43/43
f 50/50/50 51/51/51 131/131/131
f 43/43/43 50/50/50 131/131/131
f 52/52/52 130/130/130 132/132/132 129/129/129
f 130/130/130 45/45/45 122/122/122 132/132/132
f 132/132/132 122/122/122 44/44/44 131/131/131
f 129/129/129 132/132/132 131/131/131 51/51/51
f 53/53/53 134/134/134 135/135/135 133/133/133
f 134/134/134 46/46/46 126/126/126 135/135/135
f 135/135/135 126/126/126 45/45/45 130/130/130
f 133/133/133 135/135/135 130/130/130 52/52/52
f 134/134/134 53/53/53 54/54/54
f 47/47/47 46/46/46 134/134/134
f 54/54/54 47/47/47 134/134/134
f 55/55/55 47/47/47 54/54/54
f 57/57/57 50/50/50 49/49/49
f 138/138/138 51/51/51 50/50/50
f 57/57/57 58/58/58 138/138/138
f 50/50/50 57/57/57 138/138/138
f 59/59/59 137/137/137 139/139/139 136/136/136
f 137/137/137 52/52/52 129/129/129 139/139/139
f 139/139/139 129/129/129 51/51/51 138/138/138
f 136/136/136 139/139/139 138/138/138 58/58/58
f 60/60/60 141/141/141 142/142/142 140/140/140
f 141/141/141 53/53/53 133/133/133 142/142/142
f 142/142/142 133/133/133 52/52/52 137/137/137
f 140/140/140 142/142/142 137/137/137 59/59/59
f 141/141/141 60/60/60 61/61/61
f 54/54/54 53/53/53 141/141/141
f 61/61/61 54/54/54 141/141/141
f 62/62/62 54/54/54 61/61/61
f 64/64/64 57/57/57 56/56/56
f 65/65/65 58/58/58 57/57/57 64/64/64
f 145/145/145 66/66/66 59/59/59 136/136/136
f 136/136/136 58/58/58 65/65/65 145/145/145
f 150/150/150 67/67/67 60/60/60 140/140/140
f 140/140/140 59/59/59 66/66/66 150/150/150
f 68/68/68 61/61/61 60/60/60 67/67/67
f 69/69/69 61/61/61 68/68/68
f 71/71/71 64/64/64 63/63/63
f 146/146/146 65/65/65 64/64/64
f 71/71/71 72/72/72 146/146/146
f 64/64/64 71/71/71 146/146/146
f 73/73/73 144/144/144 147/147/147 143/143/143
f 144/144/144 66/66/66 145/145/145 147/147/147
f 147/147/147 145/145/145 65/65/65 146/146/146
f 143/143/143 147/147/147 146/146/146 72/72/72
f 74/74/74 149/149/149 151/151/151 148/148/148
f 149/149/149 67/67/67 150/150/150 151/151/151
f 151/151/151 150/150/150 66/66/66 144/144/144
f 148/148/148 151/151/151 144/144/144 73/73/73
f 149/149/149 74/74/74 75/75/75
f 68/68/68 67/67/67 149/149/149
f 75/75/75 68/68/68 149/149/149
f 76/76/76 68/68/68 75/75/75
f 78/78/78 71/71/71 70/70/70
f 154/154/154 72/72/72 71/71/71
f 78/78/78 79/79/79 154/154/154
f 71/71/71 78/78/78 154/154/154
f 80/80/80 153/153/153 155/155/155 152/152/152
f 153/153/153 73/73/73 143/143/143 155/155/155
f 155/155/155 143/143/143 72/72/72 154/154/154
f 152/152/152 155/155/155 154/154/154 79/79/79
f 81/81/81 157/157/157 158/158/158 156/156/156
f 157/157/157 74/74/74 148/148/148 158/158/158
f 158/158/158 148/148/148 73/73/73 153/153/153
f 156/156/156 158/158/158 153/153/153 80/80/80
f 157/157/157 81/81/81 82/82/82
f 75/75/75 74/74/74 157/157/157
f 82/82/82 75/75/75 157/157/157
f 83/83/83 75/75/75 82/82/82
f 85/85/85 78/78/78 77/77/77
f 161/161/161 79/79/79 78/78/78
f 85/85/85 86/86/86 161/161/161
f 78/78/78 85/85/85 161/161/161
f 87/87/87 160/160/160 162/162/162 159/159/159
f 160/160/160 80/80/80 152/152/152 162/162/162
f 162/162/162 152/152/152 79/79/79 161/161/161
f 159/159/159 162/162/162 161/161/161 86/86/86
f 169/169/169 156/156/156 160/160/160
f 156/156/156 80/80/80 160/160/160
f 160/160/160 87/87/87 169/169/169
f 169/169/169 88/88/88 81/81/81 156/156/156
f 89/89/89 82/82/82 81/81/81 88/88/88
f 90/90/90 82/82/82 89/89/89
f 91/91/91 85/85/85 84/84/84
f 165/165/165 86/86/86 85/85/85
f 91/91/91 92/92/92 165/165/165
f 85/85/85 91/91/91 165/165/165
f 93/93/93 164/164/164 166/166/166 163/163/163
f 164/164/164 87/87/87 159/159/159 166/166/166
f 166/166/166 159/159/159 86/86/86 165/165/165
f 163/163/163 166/166/166 165/165/165 92/92/92
f 94/94/94 168/168/168 170/170/170 167/167/167
f 168/168/168 88/88/88 169/169/169 170/170/170
f 170/170/170 169/169/169 87/87/87 164/164/164
f 167/167/167 170/170/170 164/164/164 93/93/93
f 168/168/168 94/94/94 95/95/95
f 89/89/89 88/88/88 168/168/168
f 95/95/95 89/89/89 168/168/168
f 96/96/96 89/89/89 95/95/95
