# Rhino

o object_1
v -4016.56689453125 364.51678466796875 -24440.92578125
v -4017.360107421875 370.27642822265625 -24440.822265625
v -4019.763427734375 375.7418212890625 -24440.71875
v -4023.6181640625 380.3526611328125 -24440.62890625
v -4028.5673828125 383.68499755859375 -24440.560546875
v -4019.762451171875 370.44873046875 -24450.41796875
v -4021.884521484375 375.8939208984375 -24449.19140625
v -4025.287841796875 380.472412109375 -24447.298828125
v -4029.65771484375 383.76318359375 -24444.916015625
v -4026.3828125 370.58087158203125 -24457.779296875
v -4027.7294921875 376.0106201171875 -24455.69140625
v -4029.889404296875 380.56427001953125 -24452.416015625
v -4032.66259765625 383.82315063476562 -24448.2578125
v -4035.47509765625 370.6416015625 -24461.162109375
v -4035.7568359375 376.064208984375 -24458.67578125
v -4036.208740234375 380.6064453125 -24454.765625
v -4036.7890625 383.8507080078125 -24449.79296875
v -4045.42431640625 370.61834716796875 -24459.8671875
v -4044.541015625 376.043701171875 -24457.533203125
v -4043.1240234375 380.59030151367188 -24453.8671875
v -4041.304931640625 383.84017944335938 -24449.205078125
v -4053.388916015625 370.51702880859375 -24454.22265625
v -4051.57275390625 375.9542236328125 -24452.55078125
v -4048.659912109375 380.51986694335938 -24449.943359375
v -4044.919677734375 383.794189453125 -24446.642578125
v -4057.82958984375 370.36221313476562 -24445.599609375
v -4055.493408203125 375.81753540039062 -24444.9375
v -4051.746337890625 380.41226196289062 -24443.94921875
v -4046.935302734375 383.72390747070312 -24442.728515625
v -4057.745361328125 370.18331909179688 -24435.634765625
v -4055.419189453125 375.65960693359375 -24436.138671875
v -4051.687744140625 380.28793334960938 -24437.0234375
v -4046.89697265625 383.64273071289062 -24438.20703125
v -4053.071533203125 370.02810668945312 -24426.990234375
v -4051.29248046875 375.52255249023438 -24428.5078125
v -4048.439208984375 380.1800537109375 -24431.015625
v -4044.775634765625 383.572265625 -24434.283203125
v -4045.036376953125 369.9305419921875 -24421.5546875
v -4044.198486328125 375.43643188476562 -24423.708984375
v -4042.8544921875 380.11224365234375 -24427.23828125
v -4041.128662109375 383.52798461914062 -24431.81640625
v -4035.19921875 369.91058349609375 -24420.443359375
v -4035.513427734375 375.41879272460938 -24422.7265625
v -4036.01708984375 380.09835815429688 -24426.46484375
v -4036.6640625 383.5189208984375 -24431.3125
v -4025.98974609375 369.9755859375 -24424.0625
v -4027.38232421875 375.4761962890625 -24425.923828125
v -4029.615966796875 380.14352416992188 -24428.982421875
v -4032.484130859375 383.54843139648438 -24432.955078125
v -4019.63623046875 370.107177734375 -24431.392578125
v -4021.77294921875 375.59237670898438 -24432.39453125
v -4025.2001953125 380.23501586914062 -24434.076171875
v -4029.600341796875 383.608154296875 -24436.28125
v -4016.56689453125 364.51678466796875 -24440.92578125
v -4017.360107421875 370.27642822265625 -24440.822265625
v -4019.763427734375 375.7418212890625 -24440.71875
v -4023.6181640625 380.3526611328125 -24440.62890625
v -4028.5673828125 383.68499755859375 -24440.560546875
v -4017.865478515625 364.64761352539062 -24448.212890625
v -4021.578125 364.7625732421875 -24454.615234375
v -4027.257080078125 364.84780883789062 -24459.36328125
v -4034.217529296875 364.89300537109375 -24461.8828125
v -4041.619873046875 364.89279174804688 -24461.869140625
v -4048.5712890625 364.84710693359375 -24459.32421875
v -4054.2333984375 364.76150512695312 -24454.556640625
v -4057.923095703125 364.64633178710938 -24448.140625
v -4059.195556640625 364.51544189453125 -24440.849609375
v -4057.897216796875 364.38461303710938 -24433.564453125
v -4054.1845703125 364.2696533203125 -24427.16015625
v -4048.505615234375 364.1844482421875 -24422.4140625
v -4041.544921875 364.13922119140625 -24419.89453125
v -4034.142578125 364.13943481445312 -24419.908203125
v -4027.191162109375 364.18511962890625 -24422.451171875
v -4021.529052734375 364.27072143554688 -24427.21875
v -4017.83935546875 364.38589477539062 -24433.634765625
v -4041.7802734375 384.5445556640625 -24447.048828125
v -4039.845703125 384.82730102539062 -24447.044921875
v -4037.892822265625 384.92257690429688 -24447.04296875
v -4035.692138671875 384.80416870117188 -24447.044921875
v -4033.51708984375 384.44778442382812 -24447.05078125
v -4033.44677734375 384.43215942382812 -24447.05078125
v -4033.44677734375 384.44692993164062 -24447.00390625
v -4033.44677734375 384.9600830078125 -24444.97265625
v -4033.44677734375 385.280029296875 -24442.7578125
v -4033.44677734375 385.36080932617188 -24440.521484375
v -4033.44677734375 385.36080932617188 -24440.521484375
v -4033.44677734375 385.20254516601562 -24438.298828125
v -4033.44677734375 384.80776977539062 -24436.103515625
v -4033.44677734375 384.76644897460938 -24435.931640625
v -4035.64697265625 385.12405395507812 -24435.92578125
v -4037.873046875 385.24429321289062 -24435.923828125
v -4039.83544921875 385.15237426757812 -24435.92578125
v -4041.7802734375 384.87591552734375 -24435.9296875
v -4041.7802734375 385.02874755859375 -24436.607421875
v -4041.7802734375 385.3394775390625 -24438.544921875
v -4041.7802734375 385.46734619140625 -24440.505859375
v -4041.7802734375 385.4117431640625 -24442.4609375
v -4041.7802734375 385.17398071289062 -24444.40234375
v -4016.56689453125 333.84091186523438 -24441.4765625
v -4016.56689453125 349.17886352539062 -24441.201171875
v -4016.56689453125 364.51678466796875 -24440.92578125
v -4052.979736328125 349.44821166992188 -24456.205078125
v -4052.92578125 348.90713500976562 -24426.068359375
v -4022.782958984375 348.90811157226562 -24426.12109375
v -4016.56689453125 333.84091186523438 -24441.4765625
v -4016.56689453125 349.17886352539062 -24441.201171875
v -4016.56689453125 364.51678466796875 -24440.92578125
v -4052.979736328125 341.77923583984375 -24456.34375
v -4046.072998046875 349.5313720703125 -24460.837890625
v -4046.072998046875 341.86239624023438 -24460.974609375
v -4052.979736328125 357.1171875 -24456.068359375
v -4046.072998046875 357.20034790039062 -24460.69921875
v -4046.002685546875 348.82443237304688 -24421.4609375
v -4052.92578125 341.2381591796875 -24426.205078125
v -4046.002685546875 341.15545654296875 -24421.59765625
v -4052.92578125 356.57611083984375 -24425.9296875
v -4046.002685546875 356.493408203125 -24421.322265625
v -4022.782958984375 341.2391357421875 -24426.259765625
v -4029.689453125 348.824951171875 -24421.490234375
v -4029.689453125 341.15597534179688 -24421.626953125
v -4022.782958984375 356.57708740234375 -24425.984375
v -4029.689453125 356.49392700195312 -24421.3515625
v -4017.83935546875 364.38589477539062 -24433.634765625
v -4021.529052734375 364.27072143554688 -24427.21875
v -4027.191162109375 364.18511962890625 -24422.451171875
v -4034.142578125 364.13943481445312 -24419.908203125
v -4041.544921875 364.13922119140625 -24419.89453125
v -4048.505615234375 364.1844482421875 -24422.4140625
v -4054.1845703125 364.2696533203125 -24427.16015625
v -4057.897216796875 364.38461303710938 -24433.564453125
v -4059.195556640625 364.51544189453125 -24440.849609375
v -4057.923095703125 364.64633178710938 -24448.140625
v -4054.2333984375 364.76150512695312 -24454.556640625
v -4048.5712890625 364.84710693359375 -24459.32421875
v -4041.619873046875 364.89279174804688 -24461.869140625
v -4034.217529296875 364.89300537109375 -24461.8828125
v -4027.257080078125 364.84780883789062 -24459.36328125
v -4021.578125 364.7625732421875 -24454.615234375
v -4017.865478515625 364.64761352539062 -24448.212890625
v -4018.02001953125 333.97906494140625 -24449.171875
v -4022.155517578125 334.09848022460938 -24455.82421875
v -4028.414794921875 334.18301391601562 -24460.533203125
v -4035.952392578125 334.22125244140625 -24462.662109375
v -4043.750732421875 334.20803833007812 -24461.92578125
v -4050.75634765625 334.1451416015625 -24458.421875
v -4056.023193359375 334.04104614257812 -24452.625
v -4058.839599609375 333.90985107421875 -24445.318359375
v -4058.82568359375 333.76925659179688 -24437.486328125
v -4055.983154296875 333.63821411132812 -24430.1875
v -4050.69580078125 333.53448486328125 -24424.41015625
v -4043.677734375 333.4720458984375 -24420.931640625
v -4035.876708984375 333.45932006835938 -24420.22265625
v -4028.3466796875 333.498046875 -24422.37890625
v -4022.104248046875 333.58297729492188 -24427.109375
v -4017.992431640625 333.70263671875 -24433.775390625
v -4041.7802734375 350.70855712890625 -24462.09375
v -4037.608154296875 350.7149658203125 -24462.451171875
v -4033.44677734375 350.70663452148438 -24461.98828125
v -4033.44677734375 349.95819091796875 -24420.298828125
v -4037.608154296875 349.9498291015625 -24419.833984375
v -4041.7802734375 349.95626831054688 -24420.19140625
v -4041.7802734375 361.81805419921875 -24461.89453125
v -4041.7802734375 361.0657958984375 -24419.9921875
v -4033.44677734375 361.816162109375 -24461.787109375
v -4037.608154296875 361.82449340820312 -24462.251953125
v -4037.608154296875 361.05935668945312 -24419.634765625
v -4033.44677734375 361.06768798828125 -24420.099609375
v -4029.759765625 349.53189086914062 -24460.8671875
v -4022.836669921875 349.44918823242188 -24456.259765625
v -4037.91943359375 349.56076049804688 -24462.474609375
v -4059.195556640625 349.177490234375 -24441.125
v -4057.55859375 349.0311279296875 -24432.97265625
v -4016.56689453125 333.84091186523438 -24441.4765625
v -4018.02001953125 333.97906494140625 -24449.171875
v -4022.155517578125 334.09848022460938 -24455.82421875
v -4028.414794921875 334.18301391601562 -24460.533203125
v -4035.952392578125 334.22125244140625 -24462.662109375
v -4043.750732421875 334.20803833007812 -24461.92578125
v -4050.75634765625 334.1451416015625 -24458.421875
v -4056.023193359375 334.04104614257812 -24452.625
v -4058.839599609375 333.90985107421875 -24445.318359375
v -4058.82568359375 333.76925659179688 -24437.486328125
v -4055.983154296875 333.63821411132812 -24430.1875
v -4050.69580078125 333.53448486328125 -24424.41015625
v -4043.677734375 333.4720458984375 -24420.931640625
v -4035.876708984375 333.45932006835938 -24420.22265625
v -4028.3466796875 333.498046875 -24422.37890625
v -4022.104248046875 333.58297729492188 -24427.109375
v -4017.992431640625 333.70263671875 -24433.775390625
v -4041.7802734375 333.95724487304688 -24447.95703125
v -4033.44677734375 333.95724487304688 -24447.95703125
v -4033.44677734375 333.7578125 -24436.84765625
v -4041.7802734375 333.7578125 -24436.84765625
v -4041.7802734375 350.25 -24436.552734375
v -4033.44677734375 349.95819091796875 -24420.298828125
v -4037.608154296875 349.9498291015625 -24419.833984375
v -4041.7802734375 349.95626831054688 -24420.19140625
v -4033.44677734375 350.25 -24436.552734375
v -4041.7802734375 361.3594970703125 -24436.353515625
v -4041.7802734375 361.0657958984375 -24419.9921875
v -4037.608154296875 361.05935668945312 -24419.634765625
v -4033.44677734375 361.06768798828125 -24420.099609375
v -4033.44677734375 361.3594970703125 -24436.353515625
v -4033.44677734375 361.5589599609375 -24447.462890625
v -4033.44677734375 361.3594970703125 -24436.353515625
v -4033.44677734375 384.43215942382812 -24447.05078125
v -4033.44677734375 384.44692993164062 -24447.00390625
v -4033.44677734375 384.9600830078125 -24444.97265625
v -4033.44677734375 385.280029296875 -24442.7578125
v -4033.44677734375 385.36080932617188 -24440.521484375
v -4033.44677734375 385.20254516601562 -24438.298828125
v -4033.44677734375 384.80776977539062 -24436.103515625
v -4033.44677734375 384.76644897460938 -24435.931640625
v -4041.7802734375 350.44943237304688 -24447.662109375
v -4041.7802734375 350.70855712890625 -24462.09375
v -4037.608154296875 350.7149658203125 -24462.451171875
v -4033.44677734375 350.70663452148438 -24461.98828125
v -4033.44677734375 350.44943237304688 -24447.662109375
v -4041.7802734375 349.95626831054688 -24420.19140625
v -4041.7802734375 361.81805419921875 -24461.89453125
v -4041.7802734375 350.25 -24436.552734375
v -4041.7802734375 361.0657958984375 -24419.9921875
v -4041.7802734375 361.3594970703125 -24436.353515625
v -4041.7802734375 350.70855712890625 -24462.09375
v -4041.7802734375 350.44943237304688 -24447.662109375
v -4041.7802734375 361.5589599609375 -24447.462890625
v -4033.44677734375 361.5589599609375 -24447.462890625
v -4033.44677734375 361.816162109375 -24461.787109375
v -4037.608154296875 361.82449340820312 -24462.251953125
v -4041.7802734375 361.81805419921875 -24461.89453125
v -4041.7802734375 361.5589599609375 -24447.462890625
v -4033.44677734375 361.06768798828125 -24420.099609375
v -4033.44677734375 350.70663452148438 -24461.98828125
v -4033.44677734375 349.95819091796875 -24420.298828125
v -4033.44677734375 350.25 -24436.552734375
v -4033.44677734375 361.3594970703125 -24436.353515625
v -4033.44677734375 350.44943237304688 -24447.662109375
v -4033.44677734375 361.816162109375 -24461.787109375
v -4033.44677734375 361.5589599609375 -24447.462890625
v -4041.7802734375 350.44943237304688 -24447.662109375
v -4041.7802734375 333.95724487304688 -24447.95703125
v -4033.44677734375 350.44943237304688 -24447.662109375
v -4033.44677734375 333.95724487304688 -24447.95703125
v -4041.7802734375 361.5589599609375 -24447.462890625
v -4033.44677734375 361.5589599609375 -24447.462890625
v -4041.7802734375 384.5445556640625 -24447.048828125
v -4039.845703125 384.82730102539062 -24447.044921875
v -4037.892822265625 384.92257690429688 -24447.04296875
v -4035.692138671875 384.80416870117188 -24447.044921875
v -4033.51708984375 384.44778442382812 -24447.05078125
v -4033.44677734375 384.43215942382812 -24447.05078125
v -4033.44677734375 350.44943237304688 -24447.662109375
v -4033.44677734375 333.95724487304688 -24447.95703125
v -4033.44677734375 350.25 -24436.552734375
v -4033.44677734375 333.7578125 -24436.84765625
v -4033.44677734375 361.3594970703125 -24436.353515625
v -4041.7802734375 361.3594970703125 -24436.353515625
v -4033.44677734375 384.76644897460938 -24435.931640625
v -4035.64697265625 385.12405395507812 -24435.92578125
v -4037.873046875 385.24429321289062 -24435.923828125
v -4039.83544921875 385.15237426757812 -24435.92578125
v -4041.7802734375 384.87591552734375 -24435.9296875
v -4033.44677734375 350.25 -24436.552734375
v -4033.44677734375 333.7578125 -24436.84765625
v -4041.7802734375 350.25 -24436.552734375
v -4041.7802734375 333.7578125 -24436.84765625
v -4041.7802734375 361.3594970703125 -24436.353515625
v -4041.7802734375 361.5589599609375 -24447.462890625
v -4041.7802734375 384.87591552734375 -24435.9296875
v -4041.7802734375 385.02874755859375 -24436.607421875
v -4041.7802734375 385.3394775390625 -24438.544921875
v -4041.7802734375 385.46734619140625 -24440.505859375
v -4041.7802734375 385.4117431640625 -24442.4609375
v -4041.7802734375 385.17398071289062 -24444.40234375
v -4041.7802734375 384.5445556640625 -24447.048828125
v -4041.7802734375 350.25 -24436.552734375
v -4041.7802734375 333.7578125 -24436.84765625
v -4041.7802734375 350.44943237304688 -24447.662109375
v -4041.7802734375 333.95724487304688 -24447.95703125
vt 0.49256888031959534 0
vt 0.44988164305686951 0
vt 0.4091126024723053 0
vt 0.36939814686775208 0
vt 0.32968372106552124 0
vt 0.44988164305686951 0.071699663996696472
vt 0.4091126024723053 0.071699663996696472
vt 0.36939814686775208 0.071699663996696472
vt 0.32968372106552124 0.071699663996696472
vt 0.44988164305686951 0.1434503048658371
vt 0.4091126024723053 0.1434503048658371
vt 0.36939814686775208 0.1434503048658371
vt 0.32968372106552124 0.1434503048658371
vt 0.44988164305686951 0.21372145414352417
vt 0.4091126024723053 0.21372145414352417
vt 0.36939814686775208 0.21372145414352417
vt 0.32968372106552124 0.21372145414352417
vt 0.44988164305686951 0.28644859790802002
vt 0.4091126024723053 0.28644859790802002
vt 0.36939814686775208 0.28644859790802002
vt 0.32968372106552124 0.28644859790802002
vt 0.44988164305686951 0.35717174410820007
vt 0.4091126024723053 0.35717174410820007
vt 0.36939814686775208 0.35717174410820007
vt 0.32968372106552124 0.35717174410820007
vt 0.44988164305686951 0.42744290828704834
vt 0.4091126024723053 0.42744290828704834
vt 0.36939814686775208 0.42744290828704834
vt 0.32968372106552124 0.42744290828704834
vt 0.44988164305686951 0.49967649579048157
vt 0.4091126024723053 0.49967649579048157
vt 0.36939814686775208 0.49967649579048157
vt 0.32968372106552124 0.49967649579048157
vt 0.44988164305686951 0.57089316844940186
vt 0.4091126024723053 0.57089316844940186
vt 0.36939814686775208 0.57089316844940186
vt 0.32968372106552124 0.57089316844940186
vt 0.44988164305686951 0.64116436243057251
vt 0.4091126024723053 0.64116436243057251
vt 0.36939814686775208 0.64116436243057251
vt 0.32968372106552124 0.64116436243057251
vt 0.44988164305686951 0.71290439367294312
vt 0.4091126024723053 0.71290439367294312
vt 0.36939814686775208 0.71290439367294312
vt 0.32968372106552124 0.71290439367294312
vt 0.44988164305686951 0.7846146821975708
vt 0.4091126024723053 0.7846146821975708
vt 0.36939814686775208 0.7846146821975708
vt 0.32968372106552124 0.7846146821975708
vt 0.44988164305686951 0.85488581657409668
vt 0.4091126024723053 0.85488581657409668
vt 0.36939814686775208 0.85488581657409668
vt 0.32968372106552124 0.85488581657409668
vt 0.49256888031959534 0.92515695095062256
vt 0.44988164305686951 0.92515695095062256
vt 0.4091126024723053 0.92515695095062256
vt 0.36939814686775208 0.92515695095062256
vt 0.32968372106552124 0.92515695095062256
vt 0.49256888031959534 0.051397610455751419
vt 0.49256888031959534 0.10279522091150284
vt 0.49256888031959534 0.15419283509254456
vt 0.49256888031959534 0.20559044182300568
vt 0.49256888031959534 0.2569880485534668
vt 0.49256888031959534 0.30838567018508911
vt 0.49256888031959534 0.35978326201438904
vt 0.49256888031959534 0.41118088364601135
vt 0.49256888031959534 0.46257847547531128
vt 0.49256888031959534 0.51397609710693359
vt 0.49256888031959534 0.56537371873855591
vt 0.49256888031959534 0.61677134037017822
vt 0.49256888031959534 0.66816890239715576
vt 0.49256888031959534 0.71956652402877808
vt 0.49256888031959534 0.77096414566040039
vt 0.49256888031959534 0.82236176729202271
vt 0.49256888031959534 0.87375932931900024
vt 0.3169536292552948 0.31038305163383484
vt 0.31118854880332947 0.27411589026451111
vt 0.30907535552978516 0.23128923773765564
vt 0.31168702244758606 0.18332719802856445
vt 0.31878417730331421 0.14417093992233276
vt 0.319073885679245 0.14307902753353119
vt 0.31878417730331421 0.14257603883743286
vt 0.30734613537788391 0.11564471572637558
vt 0.29778009653091431 0.06866348534822464
vt 0.29388359189033508 0
vt 0.29388359189033508 0.92515695095062256
vt 0.29770201444625854 0.85660332441329956
vt 0.30718329548835754 0.80951237678527832
vt 0.30808025598526001 0.80669111013412476
vt 0.29877844452857971 0.76028740406036377
vt 0.29502764344215393 0.69386774301528931
vt 0.29793187975883484 0.63435977697372437
vt 0.3054579496383667 0.58994513750076294
vt 0.30181843042373657 0.57822310924530029
vt 0.29339459538459778 0.53116047382354736
vt 0.28996932506561279 0.46257847547531128
vt 0.29332557320594788 0.39410513639450073
vt 0.30167511105537415 0.34693384170532227
vt 0.99853515625 0
vt 0.89312803745269775 0
vt 0.78772091865539551 0
vt 0.89312803745269775 0.3427521288394928
vt 0.89312803745269775 0.57125353813171387
vt 0.89312803745269775 0.79975491762161255
vt 0.99853515625 0.91400563716888428
vt 0.89312803745269775 0.91400563716888428
vt 0.78772091865539551 0.91400563716888428
vt 0.94583159685134888 0.3427521288394928
vt 0.89312803745269775 0.28562676906585693
vt 0.94583159685134888 0.28562676906585693
vt 0.84042447805404663 0.3427521288394928
vt 0.84042447805404663 0.28562676906585693
vt 0.89312803745269775 0.62837886810302734
vt 0.94583159685134888 0.57125353813171387
vt 0.94583159685134888 0.62837886810302734
vt 0.84042447805404663 0.57125353813171387
vt 0.84042447805404663 0.62837886810302734
vt 0.94583159685134888 0.79975491762161255
vt 0.89312803745269775 0.74262958765029907
vt 0.94583159685134888 0.74262958765029907
vt 0.84042447805404663 0.79975491762161255
vt 0.84042447805404663 0.74262958765029907
vt 0.78772091865539551 0.86322754621505737
vt 0.78772091865539551 0.81244945526123047
vt 0.78772091865539551 0.76167136430740356
vt 0.78772091865539551 0.71089327335357666
vt 0.78772091865539551 0.66011518239974976
vt 0.78772091865539551 0.60933709144592285
vt 0.78772091865539551 0.55855900049209595
vt 0.78772091865539551 0.50778090953826904
vt 0.78772091865539551 0.45700281858444214
vt 0.78772091865539551 0.40622472763061523
vt 0.78772091865539551 0.35544663667678833
vt 0.78772091865539551 0.30466854572296143
vt 0.78772091865539551 0.25389045476913452
vt 0.78772091865539551 0.20311236381530762
vt 0.78772091865539551 0.15233427286148071
vt 0.78772091865539551 0.10155618190765381
vt 0.78772091865539551 0.050778090953826904
vt 0.99853515625 0.053765036165714264
vt 0.99853515625 0.10753007233142853
vt 0.99853515625 0.16129511594772339
vt 0.99853515625 0.21506014466285706
vt 0.99853515625 0.26882520318031311
vt 0.99853515625 0.32259023189544678
vt 0.99853515625 0.37635526061058044
vt 0.99853515625 0.43012028932571411
vt 0.99853515625 0.48388537764549255
vt 0.99853515625 0.53765040636062622
vt 0.99853515625 0.5914154052734375
vt 0.99853515625 0.64518046379089355
vt 0.99853515625 0.69894552230834961
vt 0.99853515625 0.75271052122116089
vt 0.99853515625 0.80647557973861694
vt 0.99853515625 0.86024057865142822
vt 0.88519579172134399 0.25500199198722839
vt 0.88519579172134399 0.22637766599655151
vt 0.88519579172134399 0.19775334000587463
vt 0.88519579172134399 0.71573323011398315
vt 0.88519579172134399 0.68710893392562866
vt 0.88519579172134399 0.65848457813262939
vt 0.80884766578674316 0.25500199198722839
vt 0.80884766578674316 0.65848457813262939
vt 0.80884766578674316 0.19775334000587463
vt 0.80884766578674316 0.22637766599655151
vt 0.80884766578674316 0.68710893392562866
vt 0.80884766578674316 0.71573323011398315
vt 0.89312803745269775 0.1713760644197464
vt 0.89312803745269775 0.11425070464611053
vt 0.89312803745269775 0.22850140929222107
vt 0.89312803745269775 0.45700281858444214
vt 0.89312803745269775 0.51412814855575562
vt 0.63990724086761475 0.69983541965484619
vt 0.58691734075546265 0.68978184461593628
vt 0.54111939668655396 0.66116911172866821
vt 0.50869864225387573 0.61786139011383057
vt 0.49403372406959534 0.5657077431678772
vt 0.49910515546798706 0.51175183057785034
vt 0.52322804927825928 0.46328058838844299
vt 0.5631445050239563 0.4268403947353363
vt 0.61346352100372314 0.40735268592834473
vt 0.66738927364349365 0.40744936466217041
vt 0.71763879060745239 0.42711740732192993
vt 0.75742554664611816 0.46370053291320801
vt 0.78137624263763428 0.51225793361663818
vt 0.78625607490539551 0.56623172760009766
vt 0.77140605449676514 0.61833244562149048
vt 0.73883175849914551 0.66152358055114746
vt 0.69293248653411865 0.689971923828125
vt 0.59528356790542603 0.52538663148880005
vt 0.59528356790542603 0.58304554224014282
vt 0.67177873849868774 0.58304554224014282
vt 0.67177873849868774 0.52538663148880005
vt 0.61989963054656982 0.16002571582794189
vt 0.73237723112106323 0.10236676782369614
vt 0.73559236526489258 0.13115976750850677
vt 0.73311620950698853 0.16002571582794189
vt 0.61989963054656982 0.10236676782369614
vt 0.61989963054656982 0
vt 0.73311620950698853 0
vt 0.73559236526489258 0.028865942731499672
vt 0.73237723112106323 0.05765894427895546
vt 0.61989963054656982 0.05765894427895546
vt 0.12427257001399994 0.61073148250579834
vt 0.20115116238594055 0.61073148250579834
vt 0.12427257001399994 0.45244741439819336
vt 0.12460228800773621 0.4523392915725708
vt 0.13859051465988159 0.44853717088699341
vt 0.15387006103992462 0.44604876637458801
vt 0.16932830214500427 0.44521218538284302
vt 0.18473018705844879 0.44603094458580017
vt 0.19995659589767456 0.44848951697349548
vt 0.20115116238594055 0.44875389337539673
vt 0.61462563276290894 0
vt 0.61462563276290894 0.099874190986156464
vt 0.58575969934463501 0.10235033929347992
vt 0.55696666240692139 0.099135242402553558
vt 0.55696666240692139 0
vt 0.28850448131561279 0.22260609269142151
vt 0 0.29948469996452332
vt 0.17585988342761993 0.22260609269142151
vt 0.28850448131561279 0.29948469996452332
vt 0.17585988342761993 0.29948469996452332
vt 0 0.22260609269142151
vt 0.099369660019874573 0.22260609269142151
vt 0.099369660019874573 0.29948469996452332
vt 0.5516926646232605 0
vt 0.5516926646232605 0.099135242402553558
vt 0.52289962768554688 0.10235033929347992
vt 0.49403372406959534 0.099874190986156464
vt 0.49403372406959534 0
vt 0.28849142789840698 0
vt 0 0.076878592371940613
vt 0.28849142789840698 0.076878592371940613
vt 0.17601384222507477 0.076878592371940613
vt 0.17601384222507477 0
vt 0.099135242402553558 0.076878592371940613
vt 0 0
vt 0.099135242402553558 0
vt 0.55696666240692139 0.19259612262248993
vt 0.55696666240692139 0.30672305822372437
vt 0.61462563276290894 0.19259612262248993
vt 0.61462563276290894 0.30672305822372437
vt 0 0.60688984394073486
vt 0.05765894427895546 0.60688984394073486
vt 0 0.4478280246257782
vt 0.013384728692471981 0.44587156176567078
vt 0.026895610615611076 0.44521218538284302
vt 0.04212319478392601 0.4460316002368927
vt 0.057172097265720367 0.44849765300750732
vt 0.05765894427895546 0.44860577583312988
vt 0.70381027460098267 0.20473353564739227
vt 0.70381027460098267 0.31886047124862671
vt 0.78068888187408447 0.20473353564739227
vt 0.78068888187408447 0.31886047124862671
vt 0.062136285006999969 0.61049634218215942
vt 0.11979522556066513 0.61049634218215942
vt 0.062136285006999969 0.4485187828540802
vt 0.07736070454120636 0.44604426622390747
vt 0.092762455344200134 0.44521218538284302
vt 0.10633905231952667 0.44584822654724121
vt 0.11979522556066513 0.44776132702827454
vt 0.49403372406959534 0.19259612262248993
vt 0.49403372406959534 0.30672305822372437
vt 0.5516926646232605 0.19259612262248993
vt 0.5516926646232605 0.30672305822372437
vt 0.20712095499038696 0.61147040128707886
vt 0.28399953246116638 0.61147040128707886
vt 0.20712095499038696 0.44873541593551636
vt 0.21181654930114746 0.44776219129562378
vt 0.22526893019676208 0.44585335254669189
vt 0.23884093761444092 0.44521218538284302
vt 0.25236374139785767 0.44583970308303833
vt 0.26576906442642212 0.44772574305534363
vt 0.28399953246116638 0.45240861177444458
vt 0.61989963054656982 0.20473353564739227
vt 0.61989963054656982 0.31886047124862671
vt 0.69677823781967163 0.20473353564739227
vt 0.69677823781967163 0.31886047124862671
vn 0.99999839067459106 3.2025312975747511E-05 -0.0017838310450315475
vn 0.96278351545333862 0.27025565505027771 0.0031339298002421856
vn 0.85003083944320679 0.5266730785369873 0.0079386169090867043
vn 0.66918265819549561 0.74299871921539307 0.012145040556788445
vn 0.43697851896286011 0.89934068918228149 0.015366212464869022
vn 0.85007119178771973 0.27833893895149231 -0.44710895419120789
vn 0.75051838159561157 0.53380972146987915 -0.38957580924034119
vn 0.59084194898605347 0.74861699342727661 -0.3007962703704834
vn 0.38582178950309753 0.90300941467285156 -0.18898551166057587
vn 0.53946793079376221 0.28453925251960754 -0.79247194528579712
vn 0.47629022598266602 0.53928393125534058 -0.69449293613433838
vn 0.37495717406272888 0.7529265284538269 -0.54084080457687378
vn 0.24484828114509583 0.90582358837127686 -0.34573540091514587
vn 0.11289309710264206 0.28738781809806824 -0.9511379599571228
vn 0.09967205673456192 0.54179888963699341 -0.83457744121551514
vn 0.078466340899467468 0.75490641593933105 -0.65112161636352539
vn 0.051238782703876495 0.90711647272109985 -0.41774913668632507
vn -0.35389354825019836 0.28629720211029053 -0.89038938283920288
vn -0.31244868040084839 0.54083597660064697 -0.78094321489334106
vn -0.24597370624542236 0.75414836406707764 -0.6088983416557312
vn -0.16062164306640625 0.90662145614624023 -0.39017719030380249
vn -0.72757059335708618 0.28154337406158447 -0.625599205493927
vn -0.64236396551132202 0.53663891553878784 -0.54716289043426514
vn -0.50569790601730347 0.75084424018859863 -0.42485591769218445
vn -0.33022242784500122 0.90446382761001587 -0.26999688148498535
vn -0.93590849637985229 0.27427977323532104 -0.22101099789142609
vn -0.82630324363708496 0.53022593259811401 -0.18995644152164459
vn -0.65050321817398071 0.74579566717147827 -0.14364688098430634
vn -0.42478075623512268 0.90116709470748901 -0.086366437375545502
vn -0.93195837736129761 0.26588663458824158 0.2464911937713623
vn -0.8228156566619873 0.5228157639503479 0.22279603779315948
vn -0.64775764942169189 0.73996204137802124 0.18129050731658936
vn -0.42298790812492371 0.89735770225524902 0.12581877410411835
vn -0.71267110109329224 0.25860485434532166 0.6520916223526001
vn -0.62920939922332764 0.51638674736022949 0.58089613914489746
vn -0.49534201622009277 0.7349008321762085 0.4632030725479126
vn -0.32345998287200928 0.89405274391174316 0.30990859866142273
vn -0.33569252490997314 0.25402715802192688 0.90707260370254517
vn -0.2963792085647583 0.51234513521194458 0.80601602792739868
vn -0.23332309722900391 0.73171907663345337 0.64042758941650391
vn -0.15236075222492218 0.8919750452041626 0.42563682794570923
vn 0.12583217024803162 0.25309085845947266 0.95922428369522095
vn 0.11109582334756851 0.51151847839355469 0.85206019878387451
vn 0.087459646165370941 0.73106831312179565 0.67667561769485474
vn 0.057111442089080811 0.89155012369155884 0.4493069052696228
vn 0.55791431665420532 0.2561400830745697 0.78938192129135132
vn 0.49257636070251465 0.51421058177947998 0.70210826396942139
vn 0.38777834177017212 0.73318767547607422 0.55862671136856079
vn 0.25322055816650391 0.89293402433395386 0.37222057580947876
vn 0.8559945821762085 0.26231393218040466 0.44549369812011719
vn 0.75574815273284912 0.51966142654418945 0.39849314093589783
vn 0.59495902061462402 0.73747879266738892 0.3196071982383728
vn 0.38851022720336914 0.89573615789413452 0.216140016913414
vn 0.99999839067459106 3.2025312975747511E-05 -0.0017838310450315475
vn 0.96278351545333862 0.27025565505027771 0.0031339298002421856
vn 0.85003083944320679 0.5266730785369873 0.0079386169090867043
vn 0.66918265819549561 0.74299871921539307 0.012145040556788445
vn 0.43697851896286011 0.89934068918228149 0.015366212464869022
vn 0.93908089399337769 0.0061694197356700897 -0.34364074468612671
vn 0.76489639282226562 0.011562691070139408 -0.64404952526092529
vn 0.49845412373542786 0.015561331063508987 -0.86677640676498413
vn 0.17189088463783264 0.017683044075965881 -0.98495727777481079
vn -0.17540492117404938 0.017671922221779823 -0.98433774709701538
vn -0.5015442967414856 0.015529305674135685 -0.86499255895614624
vn -0.76719003915786743 0.011513625271618366 -0.64131653308868408
vn -0.94030135869979858 0.0061092316173017025 -0.34028825163841248
vn -0.99999839067459106 -3.2025312975747511E-05 0.0017838310450315475
vn -0.93908089399337769 -0.0061694197356700897 0.34364074468612671
vn -0.76489639282226562 -0.011562691070139408 0.64404952526092529
vn -0.49845412373542786 -0.015561331063508987 0.86677640676498413
vn -0.17189088463783264 -0.017683044075965881 0.98495727777481079
vn 0.17540492117404938 -0.017671922221779823 0.98433774709701538
vn 0.5015442967414856 -0.015529305674135685 0.86499255895614624
vn 0.76719003915786743 -0.011513625271618366 0.64131653308868408
vn 0.94030135869979858 -0.0061092316173017025 0.34028825163841248
vn -0.18292234838008881 0.93966931104660034 -0.28906914591789246
vn -0.092161580920219421 0.95293402671813965 -0.28883028030395508
vn -0.00054574152454733849 0.9574047327041626 -0.28874883055686951
vn 0.1027107834815979 0.95184898376464844 -0.28884953260421753
vn 0.20475615561008453 0.93512934446334839 -0.28915050625801086
vn 0.20805752277374268 0.93439626693725586 -0.28916382789611816
vn 0.20805749297142029 0.93508917093276978 -0.28691518306732178
vn 0.20805586874485016 0.95916473865509033 -0.19161354005336761
vn 0.20805516839027405 0.97417581081390381 -0.087718397378921509
vn 0.20805752277374268 0.9779655933380127 0.017186261713504791
vn 0.20805752277374268 0.9779655933380127 0.017186261713504791
vn 0.20805729925632477 0.97053998708724976 0.1215084120631218
vn 0.2080572098493576 0.95201802253723145 0.2244412750005722
vn 0.20805752277374268 0.95007997751235962 0.23250825703144073
vn 0.10482202470302582 0.96685689687728882 0.2328091561794281
vn 0.00038432859582826495 0.97249817848205566 0.23291023075580597
vn -0.091677188873291016 0.96818596124649048 0.23283299803733826
vn -0.18292234838008881 0.95521539449691772 0.23260045051574707
vn -0.18292234838008881 0.96238517761230469 0.20088361203670502
vn -0.18292100727558136 0.97696447372436523 0.10991064459085464
vn -0.18291984498500824 0.98296350240707397 0.017973653972148895
vn -0.18292008340358734 0.98035514354705811 -0.073783747851848602
vn -0.18292206525802612 0.96919947862625122 -0.16489978134632111
vn 0.99999839067459106 3.2025312975747511E-05 -0.0017838310450315475
vn 0.99999839067459106 3.2025312975747511E-05 -0.0017838310450315475
vn 0.99999839067459106 3.2025312975747511E-05 -0.0017838310450315475
vn -0.70836722850799561 0.012670054100453854 -0.7057303786277771
vn -0.70584410429000854 -0.012715344317257404 0.70825308561325073
vn 0.70836722850799561 -0.012670054100453854 0.7057303786277771
vn 0.99999839067459106 3.2025312975747511E-05 -0.0017838310450315475
vn 0.99999839067459106 3.2025312975747511E-05 -0.0017838310450315475
vn 0.99999839067459106 3.2025312975747511E-05 -0.0017838310450315475
vn -0.70836722850799561 0.012670054100453854 -0.7057303786277771
vn -0.38433113694190979 0.016571555286645889 -0.92304658889770508
vn -0.38433113694190979 0.016571555286645889 -0.92304658889770508
vn -0.70836722850799561 0.012670054100453854 -0.7057303786277771
vn -0.38433113694190979 0.016571555286645889 -0.92304658889770508
vn -0.38103452324867249 -0.016596065834164619 0.9244118332862854
vn -0.70584410429000854 -0.012715344317257404 0.70825308561325073
vn -0.38103452324867249 -0.016596065834164619 0.9244118332862854
vn -0.70584410429000854 -0.012715344317257404 0.70825308561325073
vn -0.38103452324867249 -0.016596065834164619 0.9244118332862854
vn 0.70836722850799561 -0.012670054100453854 0.7057303786277771
vn 0.38433113694190979 -0.016571555286645889 0.92304658889770508
vn 0.38433113694190979 -0.016571555286645889 0.92304658889770508
vn 0.70836722850799561 -0.012670054100453854 0.7057303786277771
vn 0.38433113694190979 -0.016571555286645889 0.92304658889770508
vn 0.94030135869979858 -0.0061092316173017025 0.34028825163841248
vn 0.76719003915786743 -0.011513625271618366 0.64131653308868408
vn 0.5015442967414856 -0.015529305674135685 0.86499255895614624
vn 0.17540492117404938 -0.017671922221779823 0.98433774709701538
vn -0.17189088463783264 -0.017683044075965881 0.98495727777481079
vn -0.49845412373542786 -0.015561331063508987 0.86677640676498413
vn -0.76489639282226562 -0.011562691070139408 0.64404952526092529
vn -0.93908089399337769 -0.0061694197356700897 0.34364074468612671
vn -0.99999839067459106 -3.2025312975747511E-05 0.0017838310450315475
vn -0.94030135869979858 0.0061092316173017025 -0.34028825163841248
vn -0.76719003915786743 0.011513625271618366 -0.64131653308868408
vn -0.5015442967414856 0.015529305674135685 -0.86499255895614624
vn -0.17540492117404938 0.017671922221779823 -0.98433774709701538
vn 0.17189088463783264 0.017683044075965881 -0.98495727777481079
vn 0.49845412373542786 0.015561331063508987 -0.86677640676498413
vn 0.76489639282226562 0.011562691070139408 -0.64404952526092529
vn 0.93908089399337769 0.0061694197356700897 -0.34364074468612671
vn 0.93182623386383057 0.0065142181701958179 -0.3628462553024292
vn 0.73780578374862671 0.012116629630327225 -0.67490428686141968
vn 0.44414058327674866 0.016082623973488808 -0.8958127498626709
vn 0.090491704642772675 0.017876569181680679 -0.99573677778244019
vn -0.27537855505943298 0.017256185412406921 -0.96118098497390747
vn -0.6040574312210083 0.014305259101092815 -0.79681235551834106
vn -0.85115498304367065 0.0094223273918032646 -0.52482986450195312
vn -0.9832993745803833 0.0032668581698089838 -0.1819661557674408
vn -0.982643723487854 -0.003329818369820714 0.18547308444976807
vn -0.84927654266357422 -0.0094767846167087555 0.52786314487457275
vn -0.60120993852615356 -0.014343857765197754 0.79896235466003418
vn -0.27194654941558838 -0.017273714765906334 0.96215730905532837
vn 0.094044722616672516 -0.017870659008622169 0.9954075813293457
vn 0.44733473658561707 -0.016054073348641396 0.89422249794006348
vn 0.74020969867706299 -0.012069296091794968 0.67226773500442505
vn 0.93311524391174316 -0.0064544929191470146 0.35951951146125793
vn -0.18292234838008881 0.017647348344326019 -0.98296898603439331
vn 0.01281487662345171 0.017948741093277931 -0.99975675344467163
vn 0.20805752277374268 0.017557403072714806 -0.97795897722244263
vn 0.20805752277374268 -0.017557403072714806 0.97795897722244263
vn 0.01281487662345171 -0.017948741093277931 0.99975675344467163
vn -0.18292234838008881 -0.017647348344326019 0.98296898603439331
vn -0.18292234838008881 0.017647348344326019 -0.98296898603439331
vn -0.18292234838008881 -0.017647348344326019 0.98296898603439331
vn 0.20805752277374268 0.017557403072714806 -0.97795897722244263
vn 0.01281487662345171 0.017948741093277931 -0.99975675344467163
vn 0.01281487662345171 -0.017948741093277931 0.99975675344467163
vn 0.20805752277374268 -0.017557403072714806 0.97795897722244263
vn 0.38103452324867249 0.016596065834164619 -0.9244118332862854
vn 0.70584410429000854 0.012715344317257404 -0.70825308561325073
vn -0.0017841184744611382 0.017950186505913734 -0.99983727931976318
vn -0.99999839067459106 -3.2025312975747511E-05 0.0017838310450315475
vn -0.92319530248641968 -0.0068988269194960594 0.38426920771598816
vn 0 -0.99983888864517212 -0.017950216308236122
vn 0 -0.99983888864517212 -0.017950216308236122
vn 0 -0.99983888864517212 -0.017950216308236122
vn 0 -0.99983888864517212 -0.017950216308236122
vn 0 -0.99983888864517212 -0.017950216308236122
vn 0 -0.99983888864517212 -0.017950216308236122
vn 0 -0.99983888864517212 -0.017950216308236122
vn 0 -0.99983888864517212 -0.017950216308236122
vn 0 -0.99983888864517212 -0.017950216308236122
vn 0 -0.99983888864517212 -0.017950216308236122
vn 0 -0.99983888864517212 -0.017950216308236122
vn 0 -0.99983888864517212 -0.017950216308236122
vn 0 -0.99983888864517212 -0.017950216308236122
vn 0 -0.99983888864517212 -0.017950216308236122
vn 0 -0.99983888864517212 -0.017950216308236122
vn 0 -0.99983888864517212 -0.017950216308236122
vn 0 -0.99983888864517212 -0.017950216308236122
vn 0 -0.99983888864517212 -0.017950216308236122
vn 0 -0.99983888864517212 -0.017950216308236122
vn 0 -0.99983888864517212 -0.017950216308236122
vn 0 -0.99983888864517212 -0.017950216308236122
vn 0 0.99983888864517212 0.017950216308236122
vn 0 0.99983888864517212 0.017950216308236122
vn 0 0.99983888864517212 0.017950216308236122
vn 0 0.99983888864517212 0.017950216308236122
vn 0 0.99983888864517212 0.017950216308236122
vn 0 -0.99983888864517212 -0.017950216308236122
vn 0 -0.99983888864517212 -0.017950216308236122
vn 0 -0.99983888864517212 -0.017950216308236122
vn 0 -0.99983888864517212 -0.017950216308236122
vn 0 -0.99983888864517212 -0.017950216308236122
vn -1 0 0
vn -1 0 0
vn -1 0 0
vn -1 0 0
vn -1 0 0
vn -1 0 0
vn -1 0 0
vn -1 0 0
vn -1 0 0
vn -1 0 0
vn 0 0.99983888864517212 0.017950216308236122
vn 0 0.99983888864517212 0.017950216308236122
vn 0 0.99983888864517212 0.017950216308236122
vn 0 0.99983888864517212 0.017950216308236122
vn 0 0.99983888864517212 0.017950216308236122
vn 1 0 0
vn 1 0 0
vn 1 0 0
vn 1 0 0
vn 1 0 0
vn 1 0 0
vn 1 0 0
vn 1 0 0
vn 0 -0.99983888864517212 -0.017950216308236122
vn 0 -0.99983888864517212 -0.017950216308236122
vn 0 -0.99983888864517212 -0.017950216308236122
vn 0 -0.99983888864517212 -0.017950216308236122
vn 0 -0.99983888864517212 -0.017950216308236122
vn -1 0 0
vn -1 0 0
vn -1 0 0
vn -1 0 0
vn -1 0 0
vn -1 0 0
vn -1 0 0
vn -1 0 0
vn 0 -0.017950216308236122 0.99983888864517212
vn 0 -0.017950216308236122 0.99983888864517212
vn 0 -0.017950216308236122 0.99983888864517212
vn 0 -0.017950216308236122 0.99983888864517212
vn 0 -0.017950216308236122 0.99983888864517212
vn 0 -0.017950216308236122 0.99983888864517212
vn 0 -0.017950216308236122 0.99983888864517212
vn 0 -0.017950216308236122 0.99983888864517212
vn 0 -0.017950216308236122 0.99983888864517212
vn 0 -0.017950216308236122 0.99983888864517212
vn 0 -0.017950216308236122 0.99983888864517212
vn 0 -0.017950216308236122 0.99983888864517212
vn -1 0 0
vn -1 0 0
vn -1 0 0
vn -1 0 0
vn 0 0.017950216308236122 -0.99983888864517212
vn 0 0.017950216308236122 -0.99983888864517212
vn 0 0.017950216308236122 -0.99983888864517212
vn 0 0.017950216308236122 -0.99983888864517212
vn 0 0.017950216308236122 -0.99983888864517212
vn 0 0.017950216308236122 -0.99983888864517212
vn 0 0.017950216308236122 -0.99983888864517212
vn 0 0.017950216308236122 -0.99983888864517212
vn 0 0.017950216308236122 -0.99983888864517212
vn 0 0.017950216308236122 -0.99983888864517212
vn 0 0.017950216308236122 -0.99983888864517212
vn 1 0 0
vn 1 0 0
vn 1 0 0
vn 1 0 0
vn 1 0 0
vn 1 0 0
vn 1 0 0
vn 1 0 0
vn 1 0 0
vn 1 0 0
vn 1 0 0
vn 1 0 0
vn 1 0 0
f 7/7/7 3/3/3 2/2/2 6/6/6
f 8/8/8 4/4/4 3/3/3 7/7/7
f 9/9/9 5/5/5 4/4/4 8/8/8
f 11/11/11 7/7/7 6/6/6 10/10/10
f 12/12/12 8/8/8 7/7/7 11/11/11
f 13/13/13 9/9/9 8/8/8 12/12/12
f 15/15/15 11/11/11 10/10/10 14/14/14
f 16/16/16 12/12/12 11/11/11 15/15/15
f 17/17/17 13/13/13 12/12/12 16/16/16
f 19/19/19 15/15/15 14/14/14 18/18/18
f 20/20/20 16/16/16 15/15/15 19/19/19
f 21/21/21 17/17/17 16/16/16 20/20/20
f 23/23/23 19/19/19 18/18/18 22/22/22
f 24/24/24 20/20/20 19/19/19 23/23/23
f 25/25/25 21/21/21 20/20/20 24/24/24
f 27/27/27 23/23/23 22/22/22 26/26/26
f 28/28/28 24/24/24 23/23/23 27/27/27
f 29/29/29 25/25/25 24/24/24 28/28/28
f 31/31/31 27/27/27 26/26/26 30/30/30
f 32/32/32 28/28/28 27/27/27 31/31/31
f 33/33/33 29/29/29 28/28/28 32/32/32
f 35/35/35 31/31/31 30/30/30 34/34/34
f 36/36/36 32/32/32 31/31/31 35/35/35
f 37/37/37 33/33/33 32/32/32 36/36/36
f 39/39/39 35/35/35 34/34/34 38/38/38
f 40/40/40 36/36/36 35/35/35 39/39/39
f 41/41/41 37/37/37 36/36/36 40/40/40
f 43/43/43 39/39/39 38/38/38 42/42/42
f 44/44/44 40/40/40 39/39/39 43/43/43
f 45/45/45 41/41/41 40/40/40 44/44/44
f 47/47/47 43/43/43 42/42/42 46/46/46
f 48/48/48 44/44/44 43/43/43 47/47/47
f 49/49/49 45/45/45 44/44/44 48/48/48
f 51/51/51 47/47/47 46/46/46 50/50/50
f 52/52/52 48/48/48 47/47/47 51/51/51
f 53/53/53 49/49/49 48/48/48 52/52/52
f 56/56/56 51/51/51 50/50/50 55/55/55
f 57/57/57 52/52/52 51/51/51 56/56/56
f 58/58/58 53/53/53 52/52/52 57/57/57
f 1/1/1 59/59/59 6/6/6 2/2/2
f 10/10/10 60/60/60 61/61/61
f 6/6/6 59/59/59 60/60/60
f 60/60/60 10/10/10 6/6/6
f 14/14/14 10/10/10 61/61/61 62/62/62
f 14/14/14 62/62/62 63/63/63
f 64/64/64 65/65/65 22/22/22 18/18/18
f 18/18/18 63/63/63 64/64/64
f 18/18/18 14/14/14 63/63/63
f 26/26/26 22/22/22 65/65/65 66/66/66
f 67/67/67 26/26/26 66/66/66
f 82/82/82 83/83/83 13/13/13
f 9/9/9 13/13/13 83/83/83
f 80/80/80 81/81/81 13/13/13
f 82/82/82 13/13/13 81/81/81
f 85/85/85 5/5/5 84/84/84
f 9/9/9 83/83/83 84/84/84
f 13/13/13 79/79/79 80/80/80
f 79/79/79 13/13/13 17/17/17
f 9/9/9 84/84/84 5/5/5
f 78/78/78 17/17/17 21/21/21
f 97/97/97 25/25/25 29/29/29
f 76/76/76 21/21/21 25/25/25
f 77/77/77 78/78/78 21/21/21
f 76/76/76 25/25/25 98/98/98
f 97/97/97 98/98/98 25/25/25
f 77/77/77 21/21/21 76/76/76
f 97/97/97 29/29/29 96/96/96
f 79/79/79 17/17/17 78/78/78
f 30/30/30 67/67/67 68/68/68
f 69/69/69 70/70/70 38/38/38 34/34/34
f 68/68/68 69/69/69 34/34/34 30/30/30
f 42/42/42 38/38/38 71/71/71 72/72/72
f 70/70/70 71/71/71 38/38/38
f 72/72/72 73/73/73 46/46/46 42/42/42
f 50/50/50 74/74/74 75/75/75
f 46/46/46 73/73/73 74/74/74
f 55/55/55 50/50/50 75/75/75 54/54/54
f 74/74/74 50/50/50 46/46/46
f 37/37/37 95/95/95 33/33/33
f 92/92/92 93/93/93 41/41/41
f 37/37/37 41/41/41 93/93/93
f 93/93/93 94/94/94 37/37/37
f 95/95/95 96/96/96 33/33/33
f 91/91/91 92/92/92 41/41/41
f 95/95/95 37/37/37 94/94/94
f 91/91/91 41/41/41 45/45/45
f 33/33/33 96/96/96 29/29/29
f 90/90/90 45/45/45 49/49/49
f 87/87/87 53/53/53 58/58/58
f 89/89/89 49/49/49 53/53/53
f 49/49/49 89/89/89 90/90/90
f 89/89/89 53/53/53 88/88/88
f 88/88/88 53/53/53 87/87/87
f 87/87/87 58/58/58 86/86/86
f 91/91/91 45/45/45 90/90/90
f 67/67/67 30/30/30 26/26/26
f 102/102/102 109/109/109 110/110/110 108/108/108
f 111/111/111 112/112/112 109/109/109 102/102/102
f 113/113/113 103/103/103 114/114/114 115/115/115
f 117/117/117 116/116/116 103/103/103 113/113/113
f 104/104/104 119/119/119 120/120/120 118/118/118
f 121/121/121 122/122/122 119/119/119 104/104/104
f 100/100/100 99/99/99 140/140/140
f 141/141/141 142/142/142 168/168/168 169/169/169
f 169/169/169 140/140/140 141/141/141
f 100/100/100 169/169/169 138/138/138 139/139/139
f 169/169/169 100/100/100 140/140/140
f 170/170/170 168/168/168 142/142/142 143/143/143
f 144/144/144 170/170/170 143/143/143
f 158/158/158 168/168/168 170/170/170
f 169/169/169 168/168/168 137/137/137 138/138/138
f 144/144/144 145/145/145 108/108/108 110/110/110
f 171/171/171 102/102/102 146/146/146 147/147/147
f 108/108/108 145/145/145 146/146/146
f 110/110/110 109/109/109 170/170/170
f 108/108/108 146/146/146 102/102/102
f 148/148/148 171/171/171 147/147/147
f 144/144/144 110/110/110 170/170/170
f 156/156/156 170/170/170 109/109/109
f 168/168/168 164/164/164 137/137/137
f 158/158/158 170/170/170 157/157/157
f 136/136/136 164/164/164 165/165/165
f 139/139/139 101/101/101 100/100/100
f 164/164/164 136/136/136 137/137/137
f 136/136/136 165/165/165 135/135/135
f 158/158/158 164/164/164 168/168/168
f 165/165/165 162/162/162 135/135/135
f 162/162/162 156/156/156 109/109/109 112/112/112
f 111/111/111 102/102/102 132/132/132
f 134/134/134 162/162/162 112/112/112
f 156/156/156 157/157/157 170/170/170
f 112/112/112 111/111/111 133/133/133 134/134/134
f 162/162/162 134/134/134 135/135/135
f 111/111/111 132/132/132 133/133/133
f 171/171/171 131/131/131 132/132/132
f 130/130/130 131/131/131 171/171/171 172/172/172
f 132/132/132 102/102/102 171/171/171
f 172/172/172 171/171/171 148/148/148 149/149/149
f 114/114/114 149/149/149 150/150/150
f 152/152/152 113/113/113 115/115/115
f 150/150/150 151/151/151 115/115/115 114/114/114
f 103/103/103 172/172/172 114/114/114
f 149/149/149 114/114/114 172/172/172
f 152/152/152 115/115/115 151/151/151
f 116/116/116 172/172/172 103/103/103
f 120/120/120 119/119/119 152/152/152
f 153/153/153 154/154/154 118/118/118 120/120/120
f 106/106/106 155/155/155 105/105/105
f 118/118/118 154/154/154 155/155/155
f 119/119/119 113/113/113 152/152/152
f 118/118/118 155/155/155 104/104/104
f 106/106/106 104/104/104 155/155/155
f 123/123/123 104/104/104 106/106/106
f 152/152/152 153/153/153 120/120/120
f 159/159/159 160/160/160 119/119/119
f 116/116/116 117/117/117 128/128/128 129/129/129
f 161/161/161 163/163/163 117/117/117 113/113/113
f 163/163/163 128/128/128 117/117/117
f 129/129/129 130/130/130 116/116/116
f 128/128/128 163/163/163 127/127/127
f 126/126/126 127/127/127 166/166/166
f 166/166/166 127/127/127 163/163/163
f 172/172/172 116/116/116 130/130/130
f 160/160/160 161/161/161 113/113/113
f 122/122/122 125/125/125 167/167/167
f 167/167/167 159/159/159 119/119/119 122/122/122
f 122/122/122 121/121/121 124/124/124 125/125/125
f 166/166/166 167/167/167 126/126/126
f 167/167/167 125/125/125 126/126/126
f 121/121/121 123/123/123 124/124/124
f 104/104/104 123/123/123 121/121/121
f 106/106/106 107/107/107 123/123/123
f 119/119/119 160/160/160 113/113/113
f 190/190/190 179/179/179 178/178/178
f 190/190/190 181/181/181 180/180/180
f 179/179/179 190/190/190 180/180/180
f 177/177/177 190/190/190 178/178/178
f 191/191/191 177/177/177 176/176/176
f 174/174/174 191/191/191 175/175/175
f 176/176/176 175/175/175 191/191/191
f 191/191/191 174/174/174 173/173/173
f 191/191/191 190/190/190 177/177/177
f 181/181/181 190/190/190 193/193/193
f 183/183/183 182/182/182 193/193/193
f 193/193/193 185/185/185 184/184/184
f 183/183/183 193/193/193 184/184/184
f 186/186/186 185/185/185 193/193/193
f 189/189/189 192/192/192 173/173/173
f 192/192/192 191/191/191 173/173/173
f 188/188/188 192/192/192 189/189/189
f 188/188/188 187/187/187 192/192/192
f 186/186/186 192/192/192 187/187/187
f 186/186/186 193/193/193 192/192/192
f 182/182/182 181/181/181 193/193/193
f 196/196/196 195/195/195 198/198/198
f 194/194/194 197/197/197 196/196/196
f 198/198/198 194/194/194 196/196/196
f 201/201/201 200/200/200 199/199/199
f 203/203/203 202/202/202 201/201/201
f 199/199/199 203/203/203 201/201/201
f 204/204/204 209/209/209 208/208/208
f 204/204/204 207/207/207 206/206/206
f 208/208/208 207/207/207 204/204/204
f 204/204/204 205/205/205 209/209/209
f 205/205/205 211/211/211 210/210/210
f 205/205/205 213/213/213 212/212/212
f 211/211/211 205/205/205 212/212/212
f 209/209/209 205/205/205 210/210/210
f 216/216/216 218/218/218 217/217/217
f 215/215/215 214/214/214 216/216/216
f 218/218/218 216/216/216 214/214/214
f 221/221/221 223/223/223 222/222/222 219/219/219
f 224/224/224 220/220/220 226/226/226 225/225/225
f 225/225/225 226/226/226 223/223/223 221/221/221
f 229/229/229 231/231/231 230/230/230
f 228/228/228 227/227/227 229/229/229
f 231/231/231 229/229/229 227/227/227
f 236/236/236 235/235/235 234/234/234 232/232/232
f 238/238/238 233/233/233 237/237/237 239/239/239
f 239/239/239 237/237/237 235/235/235 236/236/236
f 241/241/241 243/243/243 242/242/242 240/240/240
f 244/244/244 248/248/248 247/247/247
f 247/247/247 246/246/246 244/244/244
f 244/244/244 245/245/245 248/248/248
f 245/245/245 250/250/250 249/249/249
f 250/250/250 245/245/245 251/251/251
f 248/248/248 245/245/245 249/249/249
f 253/253/253 255/255/255 254/254/254 252/252/252
f 256/256/256 259/259/259 258/258/258
f 260/260/260 259/259/259 256/256/256
f 257/257/257 261/261/261 260/260/260
f 261/261/261 257/257/257 262/262/262
f 256/256/256 257/257/257 260/260/260
f 264/264/264 266/266/266 265/265/265 263/263/263
f 267/267/267 271/271/271 270/270/270
f 270/270/270 269/269/269 267/267/267
f 267/267/267 272/272/272 271/271/271
f 267/267/267 268/268/268 273/273/273
f 268/268/268 275/275/275 274/274/274
f 273/273/273 268/268/268 274/274/274
f 272/272/272 267/267/267 273/273/273
f 277/277/277 279/279/279 278/278/278 276/276/276
