# Rhino

o object_1
v -4047.86279296875 266.70913696289062 -24401.994140625
v -4042.683837890625 265.69351196289062 -24400.7578125
v -4037.912841796875 262.47235107421875 -24399.623046875
v -4034.778076171875 257.5684814453125 -24398.8828125
v -4033.7880859375 252.24392700195312 -24398.65625
v -4043.8798828125 264.6605224609375 -24395.75390625
v -4038.822509765625 261.68679809570312 -24395.818359375
v -4035.25146484375 257.1595458984375 -24396.90234375
v -4033.7880859375 252.24392700195312 -24398.65625
v -4044.89306640625 261.73724365234375 -24391.515625
v -4039.59326171875 259.463623046875 -24392.59375
v -4035.652587890625 256.00222778320312 -24395.224609375
v -4033.7880859375 252.24392700195312 -24398.65625
v -4045.569091796875 257.36868286132812 -24388.6875
v -4040.107177734375 256.14132690429688 -24390.443359375
v -4035.92041015625 254.27276611328125 -24394.103515625
v -4033.7880859375 252.24392700195312 -24398.65625
v -4045.804931640625 252.21992492675781 -24387.701171875
v -4040.28662109375 252.22567749023438 -24389.693359375
v -4036.013671875 252.23442077636719 -24393.712890625
v -4033.7880859375 252.24392700195312 -24398.65625
v -4045.56494140625 247.0748291015625 -24388.705078125
v -4040.10400390625 248.31280517578125 -24390.45703125
v -4035.918701171875 250.19752502441406 -24394.111328125
v -4033.7880859375 252.24392700195312 -24398.65625
v -4044.88525390625 242.7166748046875 -24391.548828125
v -4039.587158203125 244.9984130859375 -24392.619140625
v -4035.649658203125 248.47216796875 -24395.236328125
v -4033.7880859375 252.24392700195312 -24398.65625
v -4042.672607421875 238.79434204101562 -24400.8046875
v -4037.904541015625 242.01548767089844 -24399.658203125
v -4034.773681640625 246.91935729980469 -24398.90234375
v -4040.46337890625 242.7506103515625 -24410.046875
v -4036.22412109375 245.02423095703125 -24406.6875
v -4033.89892578125 248.48561096191406 -24402.560546875
v -4033.7880859375 252.24392700195312 -24398.65625
v -4039.787353515625 247.11915588378906 -24412.875
v -4035.710205078125 248.34652709960938 -24408.83984375
v -4033.63134765625 250.21507263183594 -24403.6796875
v -4033.7880859375 252.24392700195312 -24398.65625
v -4039.551513671875 252.26791381835938 -24413.86328125
v -4035.53076171875 252.26217651367188 -24409.58984375
v -4033.537841796875 252.25341796875 -24404.0703125
v -4033.7880859375 252.24392700195312 -24398.65625
v -4039.79150390625 257.41302490234375 -24412.857421875
v -4035.71337890625 256.175048828125 -24408.826171875
v -4033.633056640625 254.29032897949219 -24403.673828125
v -4033.7880859375 252.24392700195312 -24398.65625
v -4040.47119140625 261.77117919921875 -24410.013671875
v -4036.230224609375 259.48944091796875 -24406.6640625
v -4033.902099609375 256.01568603515625 -24402.546875
v -4033.7880859375 252.24392700195312 -24398.65625
v -4047.86279296875 266.70913696289062 -24401.994140625
v -4042.683837890625 265.69351196289062 -24400.7578125
v -4037.912841796875 262.47235107421875 -24399.623046875
v -4034.778076171875 257.5684814453125 -24398.8828125
v -4033.7880859375 252.24392700195312 -24398.65625
v -4045.291015625 238.02021789550781 -24401.431640625
v -4043.86962890625 239.8089599609375 -24395.796875
v -4047.630859375 242.16828918457031 -24391.642578125
v -4046.556884765625 239.09321594238281 -24396.13671875
v -4040.1533203125 240.13661193847656 -24400.19921875
v -4038.814697265625 242.78709411621094 -24395.8515625
v -4042.14501953125 243.66749572753906 -24391.8671875
v -4041.230712890625 241.04995727539062 -24395.69140625
v -4036.078125 244.32843017578125 -24399.21875
v -4035.24755859375 247.32102966308594 -24396.919921875
v -4037.380126953125 246.6368408203125 -24393.76953125
v -4036.782470703125 244.92555236816406 -24396.271484375
v -4042.954345703125 242.20417785644531 -24411.20703125
v -4041.4765625 239.82731628417969 -24405.80859375
v -4044.02587890625 239.11264038085938 -24406.724609375
v -4038.164306640625 243.69804382324219 -24408.51953125
v -4036.994873046875 242.80105590820312 -24403.46484375
v -4039.076416015625 241.06649780273438 -24404.705078125
v -4034.77783203125 246.65679931640625 -24404.658203125
v -4034.300048828125 247.32830810546875 -24400.8828125
v -4035.3740234375 244.93635559082031 -24402.1640625
v -4033.58935546875 250.38604736328125 -24400.525390625
v -4033.7880859375 252.24392700195312 -24398.65625
v -4034.021728515625 249.61178588867188 -24398.716796875
v -4033.78759765625 249.81394958496094 -24399.697265625
v -4040.163330078125 264.35122680664062 -24400.158203125
v -4037.002685546875 261.70074462890625 -24403.431640625
v -4038.17138671875 260.82034301757812 -24408.490234375
v -4041.48681640625 264.67889404296875 -24405.765625
v -4039.085693359375 263.43789672851562 -24404.666015625
v -4036.084716796875 260.159423828125 -24399.19140625
v -4034.30419921875 257.16680908203125 -24400.865234375
v -4034.782470703125 257.85101318359375 -24404.638671875
v -4035.380126953125 259.56228637695312 -24402.138671875
v -4041.239990234375 263.42135620117188 -24395.65234375
v -4038.376708984375 262.27227783203125 -24397.68359375
v -4040.163330078125 264.35122680664062 -24400.158203125
v -4043.293701171875 265.43038940429688 -24398.20703125
v -4040.71240234375 264.1143798828125 -24397.861328125
v -4036.78857421875 259.55148315429688 -24396.24609375
v -4035.01953125 257.46432495117188 -24397.873046875
v -4036.084716796875 260.159423828125 -24399.19140625
v -4036.443603515625 260.00457763671875 -24397.689453125
v -4049.0126953125 265.82794189453125 -24397.18359375
v -4050.023193359375 263.30831909179688 -24392.95703125
v -4050.772216796875 259.45416259765625 -24389.822265625
v -4051.169677734375 254.73036193847656 -24388.16015625
v -4051.167724609375 249.70664978027344 -24388.16796875
v -4050.766357421875 244.98896789550781 -24389.84765625
v -4050.013916015625 241.14634704589844 -24392.99609375
v -4049.00146484375 238.64225769042969 -24397.23046875
v -4047.850830078125 237.77871704101562 -24402.044921875
v -4046.701171875 238.659912109375 -24406.85546875
v -4045.690673828125 241.17951965332031 -24411.08203125
v -4044.94140625 245.03367614746094 -24414.21484375
v -4044.5439453125 249.75747680664062 -24415.87890625
v -4044.546142578125 254.78118896484375 -24415.869140625
v -4044.947509765625 259.49887084960938 -24414.19140625
v -4045.699951171875 263.34149169921875 -24411.04296875
v -4046.71240234375 265.8455810546875 -24406.806640625
v -4104.13232421875 252.24392700195312 -24415.470703125
v -4100.00732421875 242.01548767089844 -24414.50390625
v -4090.0576171875 237.77871704101562 -24412.1328125
v -4104.13232421875 252.24392700195312 -24415.470703125
v -4098.8955078125 243.21292114257812 -24419.15625
v -4104.13232421875 252.24392700195312 -24415.470703125
v -4098.0419921875 246.51271057128906 -24422.7265625
v -4104.13232421875 252.24392700195312 -24415.470703125
v -4097.650390625 251.04457092285156 -24424.365234375
v -4104.13232421875 252.24392700195312 -24415.470703125
v -4097.80029296875 256.00363159179688 -24423.73828125
v -4104.13232421875 252.24392700195312 -24415.470703125
v -4098.45458984375 259.9735107421875 -24421.001953125
v -4104.13232421875 252.24392700195312 -24415.470703125
v -4099.45361328125 262.18685913085938 -24416.8203125
v -4104.13232421875 252.24392700195312 -24415.470703125
v -4100.60888671875 262.1448974609375 -24411.98828125
v -4104.13232421875 252.24392700195312 -24415.470703125
v -4101.61083984375 259.81521606445312 -24407.796875
v -4104.13232421875 252.24392700195312 -24415.470703125
v -4102.240234375 255.81025695800781 -24405.162109375
v -4104.13232421875 252.24392700195312 -24415.470703125
v -4102.369140625 250.9071044921875 -24404.623046875
v -4104.13232421875 252.24392700195312 -24415.470703125
v -4101.94970703125 246.31674194335938 -24406.37890625
v -4104.13232421875 252.24392700195312 -24415.470703125
v -4101.10009765625 243.14999389648438 -24409.931640625
v -4100.00732421875 242.01548767089844 -24414.50390625
v -4090.0576171875 237.77871704101562 -24412.1328125
v -4091.2080078125 238.64225769042969 -24407.3203125
v -4092.220703125 241.14634704589844 -24403.083984375
v -4092.972900390625 244.98896789550781 -24399.9375
v -4093.374267578125 249.70664978027344 -24398.2578125
v -4093.37646484375 254.73036193847656 -24398.248046875
v -4092.97900390625 259.45416259765625 -24399.912109375
v -4092.229736328125 263.30831909179688 -24403.044921875
v -4091.219482421875 265.82794189453125 -24407.2734375
v -4090.069580078125 266.70913696289062 -24412.08203125
v -4088.9189453125 265.8455810546875 -24416.896484375
v -4087.906494140625 263.34149169921875 -24421.1328125
v -4087.154052734375 259.49887084960938 -24424.279296875
v -4086.752685546875 254.78118896484375 -24425.958984375
v -4086.750732421875 249.75747680664062 -24425.966796875
v -4087.148193359375 245.03367614746094 -24424.3046875
v -4087.897216796875 241.17951965332031 -24421.169921875
v -4088.90771484375 238.659912109375 -24416.943359375
v -4090.069580078125 266.70913696289062 -24412.08203125
v -4068.96630859375 266.70913696289062 -24407.0390625
v -4047.86279296875 266.70913696289062 -24401.994140625
v -4071.333984375 241.99723815917969 -24397.1328125
v -4068.954345703125 237.77871704101562 -24407.087890625
v -4066.578125 242.03372192382812 -24417.029296875
v -4090.069580078125 266.70913696289062 -24412.08203125
v -4068.96630859375 266.70913696289062 -24407.0390625
v -4047.86279296875 266.70913696289062 -24401.994140625
v -4079.505859375 237.77871704101562 -24409.611328125
v -4070.24169921875 238.86994934082031 -24401.703125
v -4081.885498046875 241.99723815917969 -24399.65625
v -4080.793212890625 238.86994934082031 -24404.224609375
v -4058.402587890625 237.77871704101562 -24404.56640625
v -4060.7822265625 241.99723815917969 -24394.611328125
v -4059.68994140625 238.86994934082031 -24399.181640625
v -4056.0263671875 242.03372192382812 -24414.5078125
v -4067.667724609375 238.88969421386719 -24412.470703125
v -4057.115966796875 238.88969421386719 -24409.94921875
v -4046.71240234375 265.8455810546875 -24406.806640625
v -4045.699951171875 263.34149169921875 -24411.04296875
v -4044.947509765625 259.49887084960938 -24414.19140625
v -4044.546142578125 254.78118896484375 -24415.869140625
v -4044.5439453125 249.75747680664062 -24415.87890625
v -4044.94140625 245.03367614746094 -24414.21484375
v -4045.690673828125 241.17951965332031 -24411.08203125
v -4046.701171875 238.659912109375 -24406.85546875
v -4047.850830078125 237.77871704101562 -24402.044921875
v -4049.00146484375 238.64225769042969 -24397.23046875
v -4050.013916015625 241.14634704589844 -24392.99609375
v -4050.766357421875 244.98896789550781 -24389.84765625
v -4051.167724609375 249.70664978027344 -24388.16796875
v -4051.169677734375 254.73036193847656 -24388.16015625
v -4050.772216796875 259.45416259765625 -24389.822265625
v -4050.023193359375 263.30831909179688 -24392.95703125
v -4049.0126953125 265.82794189453125 -24397.18359375
v -4091.219482421875 265.82794189453125 -24407.2734375
v -4092.229736328125 263.30831909179688 -24403.044921875
v -4092.97900390625 259.45416259765625 -24399.912109375
v -4093.37646484375 254.73036193847656 -24398.248046875
v -4093.374267578125 249.70664978027344 -24398.2578125
v -4092.972900390625 244.98896789550781 -24399.9375
v -4092.220703125 241.14634704589844 -24403.083984375
v -4091.2080078125 238.64225769042969 -24407.3203125
v -4090.0576171875 237.77871704101562 -24412.1328125
v -4088.90771484375 238.659912109375 -24416.943359375
v -4087.897216796875 241.17951965332031 -24421.169921875
v -4087.148193359375 245.03367614746094 -24424.3046875
v -4086.750732421875 249.75747680664062 -24425.966796875
v -4086.752685546875 254.78118896484375 -24425.958984375
v -4087.154052734375 259.49887084960938 -24424.279296875
v -4087.906494140625 263.34149169921875 -24421.1328125
v -4088.9189453125 265.8455810546875 -24416.896484375
v -4071.342529296875 262.45413208007812 -24397.09765625
v -4072.069580078125 257.75567626953125 -24394.056640625
v -4072.3232421875 252.21810913085938 -24392.994140625
v -4072.06494140625 246.68449401855469 -24394.076171875
v -4065.597412109375 252.26972961425781 -24421.1328125
v -4066.58642578125 262.4906005859375 -24416.994140625
v -4065.85546875 257.8033447265625 -24420.052734375
vt 0.96798968315124512 0
vt 0.90626013278961182 0
vt 0.84453058242797852 0
vt 0.78280103206634521 0
vt 0.72107142210006714 0
vt 0.90626013278961182 0.061649046838283539
vt 0.84453058242797852 0.061649046838283539
vt 0.78280103206634521 0.061649046838283539
vt 0.72107142210006714 0.061649046838283539
vt 0.90626013278961182 0.12329809367656708
vt 0.84453058242797852 0.12329809367656708
vt 0.78280103206634521 0.12329809367656708
vt 0.72107142210006714 0.12329809367656708
vt 0.90626013278961182 0.18494714796543121
vt 0.84453058242797852 0.18494714796543121
vt 0.78280103206634521 0.18494714796543121
vt 0.72107142210006714 0.18494714796543121
vt 0.90626013278961182 0.24659618735313416
vt 0.84453058242797852 0.24659618735313416
vt 0.78280103206634521 0.24659618735313416
vt 0.72107142210006714 0.24659618735313416
vt 0.90626013278961182 0.30824524164199829
vt 0.84453058242797852 0.30824524164199829
vt 0.78280103206634521 0.30824524164199829
vt 0.72107142210006714 0.30824524164199829
vt 0.90626013278961182 0.36989429593086243
vt 0.84453058242797852 0.36989429593086243
vt 0.78280103206634521 0.36989429593086243
vt 0.72107142210006714 0.36989429593086243
vt 0.90626013278961182 0.49319237470626831
vt 0.84453058242797852 0.49319237470626831
vt 0.78280103206634521 0.49319237470626831
vt 0.90626013278961182 0.61649048328399658
vt 0.84453058242797852 0.61649048328399658
vt 0.78280103206634521 0.61649048328399658
vt 0.72107142210006714 0.61649048328399658
vt 0.90626013278961182 0.67813950777053833
vt 0.84453058242797852 0.67813950777053833
vt 0.78280103206634521 0.67813950777053833
vt 0.72107142210006714 0.67813950777053833
vt 0.90626013278961182 0.73978859186172485
vt 0.84453058242797852 0.73978859186172485
vt 0.78280103206634521 0.73978859186172485
vt 0.72107142210006714 0.73978859186172485
vt 0.90626013278961182 0.8014376163482666
vt 0.84453058242797852 0.8014376163482666
vt 0.78280103206634521 0.8014376163482666
vt 0.72107142210006714 0.8014376163482666
vt 0.90626013278961182 0.86308664083480835
vt 0.84453058242797852 0.86308664083480835
vt 0.78280103206634521 0.86308664083480835
vt 0.72107142210006714 0.86308664083480835
vt 0.96798968315124512 0.98638474941253662
vt 0.90626013278961182 0.98638474941253662
vt 0.84453058242797852 0.98638474941253662
vt 0.78280103206634521 0.98638474941253662
vt 0.72107142210006714 0.98638474941253662
vt 0.93712490797042847 0.49319237470626831
vt 0.90626013278961182 0.43154332041740417
vt 0.93712490797042847 0.36989429593086243
vt 0.93712490797042847 0.43154332041740417
vt 0.87539535760879517 0.49319237470626831
vt 0.84453058242797852 0.43154332041740417
vt 0.87539535760879517 0.36989429593086243
vt 0.87539535760879517 0.43154332041740417
vt 0.81366580724716187 0.49319237470626831
vt 0.78280103206634521 0.43154332041740417
vt 0.81366580724716187 0.36989429593086243
vt 0.81366580724716187 0.43154332041740417
vt 0.93712490797042847 0.61649048328399658
vt 0.90626013278961182 0.55484139919281006
vt 0.93712490797042847 0.55484139919281006
vt 0.87539535760879517 0.61649048328399658
vt 0.84453058242797852 0.55484139919281006
vt 0.87539535760879517 0.55484139919281006
vt 0.81366580724716187 0.61649048328399658
vt 0.78280103206634521 0.55484139919281006
vt 0.81366580724716187 0.55484139919281006
vt 0.75193625688552856 0.61649048328399658
vt 0.72107142210006714 0.55484139919281006
vt 0.75193625688552856 0.49319237470626831
vt 0.75193625688552856 0.55484139919281006
vt 0.87539535760879517 0.98638474941253662
vt 0.84453058242797852 0.92473572492599487
vt 0.87539535760879517 0.86308664083480835
vt 0.90626013278961182 0.92473572492599487
vt 0.87539535760879517 0.92473572492599487
vt 0.81366580724716187 0.98638474941253662
vt 0.78280103206634521 0.92473572492599487
vt 0.81366580724716187 0.86308664083480835
vt 0.81366580724716187 0.92473572492599487
vt 0.87539535760879517 0.061649046838283539
vt 0.84453058242797852 0.030824523419141769
vt 0.87539535760879517 0
vt 0.90626013278961182 0.030824523419141769
vt 0.87539535760879517 0.030824523419141769
vt 0.81366580724716187 0.061649046838283539
vt 0.78280103206634521 0.030824523419141769
vt 0.81366580724716187 0
vt 0.81366580724716187 0.030824523419141769
vt 0.96798968315124512 0.0547991544008255
vt 0.96798968315124512 0.109598308801651
vt 0.96798968315124512 0.1643974632024765
vt 0.96798968315124512 0.219196617603302
vt 0.96798968315124512 0.2739957869052887
vt 0.96798968315124512 0.328794926404953
vt 0.96798968315124512 0.38359406590461731
vt 0.96798968315124512 0.438393235206604
vt 0.96798968315124512 0.49319237470626831
vt 0.96798968315124512 0.54799157381057739
vt 0.96798968315124512 0.60279065370559692
vt 0.96798968315124512 0.65758985280990601
vt 0.96798968315124512 0.71238899230957031
vt 0.96798968315124512 0.76718813180923462
vt 0.96798968315124512 0.82198727130889893
vt 0.96798968315124512 0.87678647041320801
vt 0.96798968315124512 0.93158555030822754
vt 0.71960657835006714 0
vt 0.59852999448776245 0
vt 0.47745344042778015 0
vt 0.71960657835006714 0.077386476099491119
vt 0.59852999448776245 0.077386476099491119
vt 0.71960657835006714 0.15482795238494873
vt 0.59852999448776245 0.15482795238494873
vt 0.71960657835006714 0.23067262768745422
vt 0.59852999448776245 0.23067262768745422
vt 0.71960657835006714 0.30916804075241089
vt 0.59852999448776245 0.30916804075241089
vt 0.71960657835006714 0.38550058007240295
vt 0.59852999448776245 0.38550058007240295
vt 0.71960657835006714 0.46134525537490845
vt 0.59852999448776245 0.46134525537490845
vt 0.71960657835006714 0.53930801153182983
vt 0.59852999448776245 0.53930801153182983
vt 0.71960657835006714 0.61617320775985718
vt 0.59852999448776245 0.61617320775985718
vt 0.71960657835006714 0.69201785326004028
vt 0.59852999448776245 0.69201785326004028
vt 0.71960657835006714 0.76944786310195923
vt 0.59852999448776245 0.76944786310195923
vt 0.71960657835006714 0.84684580564498901
vt 0.59852999448776245 0.84684580564498901
vt 0.71960657835006714 0.92269051074981689
vt 0.59852999448776245 0.92269051074981689
vt 0.59852999448776245 0.99853515625
vt 0.47745344042778015 0.99853515625
vt 0.47745344042778015 0.94306093454360962
vt 0.47745344042778015 0.88758683204650879
vt 0.47745344042778015 0.83211261034011841
vt 0.47745344042778015 0.7766384482383728
vt 0.47745344042778015 0.7211642861366272
vt 0.47745344042778015 0.66569012403488159
vt 0.47745344042778015 0.61021590232849121
vt 0.47745344042778015 0.55474179983139038
vt 0.47745344042778015 0.499267578125
vt 0.47745344042778015 0.44379341602325439
vt 0.47745344042778015 0.3883192241191864
vt 0.47745344042778015 0.3328450620174408
vt 0.47745344042778015 0.27737089991569519
vt 0.47745344042778015 0.2218967080116272
vt 0.47745344042778015 0.1664225310087204
vt 0.47745344042778015 0.1109483540058136
vt 0.47745344042778015 0.055474177002906799
vt 0.47598859667778015 0
vt 0.23799429833889008 0
vt 0 0
vt 0.23799429833889008 0.36989429593086243
vt 0.23799429833889008 0.49319237470626831
vt 0.23799429833889008 0.61649048328399658
vt 0.47598859667778015 0.98638474941253662
vt 0.23799429833889008 0.98638474941253662
vt 0 0.98638474941253662
vt 0.35699144005775452 0.49319237470626831
vt 0.23799429833889008 0.43154332041740417
vt 0.35699144005775452 0.36989429593086243
vt 0.35699144005775452 0.43154332041740417
vt 0.11899714916944504 0.49319237470626831
vt 0.11899714916944504 0.36989429593086243
vt 0.11899714916944504 0.43154332041740417
vt 0.11899714916944504 0.61649048328399658
vt 0.23799429833889008 0.55484139919281006
vt 0.11899714916944504 0.55484139919281006
vt 0 0.93158555030822754
vt 0 0.87678647041320801
vt 0 0.82198727130889893
vt 0 0.76718813180923462
vt 0 0.71238899230957031
vt 0 0.65758985280990601
vt 0 0.60279065370559692
vt 0 0.54799157381057739
vt 0 0.49319237470626831
vt 0 0.438393235206604
vt 0 0.38359406590461731
vt 0 0.328794926404953
vt 0 0.2739957869052887
vt 0 0.219196617603302
vt 0 0.1643974632024765
vt 0 0.109598308801651
vt 0 0.0547991544008255
vt 0.47598859667778015 0.0547991544008255
vt 0.47598859667778015 0.109598308801651
vt 0.47598859667778015 0.1643974632024765
vt 0.47598859667778015 0.219196617603302
vt 0.47598859667778015 0.2739957869052887
vt 0.47598859667778015 0.328794926404953
vt 0.47598859667778015 0.38359406590461731
vt 0.47598859667778015 0.438393235206604
vt 0.47598859667778015 0.49319237470626831
vt 0.47598859667778015 0.54799157381057739
vt 0.47598859667778015 0.60279065370559692
vt 0.47598859667778015 0.65758985280990601
vt 0.47598859667778015 0.71238899230957031
vt 0.47598859667778015 0.76718813180923462
vt 0.47598859667778015 0.82198727130889893
vt 0.47598859667778015 0.87678647041320801
vt 0.47598859667778015 0.93158555030822754
vt 0.23799429833889008 0.12329809367656708
vt 0.23799429833889008 0.18494714796543121
vt 0.23799429833889008 0.24659618735313416
vt 0.23799429833889008 0.30824524164199829
vt 0.23799429833889008 0.73978859186172485
vt 0.23799429833889008 0.86308664083480835
vt 0.23799429833889008 0.8014376163482666
vn -0.00041477938066236675 0.99999839067459106 0.0017352339345961809
vn 0.35762330889701843 0.9297868013381958 0.087189607322216034
vn 0.68743890523910522 0.70710563659667969 0.1656181663274765
vn 0.90415960550308228 0.36809411644935608 0.21679984033107758
vn 0.97260016202926636 0 0.23248422145843506
vn 0.27493152022361755 0.85837620496749878 0.43313157558441162
vn 0.62455153465270996 0.6527976393699646 0.42870804667472839
vn 0.87142264842987061 0.33982330560684204 0.35375508666038513
vn 0.97260016202926636 0 0.23248422145843506
vn 0.20488753914833069 0.65628558397293091 0.72616136074066162
vn 0.57128286361694336 0.49910715222358704 0.65155810117721558
vn 0.84369289875030518 0.25981748104095459 0.46976292133331299
vn 0.97260016202926636 0 0.23248422145843506
vn 0.15815488994121552 0.35428142547607422 0.92166787385940552
vn 0.53574252128601074 0.26943209767341614 0.80024141073226929
vn 0.82519185543060303 0.14025679230690002 0.54716217517852783
vn 0.97260016202926636 0 0.23248422145843506
vn 0.14184822142124176 -0.0016588524449616671 0.9898870587348938
vn 0.52334129810333252 -0.0012615622254088521 0.85212224721908569
vn 0.81873619556427002 -0.00065672455821186304 0.57416951656341553
vn 0.97260016202926636 0 0.23248422145843506
vn 0.15845006704330444 -0.35734659433364868 0.92043304443359375
vn 0.53596705198287964 -0.2717631459236145 0.79930227994918823
vn 0.82530868053436279 -0.14147025346755981 0.54667329788208008
vn 0.97260016202926636 0 0.23248422145843506
vn 0.20543293654918671 -0.65863156318664551 0.72387969493865967
vn 0.5716976523399353 -0.50089126825332642 0.64982283115386963
vn 0.84390878677368164 -0.26074621081352234 0.46885961294174194
vn 0.97260016202926636 0 0.23248422145843506
vn 0.35839462280273438 -0.9297868013381958 0.083962813019752502
vn 0.68802547454833984 -0.70710563659667969 0.1631641685962677
vn 0.9044649600982666 -0.36809411644935608 0.21552237868309021
vn 0.51113039255142212 -0.65628558397293091 -0.55500894784927368
vn 0.80418151617050171 -0.49910715222358704 -0.32277575135231018
vn 0.9649316668510437 -0.25981748104095459 -0.037440720945596695
vn 0.97260016202926636 0 0.23248422145843506
vn 0.55786305665969849 -0.35428142547607422 -0.75051546096801758
vn 0.83972179889678955 -0.26943209767341614 -0.47145906090736389
vn 0.98343265056610107 -0.14025679230690002 -0.11483997106552124
vn 0.97260016202926636 0 0.23248422145843506
vn 0.57416975498199463 0.0016588524449616671 -0.81873458623886108
vn 0.85212308168411255 0.0012615622254088521 -0.52333992719650269
vn 0.98988831043243408 0.00065672455821186304 -0.14184729754924774
vn 0.97260016202926636 0 0.23248422145843506
vn 0.55756789445877075 0.35734659433364868 -0.74928063154220581
vn 0.83949732780456543 0.2717631459236145 -0.47051995992660522
vn 0.98331582546234131 0.14147025346755981 -0.11435110121965408
vn 0.97260016202926636 0 0.23248422145843506
vn 0.51058501005172729 0.65863156318664551 -0.55272728204727173
vn 0.80376672744750977 0.50089126825332642 -0.32104054093360901
vn 0.96471571922302246 0.26074621081352234 -0.036537420004606247
vn 0.97260016202926636 0 0.23248422145843506
vn -0.00041477938066236675 0.99999839067459106 0.0017352339345961809
vn 0.35762330889701843 0.9297868013381958 0.087189607322216034
vn 0.68743890523910522 0.70710563659667969 0.1656181663274765
vn 0.90415960550308228 0.36809411644935608 0.21679984033107758
vn 0.97260016202926636 0 0.23248422145843506
vn 0.17738515138626099 -0.98330378532409668 0.040597271174192429
vn 0.27564412355422974 -0.85964584350585938 0.43015038967132568
vn 0.01561923511326313 -0.69654130935668945 0.7173466682434082
vn 0.089871674776077271 -0.90912562608718872 0.40671083331108093
vn 0.53256344795227051 -0.83699417114257812 0.12576524913311005
vn 0.62509346008300781 -0.65376323461532593 0.42644086480140686
vn 0.39486733078956604 -0.59290015697479248 0.70181846618652344
vn 0.45807147026062012 -0.77385324239730835 0.4374033510684967
vn 0.81428897380828857 -0.54720890522003174 0.19363871216773987
vn 0.87170475721359253 -0.34032595157623291 0.35257488489151001
vn 0.7242661714553833 -0.38762545585632324 0.57024997472763062
vn 0.76558768749237061 -0.50592869520187378 0.39738103747367859
vn 0.33891215920448303 -0.69406026601791382 -0.63515263795852661
vn 0.44108641147613525 -0.85837620496749878 -0.26197913289070129
vn 0.26483654975891113 -0.9077829122543335 -0.32525652647018433
vn 0.67005622386932373 -0.59078836441040039 -0.44943720102310181
vn 0.75091284513473511 -0.6527976393699646 -0.099925719201564789
vn 0.6070026159286499 -0.77271032333374023 -0.18565173447132111
vn 0.90417879819869995 -0.38624477386474609 -0.18241633474826813
vn 0.9372018575668335 -0.33982330560684204 0.078567110002040863
vn 0.86295568943023682 -0.50518149137496948 -0.0099590495228767395
vn 0.98632943630218506 -0.12843754887580872 0.1032380610704422
vn 0.97260016202926636 0 0.23248422145843506
vn 0.95643842220306396 -0.1819627583026886 0.2282872349023819
vn 0.97262156009674072 -0.16798743605613708 0.16058509051799774
vn 0.53186911344528198 0.83699417114257812 0.12867000699043274
vn 0.75037086009979248 0.65376323461532593 -0.097658529877662659
vn 0.66956526041030884 0.59290015697479248 -0.44738319516181946
vn 0.44037380814552307 0.85964584350585938 -0.25899797677993774
vn 0.60636115074157715 0.77385324239730835 -0.18296808004379272
vn 0.8138350248336792 0.54720890522003174 0.19553777575492859
vn 0.93691974878311157 0.34032595157623291 0.079747326672077179
vn 0.9038577675819397 0.38762545585632324 -0.18107348680496216
vn 0.86253631114959717 0.50592869520187378 -0.0082045337185263634
vn 0.45742997527122498 0.77271032333374023 0.44008699059486389
vn 0.65537345409393311 0.69327270984649658 0.29976427555084229
vn 0.53186911344528198 0.83699417114257812 0.12867000699043274
vn 0.31545984745025635 0.9115976095199585 0.26358088850975037
vn 0.49391359090805054 0.82062023878097534 0.28745746612548828
vn 0.76516830921173096 0.50518149137496948 0.3991355299949646
vn 0.88746744394302368 0.36089318990707397 0.28663152456283569
vn 0.8138350248336792 0.54720890522003174 0.19553777575492859
vn 0.78902047872543335 0.53650397062301636 0.29934960603713989
vn -0.079903922975063324 0.93908089399337769 0.33427891135215759
vn -0.14975547790527344 0.76489639282226562 0.626503586769104
vn -0.20154429972171783 0.49845412373542786 0.84316271543502808
vn -0.22902391850948334 0.17189088463783264 0.95812398195266724
vn -0.22887986898422241 -0.17540492117404938 0.95752131938934326
vn -0.20112952589988708 -0.5015442967414856 0.8414275050163269
vn -0.14912000298500061 -0.76719003915786743 0.62384510040283203
vn -0.079124391078948975 -0.94030135869979858 0.33101773262023926
vn 0.00041477938066236675 -0.99999839067459106 -0.0017352339345961809
vn 0.079903922975063324 -0.93908089399337769 -0.33427891135215759
vn 0.14975547790527344 -0.76489639282226562 -0.626503586769104
vn 0.20154429972171783 -0.49845412373542786 -0.84316271543502808
vn 0.22902391850948334 -0.17189088463783264 -0.95812398195266724
vn 0.22887986898422241 0.17540492117404938 -0.95752131938934326
vn 0.20112952589988708 0.5015442967414856 -0.8414275050163269
vn 0.14912000298500061 0.76719003915786743 -0.62384510040283203
vn 0.079124391078948975 0.94030135869979858 -0.33101773262023926
vn -0.97260016202926636 0 -0.23248422145843506
vn -0.68743890523910522 -0.70710563659667969 -0.1656181663274765
vn 0.00041477938066236675 -0.99999839067459106 -0.0017352339345961809
vn -0.97260016202926636 0 -0.23248422145843506
vn -0.61054956912994385 -0.62432533502578735 -0.48728540539741516
vn -0.97260016202926636 0 -0.23248422145843506
vn -0.55157089233398438 -0.39620622992515564 -0.73402327299118042
vn -0.97260016202926636 0 -0.23248422145843506
vn -0.52447503805160522 -0.082913078367710114 -0.84737908840179443
vn -0.97260016202926636 0 -0.23248422145843506
vn -0.53484922647476196 0.25991317629814148 -0.80397850275039673
vn -0.97260016202926636 0 -0.23248422145843506
vn -0.58006823062896729 0.53435611724853516 -0.61480432748794556
vn -0.97260016202926636 0 -0.23248422145843506
vn -0.64916098117828369 0.68736761808395386 -0.32575413584709167
vn -0.97260016202926636 0 -0.23248422145843506
vn -0.72899770736694336 0.68446648120880127 0.0082436986267566681
vn -0.97260016202926636 0 -0.23248422145843506
vn -0.7982633113861084 0.52341336011886597 0.2980169951915741
vn -0.97260016202926636 0 -0.23248422145843506
vn -0.84180718660354614 0.24654565751552582 0.48018321394920349
vn -0.97260016202926636 0 -0.23248422145843506
vn -0.85071325302124023 -0.092416040599346161 0.51744198799133301
vn -0.97260016202926636 0 -0.23248422145843506
vn -0.8217087984085083 -0.40975400805473328 0.39610141515731812
vn -0.97260016202926636 0 -0.23248422145843506
vn -0.76298195123672485 -0.62867575883865356 0.15041714906692505
vn -0.68743890523910522 -0.70710563659667969 -0.1656181663274765
vn 0.00041477938066236675 -0.99999839067459106 -0.0017352339345961809
vn -0.079124391078948975 -0.94030135869979858 0.33101773262023926
vn -0.14912000298500061 -0.76719003915786743 0.62384510040283203
vn -0.20112952589988708 -0.5015442967414856 0.8414275050163269
vn -0.22887986898422241 -0.17540492117404938 0.95752131938934326
vn -0.22902391850948334 0.17189088463783264 0.95812398195266724
vn -0.20154429972171783 0.49845412373542786 0.84316271543502808
vn -0.14975547790527344 0.76489639282226562 0.626503586769104
vn -0.079903922975063324 0.93908089399337769 0.33427891135215759
vn -0.00041477938066236675 0.99999839067459106 0.0017352339345961809
vn 0.079124391078948975 0.94030135869979858 -0.33101773262023926
vn 0.14912000298500061 0.76719003915786743 -0.62384510040283203
vn 0.20112952589988708 0.5015442967414856 -0.8414275050163269
vn 0.22887986898422241 0.17540492117404938 -0.95752131938934326
vn 0.22902391850948334 -0.17189088463783264 -0.95812398195266724
vn 0.20154429972171783 -0.49845412373542786 -0.84316271543502808
vn 0.14975547790527344 -0.76489639282226562 -0.626503586769104
vn 0.079903922975063324 -0.93908089399337769 -0.33427891135215759
vn -0.00041477938066236675 0.99999839067459106 0.0017352339345961809
vn -0.00041477938066236675 0.99999839067459106 0.0017352339345961809
vn -0.00041477938066236675 0.99999839067459106 0.0017352339345961809
vn -0.16409760713577271 -0.70836722850799561 0.686504065990448
vn 0.00041477938066236675 -0.99999839067459106 -0.0017352339345961809
vn 0.16468419134616852 -0.70584410429000854 -0.68895804882049561
vn -0.00041477938066236675 0.99999839067459106 0.0017352339345961809
vn -0.00041477938066236675 0.99999839067459106 0.0017352339345961809
vn -0.00041477938066236675 0.99999839067459106 0.0017352339345961809
vn 0.00041477938066236675 -0.99999839067459106 -0.0017352339345961809
vn -0.08858451247215271 -0.9245607852935791 0.37059423327445984
vn -0.16409760713577271 -0.70836722850799561 0.686504065990448
vn -0.08858451247215271 -0.9245607852935791 0.37059423327445984
vn 0.00041477938066236675 -0.99999839067459106 -0.0017352339345961809
vn -0.16409760713577271 -0.70836722850799561 0.686504065990448
vn -0.08858451247215271 -0.9245607852935791 0.37059423327445984
vn 0.16468419134616852 -0.70584410429000854 -0.68895804882049561
vn 0.089350923895835876 -0.92319530248641968 -0.37380051612854004
vn 0.089350923895835876 -0.92319530248641968 -0.37380051612854004
vn 0.079124391078948975 0.94030135869979858 -0.33101773262023926
vn 0.14912000298500061 0.76719003915786743 -0.62384510040283203
vn 0.20112952589988708 0.5015442967414856 -0.8414275050163269
vn 0.22887986898422241 0.17540492117404938 -0.95752131938934326
vn 0.22902391850948334 -0.17189088463783264 -0.95812398195266724
vn 0.20154429972171783 -0.49845412373542786 -0.84316271543502808
vn 0.14975547790527344 -0.76489639282226562 -0.626503586769104
vn 0.079903922975063324 -0.93908089399337769 -0.33427891135215759
vn 0.00041477938066236675 -0.99999839067459106 -0.0017352339345961809
vn -0.079124391078948975 -0.94030135869979858 0.33101773262023926
vn -0.14912000298500061 -0.76719003915786743 0.62384510040283203
vn -0.20112952589988708 -0.5015442967414856 0.8414275050163269
vn -0.22887986898422241 -0.17540492117404938 0.95752131938934326
vn -0.22902391850948334 0.17189088463783264 0.95812398195266724
vn -0.20154429972171783 0.49845412373542786 0.84316271543502808
vn -0.14975547790527344 0.76489639282226562 0.626503586769104
vn -0.079903922975063324 0.93908089399337769 0.33427891135215759
vn -0.079903922975063324 0.93908089399337769 0.33427891135215759
vn -0.14975547790527344 0.76489639282226562 0.626503586769104
vn -0.20154429972171783 0.49845412373542786 0.84316271543502808
vn -0.22902391850948334 0.17189088463783264 0.95812398195266724
vn -0.22887986898422241 -0.17540492117404938 0.95752131938934326
vn -0.20112952589988708 -0.5015442967414856 0.8414275050163269
vn -0.14912000298500061 -0.76719003915786743 0.62384510040283203
vn -0.079124391078948975 -0.94030135869979858 0.33101773262023926
vn 0.00041477938066236675 -0.99999839067459106 -0.0017352339345961809
vn 0.079903922975063324 -0.93908089399337769 -0.33427891135215759
vn 0.14975547790527344 -0.76489639282226562 -0.626503586769104
vn 0.20154429972171783 -0.49845412373542786 -0.84316271543502808
vn 0.22902391850948334 -0.17189088463783264 -0.95812398195266724
vn 0.22887986898422241 0.17540492117404938 -0.95752131938934326
vn 0.20112952589988708 0.5015442967414856 -0.8414275050163269
vn 0.14912000298500061 0.76719003915786743 -0.62384510040283203
vn 0.079124391078948975 0.94030135869979858 -0.33101773262023926
vn -0.16468419134616852 0.70584410429000854 0.68895804882049561
vn -0.21494579315185547 0.38103452324867249 0.89922797679901123
vn -0.23248384892940521 -0.0017841184744611382 0.9725986123085022
vn -0.21462833881378174 -0.38433113694190979 0.89789992570877075
vn 0.23248384892940521 0.0017841184744611382 -0.9725986123085022
vn 0.16409760713577271 0.70836722850799561 -0.686504065990448
vn 0.21462833881378174 0.38433113694190979 -0.89789992570877075
f 7/7/7 93/93/93 96/96/96 92/92/92
f 93/93/93 3/3/3 94/94/94 96/96/96
f 96/96/96 94/94/94 2/2/2 95/95/95
f 92/92/92 96/96/96 95/95/95 6/6/6
f 8/8/8 98/98/98 100/100/100 97/97/97
f 98/98/98 4/4/4 99/99/99 100/100/100
f 100/100/100 99/99/99 3/3/3 93/93/93
f 97/97/97 100/100/100 93/93/93 7/7/7
f 98/98/98 8/8/8 9/9/9
f 5/5/5 4/4/4 98/98/98
f 92/92/92 6/6/6 10/10/10
f 11/11/11 7/7/7 92/92/92
f 10/10/10 11/11/11 92/92/92
f 97/97/97 7/7/7 11/11/11
f 12/12/12 8/8/8 97/97/97
f 11/11/11 12/12/12 97/97/97
f 13/13/13 8/8/8 12/12/12
f 15/15/15 11/11/11 10/10/10 14/14/14
f 16/16/16 12/12/12 11/11/11 15/15/15
f 17/17/17 12/12/12 16/16/16
f 19/19/19 15/15/15 14/14/14 18/18/18
f 20/20/20 16/16/16 15/15/15 19/19/19
f 21/21/21 16/16/16 20/20/20
f 23/23/23 19/19/19 18/18/18 22/22/22
f 24/24/24 20/20/20 19/19/19 23/23/23
f 25/25/25 20/20/20 24/24/24
f 64/64/64 27/27/27 23/23/23
f 22/22/22 26/26/26 64/64/64
f 23/23/23 22/22/22 64/64/64
f 68/68/68 28/28/28 24/24/24
f 23/23/23 27/27/27 68/68/68
f 24/24/24 23/23/23 68/68/68
f 29/29/29 24/24/24 28/28/28
f 30/30/30 59/59/59 61/61/61 58/58/58
f 59/59/59 26/26/26 60/60/60 61/61/61
f 31/31/31 63/63/63 65/65/65 62/62/62
f 63/63/63 27/27/27 64/64/64 65/65/65
f 65/65/65 64/64/64 26/26/26 59/59/59
f 62/62/62 65/65/65 59/59/59 30/30/30
f 32/32/32 67/67/67 69/69/69 66/66/66
f 67/67/67 28/28/28 68/68/68 69/69/69
f 69/69/69 68/68/68 27/27/27 63/63/63
f 66/66/66 69/69/69 63/63/63 31/31/31
f 67/67/67 32/32/32 81/81/81
f 29/29/29 28/28/28 67/67/67
f 67/67/67 81/81/81 29/29/29
f 33/33/33 71/71/71 72/72/72 70/70/70
f 71/71/71 30/30/30 58/58/58 72/72/72
f 34/34/34 74/74/74 75/75/75 73/73/73
f 74/74/74 31/31/31 62/62/62 75/75/75
f 75/75/75 62/62/62 30/30/30 71/71/71
f 73/73/73 75/75/75 71/71/71 33/33/33
f 35/35/35 77/77/77 78/78/78 76/76/76
f 77/77/77 32/32/32 66/66/66 78/78/78
f 78/78/78 66/66/66 31/31/31 74/74/74
f 76/76/76 78/78/78 74/74/74 34/34/34
f 36/36/36 82/82/82 79/79/79
f 80/80/80 81/81/81 82/82/82
f 82/82/82 81/81/81 32/32/32 77/77/77
f 79/79/79 82/82/82 77/77/77 35/35/35
f 73/73/73 33/33/33 37/37/37
f 38/38/38 34/34/34 73/73/73
f 37/37/37 38/38/38 73/73/73
f 76/76/76 34/34/34 38/38/38
f 39/39/39 35/35/35 76/76/76
f 38/38/38 39/39/39 76/76/76
f 79/79/79 35/35/35 39/39/39
f 39/39/39 40/40/40 79/79/79
f 42/42/42 38/38/38 37/37/37 41/41/41
f 43/43/43 39/39/39 38/38/38 42/42/42
f 44/44/44 39/39/39 43/43/43
f 46/46/46 42/42/42 41/41/41 45/45/45
f 47/47/47 43/43/43 42/42/42 46/46/46
f 48/48/48 43/43/43 47/47/47
f 85/85/85 50/50/50 46/46/46
f 45/45/45 49/49/49 85/85/85
f 46/46/46 45/45/45 85/85/85
f 90/90/90 51/51/51 47/47/47
f 46/46/46 50/50/50 90/90/90
f 47/47/47 46/46/46 90/90/90
f 52/52/52 47/47/47 51/51/51
f 55/55/55 84/84/84 87/87/87 83/83/83
f 84/84/84 50/50/50 85/85/85 87/87/87
f 87/87/87 85/85/85 49/49/49 86/86/86
f 83/83/83 87/87/87 86/86/86 54/54/54
f 56/56/56 89/89/89 91/91/91 88/88/88
f 89/89/89 51/51/51 90/90/90 91/91/91
f 91/91/91 90/90/90 50/50/50 84/84/84
f 88/88/88 91/91/91 84/84/84 55/55/55
f 89/89/89 56/56/56 57/57/57
f 52/52/52 51/51/51 89/89/89
f 1/1/1 101/101/101 95/95/95 2/2/2
f 102/102/102 103/103/103 14/14/14 10/10/10
f 101/101/101 102/102/102 10/10/10 6/6/6
f 18/18/18 104/104/104 105/105/105
f 60/60/60 106/106/106 107/107/107
f 107/107/107 108/108/108 61/61/61 60/60/60
f 105/105/105 106/106/106 22/22/22 18/18/18
f 14/14/14 103/103/103 104/104/104
f 95/95/95 101/101/101 6/6/6
f 60/60/60 26/26/26 22/22/22
f 104/104/104 18/18/18 14/14/14
f 60/60/60 22/22/22 106/106/106
f 58/58/58 61/61/61 108/108/108 109/109/109
f 109/109/109 110/110/110 72/72/72 58/58/58
f 70/70/70 111/111/111 112/112/112
f 112/112/112 113/113/113 41/41/41 37/37/37
f 110/110/110 111/111/111 70/70/70 72/72/72
f 114/114/114 115/115/115 45/45/45 41/41/41
f 116/116/116 117/117/117 86/86/86 49/49/49
f 117/117/117 53/53/53 54/54/54 86/86/86
f 115/115/115 116/116/116 49/49/49 45/45/45
f 41/41/41 113/113/113 114/114/114
f 33/33/33 70/70/70 37/37/37
f 37/37/37 70/70/70 112/112/112
f 122/122/122 119/119/119 118/118/118
f 124/124/124 122/122/122 121/121/121
f 126/126/126 124/124/124 123/123/123
f 128/128/128 126/126/126 125/125/125
f 130/130/130 128/128/128 127/127/127
f 132/132/132 130/130/130 129/129/129
f 134/134/134 132/132/132 131/131/131
f 136/136/136 134/134/134 133/133/133
f 138/138/138 136/136/136 135/135/135
f 140/140/140 138/138/138 137/137/137
f 142/142/142 140/140/140 139/139/139
f 144/144/144 142/142/142 141/141/141
f 145/145/145 144/144/144 143/143/143
f 163/163/163 120/120/120 119/119/119 122/122/122
f 122/122/122 124/124/124 161/161/161 162/162/162
f 124/124/124 126/126/126 160/160/160 161/161/161
f 128/128/128 130/130/130 157/157/157 158/158/158
f 126/126/126 128/128/128 159/159/159 160/160/160
f 130/130/130 132/132/132 156/156/156 157/157/157
f 122/122/122 162/162/162 163/163/163
f 128/128/128 158/158/158 159/159/159
f 156/156/156 132/132/132 155/155/155
f 154/154/154 155/155/155 134/134/134
f 136/136/136 138/138/138 152/152/152 153/153/153
f 134/134/134 136/136/136 153/153/153 154/154/154
f 132/132/132 134/134/134 155/155/155
f 138/138/138 140/140/140 150/150/150 151/151/151
f 142/142/142 144/144/144 148/148/148 149/149/149
f 140/140/140 142/142/142 149/149/149 150/150/150
f 144/144/144 145/145/145 146/146/146 147/147/147
f 138/138/138 151/151/151 152/152/152
f 144/144/144 147/147/147 148/148/148
f 168/168/168 174/174/174 176/176/176 173/173/173
f 174/174/174 167/167/167 175/175/175 176/176/176
f 179/179/179 178/178/178 167/167/167 174/174/174
f 177/177/177 179/179/179 174/174/174 168/168/168
f 182/182/182 177/177/177 168/168/168 181/181/181
f 180/180/180 182/182/182 181/181/181 169/169/169
f 165/165/165 164/164/164 200/200/200
f 217/217/217 200/200/200 201/201/201
f 165/165/165 217/217/217 198/198/198 199/199/199
f 217/217/217 165/165/165 200/200/200
f 218/218/218 217/217/217 201/201/201 202/202/202
f 202/202/202 203/203/203 219/219/219 218/218/218
f 204/204/204 205/205/205 220/220/220 219/219/219
f 175/175/175 205/205/205 206/206/206
f 205/205/205 175/175/175 220/220/220
f 176/176/176 175/175/175 206/206/206 207/207/207
f 173/173/173 176/176/176 207/207/207 208/208/208
f 204/204/204 219/219/219 203/203/203
f 199/199/199 166/166/166 165/165/165
f 217/217/217 218/218/218 197/197/197 198/198/198
f 218/218/218 219/219/219 196/196/196 197/197/197
f 196/196/196 219/219/219 195/195/195
f 178/178/178 220/220/220 167/167/167
f 175/175/175 167/167/167 220/220/220
f 178/178/178 179/179/179 192/192/192 193/193/193
f 194/194/194 220/220/220 178/178/178
f 194/194/194 195/195/195 219/219/219 220/220/220
f 193/193/193 194/194/194 178/178/178
f 179/179/179 177/177/177 191/191/191 192/192/192
f 209/209/209 181/181/181 173/173/173
f 209/209/209 210/210/210 169/169/169 181/181/181
f 168/168/168 173/173/173 181/181/181
f 221/221/221 169/169/169 211/211/211 212/212/212
f 210/210/210 211/211/211 169/169/169
f 208/208/208 209/209/209 173/173/173
f 221/221/221 212/212/212 213/213/213
f 222/222/222 223/223/223 214/214/214 215/215/215
f 213/213/213 214/214/214 223/223/223 221/221/221
f 221/221/221 223/223/223 185/185/185 186/186/186
f 216/216/216 222/222/222 215/215/215
f 170/170/170 171/171/171 216/216/216
f 169/169/169 221/221/221 187/187/187 188/188/188
f 177/177/177 182/182/182 190/190/190 191/191/191
f 182/182/182 180/180/180 189/189/189 190/190/190
f 180/180/180 188/188/188 189/189/189
f 180/180/180 169/169/169 188/188/188
f 186/186/186 187/187/187 221/221/221
f 216/216/216 171/171/171 222/222/222
f 222/222/222 171/171/171 183/183/183 184/184/184
f 184/184/184 185/185/185 223/223/223 222/222/222
f 171/171/171 172/172/172 183/183/183
