# Rhino

o object_1
v -4230.37109375 313.80740356445312 -24442.6953125
v -4225.56005859375 312.76495361328125 -24445.287109375
v -4221.130859375 309.45870971679688 -24447.6796875
v -4222.4990234375 311.1488037109375 -24439.603515625
v -4218.802734375 308.22964477539062 -24443.35546875
v -4217.31103515625 298.96005249023438 -24449.7578125
v -4220.15087890625 306.69522094726562 -24435.2421875
v -4217.01708984375 304.84268188476562 -24440.0390625
v -4217.31103515625 298.96005249023438 -24449.7578125
v -4219.072265625 300.57876586914062 -24433.23828125
v -4216.19677734375 300.19110107421875 -24438.515625
v -4217.31103515625 298.96005249023438 -24449.7578125
v -4219.4853515625 293.8857421875 -24434.005859375
v -4216.51123046875 295.10101318359375 -24439.099609375
v -4217.31103515625 298.96005249023438 -24449.7578125
v -4221.28515625 288.52774047851562 -24437.349609375
v -4217.8798828125 291.0262451171875 -24441.642578125
v -4217.31103515625 298.96005249023438 -24449.7578125
v -4224.0361328125 285.54049682617188 -24442.45703125
v -4219.97216796875 288.75442504882812 -24445.52734375
v -4217.31103515625 298.96005249023438 -24449.7578125
v -4227.21435546875 285.59713745117188 -24448.361328125
v -4222.38916015625 288.79751586914062 -24450.015625
v -4217.31103515625 298.96005249023438 -24449.7578125
v -4229.97216796875 288.74139404296875 -24453.482421875
v -4224.486328125 291.188720703125 -24453.91015625
v -4217.31103515625 298.96005249023438 -24449.7578125
v -4231.70556640625 294.14669799804688 -24456.701171875
v -4225.8046875 295.29949951171875 -24456.359375
v -4217.31103515625 298.96005249023438 -24449.7578125
v -4232.06005859375 300.7642822265625 -24457.359375
v -4226.07421875 300.33218383789062 -24456.859375
v -4217.31103515625 298.96005249023438 -24449.7578125
v -4230.9052734375 306.959716796875 -24455.21484375
v -4225.1962890625 305.0438232421875 -24455.228515625
v -4217.31103515625 298.96005249023438 -24449.7578125
v -4228.5673828125 311.2337646484375 -24450.873046875
v -4223.41796875 308.29421997070312 -24451.927734375
v -4217.31103515625 298.96005249023438 -24449.7578125
v -4230.37109375 313.80740356445312 -24442.6953125
v -4225.56005859375 312.76495361328125 -24445.287109375
v -4221.130859375 309.45870971679688 -24447.6796875
v -4217.31103515625 298.96005249023438 -24449.7578125
v -4227.8291015625 312.79522705078125 -24437.974609375
v -4225.63232421875 309.91452026367188 -24433.89453125
v -4224.0771484375 305.55438232421875 -24431.005859375
v -4223.37353515625 300.30361938476562 -24429.69921875
v -4223.6171875 294.87139892578125 -24430.150390625
v -4224.77392578125 289.99136352539062 -24432.30078125
v -4226.68896484375 286.3226318359375 -24435.85546875
v -4229.1025390625 284.36062622070312 -24440.33984375
v -4231.689453125 284.370361328125 -24445.142578125
v -4234.10009765625 286.35052490234375 -24449.62109375
v -4236.00830078125 290.03366088867188 -24453.1640625
v -4237.1572265625 294.92236328125 -24455.298828125
v -4237.3916015625 300.35635375976562 -24455.732421875
v -4236.67919921875 305.601806640625 -24454.41015625
v -4235.11669921875 309.95022583007812 -24451.5078125
v -4232.91455078125 312.81436157226562 -24447.419921875
v -4282.6748046875 298.96005249023438 -24414.5625
v -4281.76171875 293.49481201171875 -24415.06640625
v -4278.85498046875 288.46139526367188 -24416.640625
v -4274.42578125 285.1551513671875 -24419.033203125
v -4269.61474609375 284.11270141601562 -24421.625
v -4283.59228515625 295.10244750976562 -24418.46484375
v -4282.37158203125 291.54962158203125 -24423.171875
v -4279.05029296875 289.21591186523438 -24427.62109375
v -4282.6748046875 298.96005249023438 -24414.5625
v -4284.15283203125 296.87759399414062 -24419.505859375
v -4283.44775390625 294.95968627929688 -24425.171875
v -4280.46533203125 293.69989013671875 -24430.248046875
v -4282.6748046875 298.96005249023438 -24414.5625
v -4284.34814453125 298.96978759765625 -24419.869140625
v -4283.8232421875 298.97879028320312 -24425.869140625
v -4280.958984375 298.98468017578125 -24431.166015625
v -4283.5859375 302.83145141601562 -24418.453125
v -4282.359375 306.39697265625 -24423.1484375
v -4279.03369140625 308.739013671875 -24427.58984375
v -4282.6748046875 298.96005249023438 -24414.5625
v -4282.74462890625 304.01300048828125 -24416.890625
v -4280.74267578125 308.66671752929688 -24420.146484375
v -4276.908203125 311.72354125976562 -24423.642578125
v -4282.6748046875 298.96005249023438 -24414.5625
v -4281.75244140625 304.42529296875 -24415.048828125
v -4278.83740234375 309.45870971679688 -24416.607421875
v -4274.40234375 312.76495361328125 -24418.98828125
v -4282.6748046875 298.96005249023438 -24414.5625
v -4279.921875 302.81765747070312 -24411.6484375
v -4275.3203125 306.3704833984375 -24410.076171875
v -4269.7783203125 308.70416259765625 -24410.400390625
v -4282.6748046875 298.96005249023438 -24414.5625
v -4279.36181640625 301.04248046875 -24410.607421875
v -4274.244140625 302.96041870117188 -24408.078125
v -4268.36328125 304.22018432617188 -24407.7734375
v -4282.6748046875 298.96005249023438 -24414.5625
v -4279.166015625 298.95028686523438 -24410.244140625
v -4273.86865234375 298.94131469726562 -24407.380859375
v -4267.86962890625 298.9354248046875 -24406.85546875
v -4282.6748046875 298.96005249023438 -24414.5625
v -4279.365234375 296.85958862304688 -24410.615234375
v -4274.2509765625 294.92507934570312 -24408.08984375
v -4268.3720703125 293.65438842773438 -24407.7890625
v -4282.6748046875 298.96005249023438 -24414.5625
v -4279.92822265625 295.08865356445312 -24411.66015625
v -4275.3330078125 291.52313232421875 -24410.099609375
v -4269.794921875 289.18109130859375 -24410.431640625
v -4281.76171875 293.49481201171875 -24415.06640625
v -4278.85498046875 288.46139526367188 -24416.640625
v -4274.42578125 285.1551513671875 -24419.033203125
v -4269.61474609375 284.11270141601562 -24421.625
v -4283.2724609375 293.22531127929688 -24420.77734375
v -4280.7587890625 289.2677001953125 -24420.177734375
v -4280.55078125 290.83541870117188 -24415.72265625
v -4282.7529296875 293.91455078125 -24416.90625
v -4282.0244140625 291.45941162109375 -24418.458984375
v -4280.92919921875 290.18838500976562 -24425.5
v -4276.9296875 286.21542358398438 -24423.681640625
v -4276.76611328125 286.53286743164062 -24417.76953125
v -4279.02001953125 287.48733520507812 -24421.955078125
v -4276.8837890625 288.65505981445312 -24429.42578125
v -4271.9931640625 284.36056518554688 -24420.34375
v -4274.64111328125 285.48184204101562 -24425.26171875
v -4283.36083984375 300.87380981445312 -24416.359375
v -4284.14892578125 301.06051635742188 -24419.5
v -4283.73779296875 298.96487426757812 -24417.05859375
v -4282.6748046875 298.96005249023438 -24414.5625
v -4283.63916015625 299.99838256835938 -24416.876953125
v -4283.2626953125 304.71527099609375 -24420.759765625
v -4283.44091796875 302.99502563476562 -24425.158203125
v -4284.39599609375 298.97454833984375 -24422.86328125
v -4284.10009765625 302.08261108398438 -24422.314453125
v -4276.8662109375 309.30184936523438 -24429.39453125
v -4278.90234375 298.986083984375 -24433.17578125
v -4280.4560546875 304.26571655273438 -24430.232421875
v -4278.37060546875 304.57110595703125 -24432.1875
v -4267.078125 309.2650146484375 -24411.21484375
v -4271.96875 313.55953979492188 -24420.298828125
v -4271.89892578125 311.70468139648438 -24414.33984375
v -4269.32080078125 312.438232421875 -24415.380859375
v -4282.458984375 296.25836181640625 -24414.685546875
v -4280.77001953125 293.9071044921875 -24413.22265625
v -4281.552734375 297.0462646484375 -24413.001953125
v -4282.6748046875 298.96005249023438 -24414.5625
v -4281.96875 296.46218872070312 -24413.7734375
v -4280.55078125 290.83541870117188 -24415.72265625
v -4276.94970703125 289.25338745117188 -24413.1015625
v -4277.8251953125 293.204833984375 -24410.66015625
v -4279.07666015625 291.44833374023438 -24412.984375
v -4276.76611328125 286.53286743164062 -24417.76953125
v -4271.92041015625 286.19656372070312 -24414.37890625
v -4272.59716796875 290.15704345703125 -24410.02734375
v -4274.5107421875 287.47036743164062 -24413.580078125
v -4271.9931640625 284.36056518554688 -24420.34375
v -4267.095703125 288.61822509765625 -24411.248046875
v -4269.34375 285.4619140625 -24415.423828125
v -4283.3642578125 297.0531005859375 -24416.365234375
v -4282.458984375 296.25836181640625 -24414.685546875
v -4282.6748046875 298.96005249023438 -24414.5625
v -4282.94921875 296.46588134765625 -24415.59375
v -4267.20654296875 284.9990234375 -24417.15234375
v -4265.08740234375 287.56927490234375 -24413.216796875
v -4263.5126953125 291.513427734375 -24410.29296875
v -4262.67236328125 296.35574340820312 -24408.732421875
v -4262.66796875 301.51217651367188 -24408.72265625
v -4263.5 306.36077880859375 -24410.26953125
v -4265.06787109375 310.31674194335938 -24413.181640625
v -4267.18310546875 312.9029541015625 -24417.109375
v -4269.58984375 313.80740356445312 -24421.578125
v -4271.998046875 312.92105102539062 -24426.05078125
v -4274.1171875 310.35079956054688 -24429.986328125
v -4275.69189453125 306.40667724609375 -24432.912109375
v -4276.53173828125 301.56436157226562 -24434.47265625
v -4276.5361328125 296.40792846679688 -24434.48046875
v -4275.7041015625 291.55929565429688 -24432.935546875
v -4274.13623046875 287.60333251953125 -24430.0234375
v -4272.021484375 285.01715087890625 -24426.095703125
v -4269.58984375 313.80740356445312 -24421.578125
v -4249.98046875 313.80740356445312 -24432.13671875
v -4230.37109375 313.80740356445312 -24442.6953125
v -4245.0068359375 309.43997192382812 -24422.900390625
v -4250.00537109375 284.11270141601562 -24432.18359375
v -4254.97900390625 288.4801025390625 -24441.419921875
v -4257.03173828125 298.98654174804688 -24445.232421875
v -4254.96142578125 309.47744750976562 -24441.38671875
v -4252.6748046875 312.68734741210938 -24437.140625
v -4269.58984375 313.80740356445312 -24421.578125
v -4249.98046875 313.80740356445312 -24432.13671875
v -4230.37109375 313.80740356445312 -24442.6953125
v -4254.8115234375 309.43997192382812 -24417.62109375
v -4247.28759765625 312.66708374023438 -24427.13671875
v -4259.78515625 313.80740356445312 -24426.857421875
v -4257.09228515625 312.66708374023438 -24421.857421875
v -4235.2021484375 309.43997192382812 -24428.1796875
v -4240.17578125 313.80740356445312 -24437.416015625
v -4237.48291015625 312.66708374023438 -24432.4140625
v -4264.78369140625 288.4801025390625 -24436.140625
v -4252.6982421875 285.25302124023438 -24437.18359375
v -4259.81005859375 284.11270141601562 -24426.904296875
v -4262.5029296875 285.25302124023438 -24431.904296875
v -4264.76611328125 309.47744750976562 -24436.107421875
v -4256.4912109375 304.66635131835938 -24444.228515625
v -4266.83642578125 298.98654174804688 -24439.953125
v -4266.2958984375 304.66635131835938 -24438.94921875
v -4245.15673828125 309.47744750976562 -24446.666015625
v -4247.22705078125 298.98654174804688 -24450.51171875
v -4246.6865234375 304.66635131835938 -24449.5078125
v -4259.78515625 313.80740356445312 -24426.857421875
v -4251.35400390625 313.52728271484375 -24434.6875
v -4262.4794921875 312.68734741210938 -24431.861328125
v -4261.15869140625 313.52728271484375 -24429.408203125
v -4240.17578125 313.80740356445312 -24437.416015625
v -4242.87060546875 312.68734741210938 -24442.419921875
v -4241.54931640625 313.52728271484375 -24439.966796875
v -4232.91455078125 312.81436157226562 -24447.419921875
v -4235.11669921875 309.95022583007812 -24451.5078125
v -4236.67919921875 305.601806640625 -24454.41015625
v -4237.3916015625 300.35635375976562 -24455.732421875
v -4237.1572265625 294.92236328125 -24455.298828125
v -4236.00830078125 290.03366088867188 -24453.1640625
v -4234.10009765625 286.35052490234375 -24449.62109375
v -4231.689453125 284.370361328125 -24445.142578125
v -4229.1025390625 284.36062622070312 -24440.33984375
v -4226.68896484375 286.3226318359375 -24435.85546875
v -4224.77392578125 289.99136352539062 -24432.30078125
v -4223.6171875 294.87139892578125 -24430.150390625
v -4223.37353515625 300.30361938476562 -24429.69921875
v -4224.0771484375 305.55438232421875 -24431.005859375
v -4225.63232421875 309.91452026367188 -24433.89453125
v -4227.8291015625 312.79522705078125 -24437.974609375
v -4267.18310546875 312.9029541015625 -24417.109375
v -4265.06787109375 310.31674194335938 -24413.181640625
v -4263.5 306.36077880859375 -24410.26953125
v -4262.66796875 301.51217651367188 -24408.72265625
v -4262.67236328125 296.35574340820312 -24408.732421875
v -4263.5126953125 291.513427734375 -24410.29296875
v -4265.08740234375 287.56927490234375 -24413.216796875
v -4267.20654296875 284.9990234375 -24417.15234375
v -4269.61474609375 284.11270141601562 -24421.625
v -4272.021484375 285.01715087890625 -24426.095703125
v -4274.13623046875 287.60333251953125 -24430.0234375
v -4275.7041015625 291.55929565429688 -24432.935546875
v -4276.5361328125 296.40792846679688 -24434.48046875
v -4276.53173828125 301.56436157226562 -24434.47265625
v -4275.69189453125 306.40667724609375 -24432.912109375
v -4274.1171875 310.35079956054688 -24429.986328125
v -4271.998046875 312.92105102539062 -24426.05078125
v -4242.9541015625 298.93356323242188 -24419.087890625
v -4243.49462890625 293.25372314453125 -24420.091796875
v -4245.0244140625 288.44265747070312 -24422.93359375
v -4247.31103515625 285.23272705078125 -24427.1796875
vt 0.97037225961685181 0
vt 0.90923827886581421 0
vt 0.84810435771942139 0
vt 0.90923827886581421 0.077386476099491119
vt 0.84810435771942139 0.077386476099491119
vt 0.72583651542663574 0.077386476099491119
vt 0.90923827886581421 0.15482795238494873
vt 0.84810435771942139 0.15482795238494873
vt 0.72583651542663574 0.15482795238494873
vt 0.90923827886581421 0.23067262768745422
vt 0.84810435771942139 0.23067262768745422
vt 0.72583651542663574 0.23067262768745422
vt 0.90923827886581421 0.30916804075241089
vt 0.84810435771942139 0.30916804075241089
vt 0.72583651542663574 0.30916804075241089
vt 0.90923827886581421 0.38550058007240295
vt 0.84810435771942139 0.38550058007240295
vt 0.72583651542663574 0.38550058007240295
vt 0.90923827886581421 0.46134525537490845
vt 0.84810435771942139 0.46134525537490845
vt 0.72583651542663574 0.46134525537490845
vt 0.90923827886581421 0.53930801153182983
vt 0.84810435771942139 0.53930801153182983
vt 0.72583651542663574 0.53930801153182983
vt 0.90923827886581421 0.61617320775985718
vt 0.84810435771942139 0.61617320775985718
vt 0.72583651542663574 0.61617320775985718
vt 0.90923827886581421 0.69201785326004028
vt 0.84810435771942139 0.69201785326004028
vt 0.72583651542663574 0.69201785326004028
vt 0.90923827886581421 0.76944786310195923
vt 0.84810435771942139 0.76944786310195923
vt 0.72583651542663574 0.76944786310195923
vt 0.90923827886581421 0.84684580564498901
vt 0.84810435771942139 0.84684580564498901
vt 0.72583651542663574 0.84684580564498901
vt 0.90923827886581421 0.92269051074981689
vt 0.84810435771942139 0.92269051074981689
vt 0.72583651542663574 0.92269051074981689
vt 0.97037225961685181 0.99853515625
vt 0.90923827886581421 0.99853515625
vt 0.84810435771942139 0.99853515625
vt 0.72583651542663574 0.99853515625
vt 0.97037225961685181 0.058737363666296005
vt 0.97037225961685181 0.11747472733259201
vt 0.97037225961685181 0.17621208727359772
vt 0.97037225961685181 0.23494945466518402
vt 0.97037225961685181 0.29368683695793152
vt 0.97037225961685181 0.35242417454719543
vt 0.97037225961685181 0.41116154193878174
vt 0.97037225961685181 0.46989890933036804
vt 0.97037225961685181 0.52863627672195435
vt 0.97037225961685181 0.58737367391586304
vt 0.97037225961685181 0.64611101150512695
vt 0.97037225961685181 0.70484834909439087
vt 0.97037225961685181 0.76358574628829956
vt 0.97037225961685181 0.82232308387756348
vt 0.97037225961685181 0.88106042146682739
vt 0.97037225961685181 0.93979781866073608
vt 0.72437167167663574 0
vt 0.66264212131500244 0
vt 0.60091257095336914 0
vt 0.53918296098709106 0
vt 0.47745344042778015 0
vt 0.66264212131500244 0.12300027906894684
vt 0.60091257095336914 0.12300027906894684
vt 0.53918296098709106 0.12300027906894684
vt 0.72437167167663574 0.18450041115283966
vt 0.66264212131500244 0.18450041115283966
vt 0.60091257095336914 0.18450041115283966
vt 0.53918296098709106 0.18450041115283966
vt 0.72437167167663574 0.24600055813789368
vt 0.66264212131500244 0.24600055813789368
vt 0.60091257095336914 0.24600055813789368
vt 0.53918296098709106 0.24600055813789368
vt 0.66264212131500244 0.36900082230567932
vt 0.60091257095336914 0.36900082230567932
vt 0.53918296098709106 0.36900082230567932
vt 0.72437167167663574 0.43050098419189453
vt 0.66264212131500244 0.43050098419189453
vt 0.60091257095336914 0.43050098419189453
vt 0.53918296098709106 0.43050098419189453
vt 0.72437167167663574 0.49200111627578735
vt 0.66264212131500244 0.49200111627578735
vt 0.60091257095336914 0.49200111627578735
vt 0.53918296098709106 0.49200111627578735
vt 0.72437167167663574 0.615001380443573
vt 0.66264212131500244 0.615001380443573
vt 0.60091257095336914 0.615001380443573
vt 0.53918296098709106 0.615001380443573
vt 0.72437167167663574 0.67650151252746582
vt 0.66264212131500244 0.67650151252746582
vt 0.60091257095336914 0.67650151252746582
vt 0.53918296098709106 0.67650151252746582
vt 0.72437167167663574 0.73800164461135864
vt 0.66264212131500244 0.73800164461135864
vt 0.60091257095336914 0.73800164461135864
vt 0.53918296098709106 0.73800164461135864
vt 0.72437167167663574 0.79950183629989624
vt 0.66264212131500244 0.79950183629989624
vt 0.60091257095336914 0.79950183629989624
vt 0.53918296098709106 0.79950183629989624
vt 0.72437167167663574 0.86100196838378906
vt 0.66264212131500244 0.86100196838378906
vt 0.60091257095336914 0.86100196838378906
vt 0.53918296098709106 0.86100196838378906
vt 0.66264212131500244 0.98400223255157471
vt 0.60091257095336914 0.98400223255157471
vt 0.53918296098709106 0.98400223255157471
vt 0.47745344042778015 0.98400223255157471
vt 0.63177734613418579 0.12300027906894684
vt 0.60091257095336914 0.061500139534473419
vt 0.63177734613418579 0
vt 0.66264212131500244 0.061500139534473419
vt 0.63177734613418579 0.061500139534473419
vt 0.57004779577255249 0.12300027906894684
vt 0.53918296098709106 0.061500139534473419
vt 0.57004779577255249 0
vt 0.57004779577255249 0.061500139534473419
vt 0.50831818580627441 0.12300027906894684
vt 0.50831818580627441 0
vt 0.50831818580627441 0.061500139534473419
vt 0.69350689649581909 0.36900082230567932
vt 0.66264212131500244 0.3075006902217865
vt 0.69350689649581909 0.24600055813789368
vt 0.72437167167663574 0.3075006902217865
vt 0.69350689649581909 0.3075006902217865
vt 0.63177734613418579 0.36900082230567932
vt 0.60091257095336914 0.3075006902217865
vt 0.63177734613418579 0.24600055813789368
vt 0.63177734613418579 0.3075006902217865
vt 0.50831818580627441 0.36900082230567932
vt 0.50831818580627441 0.24600055813789368
vt 0.53918296098709106 0.3075006902217865
vt 0.50831818580627441 0.3075006902217865
vt 0.50831818580627441 0.615001380443573
vt 0.50831818580627441 0.49200111627578735
vt 0.53918296098709106 0.55350124835968018
vt 0.50831818580627441 0.55350124835968018
vt 0.69350689649581909 0.98400223255157471
vt 0.66264212131500244 0.92250210046768188
vt 0.69350689649581909 0.86100196838378906
vt 0.72437167167663574 0.92250210046768188
vt 0.69350689649581909 0.92250210046768188
vt 0.63177734613418579 0.98400223255157471
vt 0.60091257095336914 0.92250210046768188
vt 0.63177734613418579 0.86100196838378906
vt 0.63177734613418579 0.92250210046768188
vt 0.57004779577255249 0.98400223255157471
vt 0.53918296098709106 0.92250210046768188
vt 0.57004779577255249 0.86100196838378906
vt 0.57004779577255249 0.92250210046768188
vt 0.50831818580627441 0.98400223255157471
vt 0.50831818580627441 0.86100196838378906
vt 0.50831818580627441 0.92250210046768188
vt 0.69350689649581909 0.12300027906894684
vt 0.69350689649581909 0
vt 0.72437167167663574 0.061500139534473419
vt 0.69350689649581909 0.061500139534473419
vt 0.47745344042778015 0.92933541536331177
vt 0.47745344042778015 0.8746686577796936
vt 0.47745344042778015 0.82000184059143066
vt 0.47745344042778015 0.7653350830078125
vt 0.47745344042778015 0.71066826581954956
vt 0.47745344042778015 0.6560015082359314
vt 0.47745344042778015 0.60133469104766846
vt 0.47745344042778015 0.54666793346405029
vt 0.47745344042778015 0.49200111627578735
vt 0.47745344042778015 0.4373343288898468
vt 0.47745344042778015 0.38266754150390625
vt 0.47745344042778015 0.3280007541179657
vt 0.47745344042778015 0.27333396673202515
vt 0.47745344042778015 0.2186671644449234
vt 0.47745344042778015 0.16400037705898285
vt 0.47745344042778015 0.1093335822224617
vt 0.47745344042778015 0.05466679111123085
vt 0.47598859667778015 0
vt 0.23799429833889008 0
vt 0 0
vt 0.23799429833889008 0.12329809367656708
vt 0.23799429833889008 0.49319237470626831
vt 0.23799429833889008 0.61649048328399658
vt 0.23799429833889008 0.73978859186172485
vt 0.23799429833889008 0.86308664083480835
vt 0.23799429833889008 0.92473572492599487
vt 0.47598859667778015 0.98638474941253662
vt 0.23799429833889008 0.98638474941253662
vt 0 0.98638474941253662
vt 0.35699144005775452 0.12329809367656708
vt 0.23799429833889008 0.061649046838283539
vt 0.35699144005775452 0
vt 0.35699144005775452 0.061649046838283539
vt 0.11899714916944504 0.12329809367656708
vt 0.11899714916944504 0
vt 0.11899714916944504 0.061649046838283539
vt 0.35699144005775452 0.61649048328399658
vt 0.23799429833889008 0.55484139919281006
vt 0.35699144005775452 0.49319237470626831
vt 0.35699144005775452 0.55484139919281006
vt 0.35699144005775452 0.86308664083480835
vt 0.23799429833889008 0.8014376163482666
vt 0.35699144005775452 0.73978859186172485
vt 0.35699144005775452 0.8014376163482666
vt 0.11899714916944504 0.86308664083480835
vt 0.11899714916944504 0.73978859186172485
vt 0.11899714916944504 0.8014376163482666
vt 0.35699144005775452 0.98638474941253662
vt 0.23799429833889008 0.95556020736694336
vt 0.35699144005775452 0.92473572492599487
vt 0.35699144005775452 0.95556020736694336
vt 0.11899714916944504 0.98638474941253662
vt 0.11899714916944504 0.92473572492599487
vt 0.11899714916944504 0.95556020736694336
vt 0 0.92836213111877441
vt 0 0.87033951282501221
vt 0 0.81231689453125
vt 0 0.75429421663284302
vt 0 0.69627159833908081
vt 0 0.6382489800453186
vt 0 0.5802263617515564
vt 0 0.52220374345779419
vt 0 0.46418106555938721
vt 0 0.406158447265625
vt 0 0.34813579916954041
vt 0 0.2901131808757782
vt 0 0.2320905327796936
vt 0 0.1740678995847702
vt 0 0.1160452663898468
vt 0 0.058022633194923401
vt 0.47598859667778015 0.0547991544008255
vt 0.47598859667778015 0.109598308801651
vt 0.47598859667778015 0.1643974632024765
vt 0.47598859667778015 0.219196617603302
vt 0.47598859667778015 0.2739957869052887
vt 0.47598859667778015 0.328794926404953
vt 0.47598859667778015 0.38359406590461731
vt 0.47598859667778015 0.438393235206604
vt 0.47598859667778015 0.49319237470626831
vt 0.47598859667778015 0.54799157381057739
vt 0.47598859667778015 0.60279065370559692
vt 0.47598859667778015 0.65758985280990601
vt 0.47598859667778015 0.71238899230957031
vt 0.47598859667778015 0.76718813180923462
vt 0.47598859667778015 0.82198727130889893
vt 0.47598859667778015 0.87678647041320801
vt 0.47598859667778015 0.93158555030822754
vt 0.23799429833889008 0.24659618735313416
vt 0.23799429833889008 0.30824524164199829
vt 0.23799429833889008 0.36989429593086243
vt 0.23799429833889008 0.43154332041740417
vn 0.00084581976989284158 0.99999839067459106 0.0015708811115473509
vn 0.32488656044006348 0.9297868013381958 -0.1730467677116394
vn 0.62319165468215942 0.70710563659667969 -0.33411633968353271
vn 0.53105670213699341 0.8209373950958252 0.20985840260982513
vn 0.77998465299606323 0.62432533502578735 -0.042915821075439453
vn 0.88048028945922852 0 -0.47408273816108704
vn 0.68920141458511353 0.52097916603088379 0.50356936454772949
vn 0.90025418996810913 0.39620622992515564 0.18045224249362946
vn 0.88048028945922852 0 -0.47408273816108704
vn 0.76185595989227295 0.10902400314807892 0.63850551843643188
vn 0.95550817251205444 0.082913078367710114 0.28307157754898071
vn 0.88048028945922852 0 -0.47408273816108704
vn 0.73403865098953247 -0.34176483750343323 0.58684241771697998
vn 0.9343530535697937 -0.25991317629814148 0.24378165602684021
vn 0.88048028945922852 0 -0.47408273816108704
vn 0.61278891563415527 -0.70263516902923584 0.3616538941860199
vn 0.84214228391647339 -0.53435611724853516 0.072525113821029663
vn 0.88048028945922852 0 -0.47408273816108704
vn 0.42752447724342346 -0.90383291244506836 0.017575344070792198
vn 0.70124810934066772 -0.68736761808395386 -0.18914766609668732
vn 0.88048028945922852 0 -0.47408273816108704
vn 0.21345116198062897 -0.90001815557479858 -0.38000786304473877
vn 0.53844469785690308 -0.68446648120880127 -0.49151086807250977
vn 0.88048028945922852 0 -0.47408273816108704
vn 0.027723215520381927 -0.68824630975723267 -0.72494721412658691
vn 0.39719805121421814 -0.52341336011886597 -0.75383830070495605
vn 0.88048028945922852 0 -0.47408273816108704
vn -0.089034803211688995 -0.32418763637542725 -0.94179362058639526
vn 0.30840322375297546 -0.24654565751552582 -0.9187505841255188
vn 0.88048028945922852 0 -0.47408273816108704
vn -0.1129155233502388 0.12151963263750076 -0.98614555597305298
vn 0.29024186730384827 0.092416040599346161 -0.95248043537139893
vn 0.88048028945922852 0 -0.47408273816108704
vn -0.035143226385116577 0.53879338502883911 -0.8417046070098877
vn 0.34938794374465942 0.40975400805473328 -0.84263265132904053
vn 0.88048028945922852 0 -0.47408273816108704
vn 0.12232619524002075 0.82665783166885376 -0.54924780130386353
vn 0.46914389729499817 0.62867575883865356 -0.62021833658218384
vn 0.88048028945922852 0 -0.47408273816108704
vn 0.00084581976989284158 0.99999839067459106 0.0015708811115473509
vn 0.32488656044006348 0.9297868013381958 -0.1730467677116394
vn 0.62319165468215942 0.70710563659667969 -0.33411633968353271
vn 0.88048028945922852 0 -0.47408273816108704
vn 0.17204686999320984 0.93182623386383057 0.31953045725822449
vn 0.32001203298568726 0.73780578374862671 0.59433567523956299
vn 0.42475780844688416 0.44414058327674866 0.78887259960174561
vn 0.4721376895904541 0.090491704642772675 0.87686789035797119
vn 0.45575276017189026 -0.27537855505943298 0.84643727540969849
vn 0.37781587243080139 -0.6040574312210083 0.701690673828125
vn 0.24885287880897522 -0.85115498304367065 0.46217682957649231
vn 0.08628091961145401 -0.9832993745803833 0.1602434366941452
vn -0.087943755090236664 -0.982643723487854 -0.16333170235157013
vn -0.2502911388874054 -0.84927654266357422 -0.46484801173210144
vn -0.37883532047271729 -0.60120993852615356 -0.70358401536941528
vn -0.45621567964553833 -0.27194654941558838 -0.8472970724105835
vn -0.47198161482810974 0.094044722616672516 -0.87657797336578369
vn -0.42400377988815308 0.44733473658561707 -0.7874721884727478
vn -0.3187619149684906 0.74020969867706299 -0.5920138955116272
vn -0.17046946287155151 0.93311524391174316 -0.31660085916519165
vn -0.88048028945922852 0 0.47408273816108704
vn -0.81897163391113281 -0.36809411644935608 0.44021835923194885
vn -0.62319165468215942 -0.70710563659667969 0.33411633968353271
vn -0.32488656044006348 -0.9297868013381958 0.1730467677116394
vn -0.00084581976989284158 -0.99999839067459106 -0.0015708811115473509
vn -0.94227558374404907 -0.25981748104095459 0.21121467649936676
vn -0.86005747318267822 -0.49910715222358704 -0.10579776018857956
vn -0.63634598255157471 -0.65628558397293091 -0.40540474653244019
vn -0.88048028945922852 0 0.47408273816108704
vn -0.98000293970108032 -0.14025679230690002 0.14114630222320557
vn -0.93253147602081299 -0.26943209767341614 -0.24039851129055023
vn -0.73164337873458862 -0.35428142547607422 -0.58239388465881348
vn -0.88048028945922852 0 0.47408273816108704
vn -0.99316734075546265 0.00065672455821186304 0.11669697612524033
vn -0.95782017707824707 0.0012615622254088521 -0.28736546635627747
vn -0.76489603519439697 0.0016588524449616671 -0.64415162801742554
vn -0.94183528423309326 0.26074621081352234 0.21203242242336273
vn -0.85921168327331543 0.50089126825332642 -0.10422687977552414
vn -0.63523381948471069 0.65863156318664551 -0.40333917737007141
vn -0.88048028945922852 0 0.47408273816108704
vn -0.88515359163284302 0.34032595157623291 0.31730327010154724
vn -0.75032669305801392 0.65376323461532593 0.097997486591339111
vn -0.49205884337425232 0.85964584350585938 -0.13743047416210175
vn -0.88048028945922852 0 0.47408273816108704
vn -0.81834894418716431 0.36809411644935608 0.44137483835220337
vn -0.62199550867080688 0.70710563659667969 0.33633789420127869
vn -0.32331371307373047 0.9297868013381958 0.17596794664859772
vn -0.88048028945922852 0 0.47408273816108704
vn -0.69504499435424805 0.25981748104095459 0.67037850618362427
vn -0.38512969017028809 0.49910715222358704 0.77625203132629395
vn -0.011854279786348343 0.65628558397293091 0.75441944599151611
vn -0.88048028945922852 0 0.47408273816108704
vn -0.6573176383972168 0.14025679230690002 0.74044686555862427
vn -0.31265571713447571 0.26943209767341614 0.91085278987884521
vn 0.083443120121955872 0.35428142547607422 0.9314085841178894
vn -0.88048028945922852 0 0.47408273816108704
vn -0.6441531777381897 -0.00065672455821186304 0.7648962140083313
vn -0.28736698627471924 -0.0012615622254088521 0.95781970024108887
vn 0.11669575423002243 -0.0016588524449616671 0.99316632747650146
vn -0.88048028945922852 0 0.47408273816108704
vn -0.65755587816238403 -0.14147025346755981 0.74000430107116699
vn -0.31311348080635071 -0.2717631459236145 0.91000258922576904
vn 0.082841210067272186 -0.35734659433364868 0.93029069900512695
vn -0.88048028945922852 0 0.47408273816108704
vn -0.69548529386520386 -0.26074621081352234 0.66956079006195068
vn -0.38597550988197327 -0.50089126825332642 0.77468115091323853
vn -0.012966464273631573 -0.65863156318664551 0.75235384702682495
vn -0.81897163391113281 -0.36809411644935608 0.44021835923194885
vn -0.62319165468215942 -0.70710563659667969 0.33411633968353271
vn -0.32488656044006348 -0.9297868013381958 0.1730467677116394
vn -0.00084581976989284158 -0.99999839067459106 -0.0015708811115473509
vn -0.92072457075119019 -0.38624477386474609 0.055508565157651901
vn -0.75143182277679443 -0.6527976393699646 0.095945030450820923
vn -0.73742091655731201 -0.54720890522003174 0.39594551920890808
vn -0.88572889566421509 -0.33982330560684204 0.31623482704162598
vn -0.83666229248046875 -0.50518149137496948 0.21163155138492584
vn -0.76289117336273193 -0.59078836441040039 -0.26261422038078308
vn -0.49351200461387634 -0.85837620496749878 -0.14012928307056427
vn -0.4825153648853302 -0.83699417114257812 0.25810787081718445
vn -0.6343119740486145 -0.77271032333374023 -0.023813219740986824
vn -0.49043309688568115 -0.69406026601791382 -0.52702534198760986
vn -0.1610465794801712 -0.98330378532409668 0.084720887243747711
vn -0.33937779068946838 -0.9077829122543335 -0.24648104608058929
vn -0.92667102813720703 0.12889666855335236 0.35308137536048889
vn -0.97976464033126831 0.14147025346755981 0.14158886671066284
vn -0.95204639434814453 0.0003246436535846442 0.30595347285270691
vn -0.88048028945922852 0 0.47408273816108704
vn -0.94542092084884644 0.069934062659740448 0.31825849413871765
vn -0.92007005214691162 0.38762545585632324 0.056724224239587784
vn -0.93207371234893799 0.2717631459236145 -0.23954835534095764
vn -0.99638032913208008 0.00097628706134855747 -0.08500150591135025
vn -0.97645586729049683 0.21030974388122559 -0.047997202724218369
vn -0.48925688862800598 0.69654130935668945 -0.5248408317565918
vn -0.62638223171234131 0.0017543332651257515 -0.77951407432556152
vn -0.73104149103164673 0.35734659433364868 -0.58127599954605103
vn -0.59057909250259399 0.37791487574577332 -0.71301943063735962
vn 0.17000332474708557 0.69406026601791382 0.69955641031265259
vn -0.15938317775726318 0.98330378532409668 0.087810203433036804
vn -0.1546882838010788 0.85837620496749878 0.48914399743080139
vn 0.018948037177324295 0.9077829122543335 0.41901212930679321
vn -0.86593490839004517 -0.1819627583026886 0.46588227152824402
vn -0.75216692686080933 -0.34032595157623291 0.56428992748260498
vn -0.80489099025726318 -0.12889666855335236 0.5792548656463623
vn -0.88048028945922852 0 0.47408273816108704
vn -0.83291083574295044 -0.16823591291904449 0.52721554040908813
vn -0.73742091655731201 -0.54720890522003174 0.39594551920890808
vn -0.49486047029495239 -0.65376323461532593 0.57245677709579468
vn -0.55384606122970581 -0.38762545585632324 0.73688602447509766
vn -0.63810902833938599 -0.50592869520187378 0.58039039373397827
vn -0.4825153648853302 -0.83699417114257812 0.25810787081718445
vn -0.15614141523838043 -0.85964584350585938 0.48644515872001648
vn -0.20172484219074249 -0.59290015697479248 0.77960020303726196
vn -0.3306109607219696 -0.77385324239730835 0.54022914171218872
vn -0.1610465794801712 -0.98330378532409668 0.084720887243747711
vn 0.16882713139057159 -0.69654130935668945 0.6973719596862793
vn 0.017411258071660995 -0.90912562608718872 0.41615799069404602
vn -0.92688870429992676 -0.12843754887580872 0.35267713665962219
vn -0.86593490839004517 -0.1819627583026886 0.46588227152824402
vn -0.88048028945922852 0 0.47408273816108704
vn -0.89893555641174316 -0.16798743605613708 0.40459254384040833
vn 0.1613507866859436 -0.94030135869979858 0.29966536164283752
vn 0.30408608913421631 -0.76719003915786743 0.5647575855255127
vn 0.4101441502571106 -0.5015442967414856 0.76173162460327148
vn 0.46673274040222168 -0.17540492117404938 0.86682963371276855
vn 0.46702650189399719 0.17189088463783264 0.86737519502639771
vn 0.41098996996879578 0.49845412373542786 0.7633025050163269
vn 0.30538195371627808 0.76489639282226562 0.56716430187225342
vn 0.16294039785861969 0.93908089399337769 0.30261766910552979
vn 0.00084581976989284158 0.99999839067459106 0.0015708811115473509
vn -0.1613507866859436 0.94030135869979858 -0.29966536164283752
vn -0.30408608913421631 0.76719003915786743 -0.5647575855255127
vn -0.4101441502571106 0.5015442967414856 -0.76173162460327148
vn -0.46673274040222168 0.17540492117404938 -0.86682963371276855
vn -0.46702650189399719 -0.17189088463783264 -0.86737519502639771
vn -0.41098996996879578 -0.49845412373542786 -0.7633025050163269
vn -0.30538195371627808 -0.76489639282226562 -0.56716430187225342
vn -0.16294039785861969 -0.93908089399337769 -0.30261766910552979
vn 0.00084581976989284158 0.99999839067459106 0.0015708811115473509
vn 0.00084581976989284158 0.99999839067459106 0.0015708811115473509
vn 0.00084581976989284158 0.99999839067459106 0.0015708811115473509
vn 0.33582466840744019 0.70584410429000854 0.62370336055755615
vn -0.00084581976989284158 -0.99999839067459106 -0.0015708811115473509
vn -0.33582466840744019 -0.70584410429000854 -0.62370336055755615
vn -0.47408199310302734 0.0017841184744611382 -0.88047891855239868
vn -0.33462852239608765 0.70836722850799561 -0.62148183584213257
vn -0.18064188957214355 0.9245607852935791 -0.33549338579177856
vn 0.00084581976989284158 0.99999839067459106 0.0015708811115473509
vn 0.00084581976989284158 0.99999839067459106 0.0015708811115473509
vn 0.00084581976989284158 0.99999839067459106 0.0015708811115473509
vn 0.33582466840744019 0.70584410429000854 0.62370336055755615
vn 0.18220476806163788 0.92319530248641968 0.33839598298072815
vn 0.00084581976989284158 0.99999839067459106 0.0015708811115473509
vn 0.18220476806163788 0.92319530248641968 0.33839598298072815
vn 0.33582466840744019 0.70584410429000854 0.62370336055755615
vn 0.00084581976989284158 0.99999839067459106 0.0015708811115473509
vn 0.18220476806163788 0.92319530248641968 0.33839598298072815
vn -0.33582466840744019 -0.70584410429000854 -0.62370336055755615
vn -0.18220476806163788 -0.92319530248641968 -0.33839598298072815
vn -0.00084581976989284158 -0.99999839067459106 -0.0015708811115473509
vn -0.18220476806163788 -0.92319530248641968 -0.33839598298072815
vn -0.33462852239608765 0.70836722850799561 -0.62148183584213257
vn -0.43767097592353821 0.38433113694190979 -0.8128553032875061
vn -0.47408199310302734 0.0017841184744611382 -0.88047891855239868
vn -0.43767097592353821 0.38433113694190979 -0.8128553032875061
vn -0.33462852239608765 0.70836722850799561 -0.62148183584213257
vn -0.47408199310302734 0.0017841184744611382 -0.88047891855239868
vn -0.43767097592353821 0.38433113694190979 -0.8128553032875061
vn 0.00084581976989284158 0.99999839067459106 0.0015708811115473509
vn -0.091659240424633026 0.98113179206848145 -0.17023220658302307
vn -0.18064188957214355 0.9245607852935791 -0.33549338579177856
vn -0.091659240424633026 0.98113179206848145 -0.17023220658302307
vn 0.00084581976989284158 0.99999839067459106 0.0015708811115473509
vn -0.18064188957214355 0.9245607852935791 -0.33549338579177856
vn -0.091659240424633026 0.98113179206848145 -0.17023220658302307
vn -0.17046946287155151 0.93311524391174316 -0.31660085916519165
vn -0.3187619149684906 0.74020969867706299 -0.5920138955116272
vn -0.42400377988815308 0.44733473658561707 -0.7874721884727478
vn -0.47198161482810974 0.094044722616672516 -0.87657797336578369
vn -0.45621567964553833 -0.27194654941558838 -0.8472970724105835
vn -0.37883532047271729 -0.60120993852615356 -0.70358401536941528
vn -0.2502911388874054 -0.84927654266357422 -0.46484801173210144
vn -0.087943755090236664 -0.982643723487854 -0.16333170235157013
vn 0.08628091961145401 -0.9832993745803833 0.1602434366941452
vn 0.24885287880897522 -0.85115498304367065 0.46217682957649231
vn 0.37781587243080139 -0.6040574312210083 0.701690673828125
vn 0.45575276017189026 -0.27537855505943298 0.84643727540969849
vn 0.4721376895904541 0.090491704642772675 0.87686789035797119
vn 0.42475780844688416 0.44414058327674866 0.78887259960174561
vn 0.32001203298568726 0.73780578374862671 0.59433567523956299
vn 0.17204686999320984 0.93182623386383057 0.31953045725822449
vn 0.16294039785861969 0.93908089399337769 0.30261766910552979
vn 0.30538195371627808 0.76489639282226562 0.56716430187225342
vn 0.41098996996879578 0.49845412373542786 0.7633025050163269
vn 0.46702650189399719 0.17189088463783264 0.86737519502639771
vn 0.46673274040222168 -0.17540492117404938 0.86682963371276855
vn 0.4101441502571106 -0.5015442967414856 0.76173162460327148
vn 0.30408608913421631 -0.76719003915786743 0.5647575855255127
vn 0.1613507866859436 -0.94030135869979858 0.29966536164283752
vn -0.00084581976989284158 -0.99999839067459106 -0.0015708811115473509
vn -0.16294039785861969 -0.93908089399337769 -0.30261766910552979
vn -0.30538195371627808 -0.76489639282226562 -0.56716430187225342
vn -0.41098996996879578 -0.49845412373542786 -0.7633025050163269
vn -0.46702650189399719 -0.17189088463783264 -0.86737519502639771
vn -0.46673274040222168 0.17540492117404938 -0.86682963371276855
vn -0.4101441502571106 0.5015442967414856 -0.76173162460327148
vn -0.30408608913421631 0.76719003915786743 -0.5647575855255127
vn -0.1613507866859436 0.94030135869979858 -0.29966536164283752
vn 0.47408199310302734 -0.0017841184744611382 0.88047891855239868
vn 0.43767097592353821 -0.38433113694190979 0.8128553032875061
vn 0.33462852239608765 -0.70836722850799561 0.62148183584213257
vn 0.18064188957214355 -0.9245607852935791 0.33549338579177856
f 5/5/5 3/3/3 2/2/2 4/4/4
f 6/6/6 3/3/3 5/5/5
f 8/8/8 5/5/5 4/4/4 7/7/7
f 9/9/9 5/5/5 8/8/8
f 11/11/11 8/8/8 7/7/7 10/10/10
f 12/12/12 8/8/8 11/11/11
f 14/14/14 11/11/11 10/10/10 13/13/13
f 15/15/15 11/11/11 14/14/14
f 17/17/17 14/14/14 13/13/13 16/16/16
f 18/18/18 14/14/14 17/17/17
f 20/20/20 17/17/17 16/16/16 19/19/19
f 21/21/21 17/17/17 20/20/20
f 23/23/23 20/20/20 19/19/19 22/22/22
f 24/24/24 20/20/20 23/23/23
f 26/26/26 23/23/23 22/22/22 25/25/25
f 27/27/27 23/23/23 26/26/26
f 29/29/29 26/26/26 25/25/25 28/28/28
f 30/30/30 26/26/26 29/29/29
f 32/32/32 29/29/29 28/28/28 31/31/31
f 33/33/33 29/29/29 32/32/32
f 35/35/35 32/32/32 31/31/31 34/34/34
f 36/36/36 32/32/32 35/35/35
f 38/38/38 35/35/35 34/34/34 37/37/37
f 39/39/39 35/35/35 38/38/38
f 42/42/42 38/38/38 37/37/37 41/41/41
f 43/43/43 38/38/38 42/42/42
f 1/1/1 44/44/44 4/4/4 2/2/2
f 7/7/7 45/45/45 46/46/46
f 4/4/4 44/44/44 45/45/45
f 47/47/47 48/48/48 13/13/13 10/10/10
f 16/16/16 49/49/49 50/50/50
f 13/13/13 48/48/48 49/49/49
f 46/46/46 47/47/47 10/10/10 7/7/7
f 4/4/4 45/45/45 7/7/7
f 13/13/13 49/49/49 16/16/16
f 19/19/19 16/16/16 50/50/50 51/51/51
f 51/51/51 52/52/52 22/22/22 19/19/19
f 52/52/52 53/53/53 25/25/25 22/22/22
f 28/28/28 54/54/54 55/55/55
f 25/25/25 53/53/53 54/54/54
f 56/56/56 57/57/57 34/34/34 31/31/31
f 37/37/37 58/58/58 59/59/59
f 34/34/34 57/57/57 58/58/58
f 55/55/55 56/56/56 31/31/31 28/28/28
f 25/25/25 54/54/54 28/28/28
f 34/34/34 58/58/58 37/37/37
f 41/41/41 37/37/37 59/59/59 40/40/40
f 65/65/65 114/114/114 159/159/159 156/156/156
f 114/114/114 61/61/61 157/157/157 159/159/159
f 159/159/159 157/157/157 60/60/60
f 156/156/156 159/159/159 158/158/158
f 66/66/66 112/112/112 115/115/115 111/111/111
f 112/112/112 62/62/62 113/113/113 115/115/115
f 115/115/115 113/113/113 61/61/61 114/114/114
f 111/111/111 115/115/115 114/114/114 65/65/65
f 67/67/67 117/117/117 119/119/119 116/116/116
f 117/117/117 63/63/63 118/118/118 119/119/119
f 119/119/119 118/118/118 62/62/62 112/112/112
f 116/116/116 119/119/119 112/112/112 66/66/66
f 122/122/122 121/121/121 63/63/63 117/117/117
f 120/120/120 122/122/122 117/117/117 67/67/67
f 69/69/69 65/65/65 156/156/156
f 68/68/68 69/69/69 156/156/156
f 111/111/111 65/65/65 69/69/69
f 70/70/70 66/66/66 111/111/111
f 69/69/69 70/70/70 111/111/111
f 116/116/116 66/66/66 70/70/70
f 71/71/71 67/67/67 116/116/116
f 70/70/70 71/71/71 116/116/116
f 125/125/125 73/73/73 69/69/69
f 69/69/69 68/68/68 125/125/125
f 130/130/130 74/74/74 70/70/70
f 69/69/69 73/73/73 130/130/130
f 70/70/70 69/69/69 130/130/130
f 75/75/75 71/71/71 70/70/70 74/74/74
f 76/76/76 124/124/124 127/127/127 123/123/123
f 124/124/124 73/73/73 125/125/125 127/127/127
f 127/127/127 125/125/125 72/72/72
f 123/123/123 127/127/127 126/126/126
f 77/77/77 129/129/129 131/131/131 128/128/128
f 129/129/129 74/74/74 130/130/130 131/131/131
f 131/131/131 130/130/130 73/73/73 124/124/124
f 128/128/128 131/131/131 124/124/124 76/76/76
f 134/134/134 75/75/75 74/74/74 129/129/129
f 129/129/129 77/77/77 78/78/78 134/134/134
f 135/135/135 133/133/133 75/75/75 134/134/134
f 132/132/132 135/135/135 134/134/134 78/78/78
f 80/80/80 76/76/76 123/123/123
f 79/79/79 80/80/80 123/123/123
f 128/128/128 76/76/76 80/80/80
f 81/81/81 77/77/77 128/128/128
f 80/80/80 81/81/81 128/128/128
f 82/82/82 78/78/78 77/77/77 81/81/81
f 84/84/84 80/80/80 79/79/79
f 85/85/85 81/81/81 80/80/80 84/84/84
f 86/86/86 82/82/82 81/81/81 85/85/85
f 88/88/88 84/84/84 83/83/83
f 89/89/89 85/85/85 84/84/84 88/88/88
f 138/138/138 86/86/86 85/85/85
f 89/89/89 90/90/90 138/138/138
f 85/85/85 89/89/89 138/138/138
f 139/139/139 137/137/137 86/86/86 138/138/138
f 136/136/136 139/139/139 138/138/138 90/90/90
f 92/92/92 88/88/88 87/87/87
f 93/93/93 89/89/89 88/88/88 92/92/92
f 94/94/94 90/90/90 89/89/89 93/93/93
f 96/96/96 92/92/92 91/91/91
f 97/97/97 93/93/93 92/92/92 96/96/96
f 98/98/98 94/94/94 93/93/93 97/97/97
f 100/100/100 96/96/96 95/95/95
f 101/101/101 97/97/97 96/96/96 100/100/100
f 102/102/102 98/98/98 97/97/97 101/101/101
f 142/142/142 104/104/104 100/100/100
f 100/100/100 99/99/99 142/142/142
f 147/147/147 105/105/105 101/101/101
f 100/100/100 104/104/104 147/147/147
f 101/101/101 100/100/100 147/147/147
f 151/151/151 106/106/106 102/102/102
f 101/101/101 105/105/105 151/151/151
f 102/102/102 101/101/101 151/151/151
f 107/107/107 141/141/141 144/144/144 140/140/140
f 141/141/141 104/104/104 142/142/142 144/144/144
f 144/144/144 142/142/142 103/103/103
f 140/140/140 144/144/144 143/143/143
f 108/108/108 146/146/146 148/148/148 145/145/145
f 146/146/146 105/105/105 147/147/147 148/148/148
f 148/148/148 147/147/147 104/104/104 141/141/141
f 145/145/145 148/148/148 141/141/141 107/107/107
f 109/109/109 150/150/150 152/152/152 149/149/149
f 150/150/150 106/106/106 151/151/151 152/152/152
f 152/152/152 151/151/151 105/105/105 146/146/146
f 149/149/149 152/152/152 146/146/146 108/108/108
f 155/155/155 154/154/154 106/106/106 150/150/150
f 153/153/153 155/155/155 150/150/150 109/109/109
f 120/120/120 67/67/67 71/71/71
f 121/121/121 122/122/122 176/176/176 64/64/64
f 122/122/122 120/120/120 175/175/175 176/176/176
f 174/174/174 120/120/120 71/71/71
f 82/82/82 132/132/132 78/78/78
f 133/133/133 135/135/135 171/171/171 172/172/172
f 71/71/71 75/75/75 133/133/133
f 133/133/133 173/173/173 71/71/71
f 174/174/174 175/175/175 120/120/120
f 173/173/173 174/174/174 71/71/71
f 133/133/133 172/172/172 173/173/173
f 170/170/170 171/171/171 135/135/135 132/132/132
f 132/132/132 169/169/169 170/170/170
f 82/82/82 169/169/169 132/132/132
f 168/168/168 169/169/169 137/137/137
f 137/137/137 169/169/169 82/82/82
f 137/137/137 139/139/139 167/167/167 168/168/168
f 139/139/139 136/136/136 166/166/166 167/167/167
f 136/136/136 90/90/90 94/94/94
f 82/82/82 86/86/86 137/137/137
f 94/94/94 98/98/98 164/164/164 165/165/165
f 154/154/154 102/102/102 106/106/106
f 98/98/98 102/102/102 162/162/162 163/163/163
f 136/136/136 94/94/94 165/165/165
f 102/102/102 154/154/154 162/162/162
f 163/163/163 164/164/164 98/98/98
f 166/166/166 136/136/136 165/165/165
f 161/161/161 162/162/162 154/154/154
f 155/155/155 153/153/153 110/110/110 160/160/160
f 160/160/160 161/161/161 154/154/154 155/155/155
f 180/180/180 190/190/190 192/192/192 189/189/189
f 190/190/190 178/178/178 191/191/191 192/192/192
f 195/195/195 194/194/194 178/178/178 190/190/190
f 193/193/193 195/195/195 190/190/190 180/180/180
f 182/182/182 197/197/197 199/199/199 196/196/196
f 197/197/197 181/181/181 198/198/198 199/199/199
f 184/184/184 201/201/201 203/203/203 200/200/200
f 201/201/201 183/183/183 202/202/202 203/203/203
f 206/206/206 205/205/205 183/183/183 201/201/201
f 204/204/204 206/206/206 201/201/201 184/184/184
f 187/187/187 208/208/208 210/210/210 207/207/207
f 208/208/208 185/185/185 209/209/209 210/210/210
f 213/213/213 212/212/212 185/185/185 208/208/208
f 211/211/211 213/213/213 208/208/208 187/187/187
f 177/177/177 230/230/230 192/192/192 191/191/191
f 189/189/189 231/231/231 232/232/232
f 230/230/230 231/231/231 189/189/189 192/192/192
f 232/232/232 180/180/180 189/189/189
f 247/247/247 180/180/180 232/232/232 233/233/233
f 247/247/247 233/233/233 234/234/234
f 234/234/234 235/235/235 248/248/248 247/247/247
f 235/235/235 236/236/236 249/249/249 248/248/248
f 236/236/236 237/237/237 250/250/250 249/249/249
f 238/238/238 239/239/239 199/199/199 198/198/198
f 237/237/237 238/238/238 198/198/198
f 237/237/237 198/198/198 250/250/250
f 180/180/180 247/247/247 226/226/226 227/227/227
f 229/229/229 179/179/179 194/194/194 195/195/195
f 195/195/195 193/193/193 228/228/228 229/229/229
f 180/180/180 227/227/227 193/193/193
f 227/227/227 228/228/228 193/193/193
f 248/248/248 249/249/249 224/224/224 225/225/225
f 250/250/250 181/181/181 222/222/222 223/223/223
f 198/198/198 181/181/181 250/250/250
f 249/249/249 250/250/250 223/223/223 224/224/224
f 181/181/181 221/221/221 222/222/222
f 181/181/181 197/197/197 220/220/220 221/221/221
f 225/225/225 226/226/226 247/247/247 248/248/248
f 196/196/196 240/240/240 241/241/241
f 202/202/202 242/242/242 243/243/243
f 202/202/202 241/241/241 242/242/242
f 196/196/196 241/241/241 182/182/182
f 196/196/196 199/199/199 239/239/239 240/240/240
f 183/183/183 241/241/241 202/202/202
f 203/203/203 202/202/202 243/243/243 244/244/244
f 244/244/244 245/245/245 200/200/200 203/203/203
f 246/246/246 186/186/186 207/207/207 210/210/210
f 245/245/245 246/246/246 209/209/209 200/200/200
f 209/209/209 185/185/185 184/184/184 200/200/200
f 246/246/246 210/210/210 209/209/209
f 182/182/182 183/183/183 218/218/218 219/219/219
f 241/241/241 183/183/183 182/182/182
f 205/205/205 206/206/206 216/216/216 217/217/217
f 205/205/205 218/218/218 183/183/183
f 219/219/219 220/220/220 197/197/197 182/182/182
f 205/205/205 217/217/217 218/218/218
f 206/206/206 204/204/204 215/215/215 216/216/216
f 204/204/204 184/184/184 185/185/185 212/212/212
f 204/204/204 212/212/212 214/214/214 215/215/215
f 188/188/188 213/213/213 211/211/211
f 214/214/214 213/213/213 188/188/188
f 214/214/214 212/212/212 213/213/213
