# Rhino

o object_1
v -4198.01318359375 244.66993713378906 -24324.443359375
v -4198.01318359375 244.66993713378906 -24279.9921875
v -4142.3994140625 238.34902954101562 -24324.443359375
v -4142.3994140625 238.34902954101562 -24279.9921875
v -4111.46875 251.50999450683594 -24324.443359375
v -4111.46875 251.50999450683594 -24279.9921875
v -4097.22412109375 267.85263061523438 -24324.443359375
v -4097.22412109375 267.85263061523438 -24279.9921875
v -4091.234375 286.32025146484375 -24324.443359375
v -4091.234375 286.32025146484375 -24279.9921875
v -4095.146240234375 294.28302001953125 -24324.443359375
v -4095.146240234375 294.28302001953125 -24279.9921875
v -4112.30224609375 303.1595458984375 -24324.443359375
v -4112.30224609375 303.1595458984375 -24279.9921875
v -4191.3662109375 272.73794555664062 -24324.443359375
v -4191.3662109375 272.73794555664062 -24279.9921875
v -4198.69970703125 267.57052612304688 -24324.443359375
v -4198.69970703125 267.57052612304688 -24279.9921875
v -4203.01171875 259.97207641601562 -24324.443359375
v -4203.01171875 259.97207641601562 -24279.9921875
v -4203.162109375 251.73956298828125 -24324.443359375
v -4203.162109375 251.73956298828125 -24279.9921875
v -4198.01318359375 244.66993713378906 -24324.443359375
v -4198.01318359375 244.66993713378906 -24279.9921875
v -4198.01318359375 244.66993713378906 -24324.443359375
v -4142.3994140625 238.34902954101562 -24324.443359375
v -4111.46875 251.50999450683594 -24324.443359375
v -4097.22412109375 267.85263061523438 -24324.443359375
v -4091.234375 286.32025146484375 -24324.443359375
v -4095.146240234375 294.28302001953125 -24324.443359375
v -4112.30224609375 303.1595458984375 -24324.443359375
v -4191.3662109375 272.73794555664062 -24324.443359375
v -4198.69970703125 267.57052612304688 -24324.443359375
v -4203.01171875 259.97207641601562 -24324.443359375
v -4203.162109375 251.73956298828125 -24324.443359375
v -4198.01318359375 244.66993713378906 -24279.9921875
v -4142.3994140625 238.34902954101562 -24279.9921875
v -4111.46875 251.50999450683594 -24279.9921875
v -4097.22412109375 267.85263061523438 -24279.9921875
v -4091.234375 286.32025146484375 -24279.9921875
v -4095.146240234375 294.28302001953125 -24279.9921875
v -4112.30224609375 303.1595458984375 -24279.9921875
v -4191.3662109375 272.73794555664062 -24279.9921875
v -4198.69970703125 267.57052612304688 -24279.9921875
v -4203.01171875 259.97207641601562 -24279.9921875
v -4203.162109375 251.73956298828125 -24279.9921875
vt 0 0
vt 0 0.62767934799194336
vt 0.1428571492433548 0
vt 0.1428571492433548 0.62767934799194336
vt 0.28571429848670959 0
vt 0.28571429848670959 0.62767934799194336
vt 0.3571428656578064 0
vt 0.3571428656578064 0.62767934799194336
vt 0.4285714328289032 0
vt 0.4285714328289032 0.62767934799194336
vt 0.46428570151329041 0
vt 0.46428570151329041 0.62767934799194336
vt 0.53571426868438721 0
vt 0.53571426868438721 0.62767934799194336
vt 0.8571428656578064 0
vt 0.8571428656578064 0.62767934799194336
vt 0.8928571343421936 0
vt 0.8928571343421936 0.62767934799194336
vt 0.92857140302658081 0
vt 0.92857140302658081 0.62767934799194336
vt 0.96428573131561279 0
vt 0.96428573131561279 0.62767934799194336
vt 1 0
vt 1 0.62767934799194336
vt 0.38372299075126648 0.66399198770523071
vt 0.18386867642402649 0.62768000364303589
vt 0.072715699672698975 0.70328634977340698
vt 0.021524680778384209 0.79717069864273071
vt 0 0.90326255559921265
vt 0.014058292843401432 0.94900655746459961
vt 0.075710326433181763 1
vt 0.35983654856681824 0.82523560523986816
vt 0.38619071245193481 0.79555010795593262
vt 0.40168532729148865 0.75189894437789917
vt 0.40222716331481934 0.70460522174835205
vt 0.38372299075126648 0.96368801593780518
vt 0.18386867642402649 1
vt 0.072715699672698975 0.92439365386962891
vt 0.021524680778384209 0.83050930500030518
vt 0 0.72441744804382324
vt 0.014058292843401432 0.67867344617843628
vt 0.075710326433181763 0.62768000364303589
vt 0.35983654856681824 0.80244439840316772
vt 0.38619071245193481 0.83212989568710327
vt 0.40168532729148865 0.87578105926513672
vt 0.40222716331481934 0.92307478189468384
vn -0.58433419466018677 -0.81151312589645386 0
vn -0.58433419466018677 -0.81151312589645386 0
vn 0.08926757425069809 -0.99600768089294434 0
vn 0.08926757425069809 -0.99600768089294434 0
vn 0.69194823503494263 -0.72194713354110718 0
vn 0.69194823503494263 -0.72194713354110718 0
vn 0.82912999391555786 -0.5590558648109436 0
vn 0.82912999391555786 -0.5590558648109436 0
vn 0.98677855730056763 0.16207428276538849 0
vn 0.98677855730056763 0.16207428276538849 0
vn 0.75901073217391968 0.65107810497283936 0
vn 0.75901073217391968 0.65107810497283936 0
vn 0.1170196607708931 0.99312961101531982 0
vn 0.1170196607708931 0.99312961101531982 0
vn -0.36826133728027344 0.92972230911254883 0
vn -0.36826133728027344 0.92972230911254883 0
vn -0.74338811635971069 0.66886031627655029 0
vn -0.74338811635971069 0.66886031627655029 0
vn -0.95921021699905396 0.28269374370574951 0
vn -0.95921021699905396 0.28269374370574951 0
vn -0.96030974388122559 -0.27893590927124023 0
vn -0.96030974388122559 -0.27893590927124023 0
vn -0.58433419466018677 -0.81151312589645386 0
vn -0.58433419466018677 -0.81151312589645386 0
vn 0 0 -1
vn 0 0 -1
vn 0 0 -1
vn 0 0 -1
vn 0 0 -1
vn 0 0 -1
vn 0 0 -1
vn 0 0 -1
vn 0 0 -1
vn 0 0 -1
vn 0 0 -1
vn 0 0 1
vn 0 0 1
vn 0 0 1
vn 0 0 1
vn 0 0 1
vn 0 0 1
vn 0 0 1
vn 0 0 1
vn 0 0 1
vn 0 0 1
vn 0 0 1
f 1/1/1 3/3/3 4/4/4 2/2/2
f 3/3/3 5/5/5 6/6/6 4/4/4
f 5/5/5 7/7/7 8/8/8 6/6/6
f 7/7/7 9/9/9 10/10/10 8/8/8
f 9/9/9 11/11/11 12/12/12 10/10/10
f 11/11/11 13/13/13 14/14/14 12/12/12
f 13/13/13 15/15/15 16/16/16 14/14/14
f 15/15/15 17/17/17 18/18/18 16/16/16
f 17/17/17 19/19/19 20/20/20 18/18/18
f 19/19/19 21/21/21 22/22/22 20/20/20
f 21/21/21 23/23/23 24/24/24 22/22/22
f 27/27/27 31/31/31 28/28/28
f 29/29/29 28/28/28 30/30/30
f 31/31/31 30/30/30 28/28/28
f 26/26/26 32/32/32 31/31/31
f 34/34/34 33/33/33 25/25/25
f 35/35/35 34/34/34 25/25/25
f 31/31/31 27/27/27 26/26/26
f 26/26/26 25/25/25 32/32/32
f 25/25/25 33/33/33 32/32/32
f 38/38/38 39/39/39 42/42/42
f 40/40/40 41/41/41 39/39/39
f 42/42/42 39/39/39 41/41/41
f 37/37/37 42/42/42 43/43/43
f 45/45/45 36/36/36 44/44/44
f 46/46/46 36/36/36 45/45/45
f 42/42/42 37/37/37 38/38/38
f 37/37/37 43/43/43 36/36/36
f 36/36/36 43/43/43 44/44/44
