# Rhino

o object_1
v -4025.080078125 236.91497802734375 -24344.599609375
v -4039.166748046875 283.80841064453125 -24344.599609375
v -4027.254150390625 236.91497802734375 -24355.529296875
v -4040.268798828125 283.80841064453125 -24350.138671875
v -4033.44580078125 236.91497802734375 -24364.796875
v -4043.406494140625 283.80841064453125 -24354.8359375
v -4053.642333984375 236.91497802734375 -24373.162109375
v -4053.642333984375 283.80841064453125 -24359.07421875
v -4073.8388671875 236.91497802734375 -24364.796875
v -4063.878173828125 283.80841064453125 -24354.8359375
v -4080.030517578125 236.91497802734375 -24355.529296875
v -4067.015869140625 283.80841064453125 -24350.138671875
v -4082.20458984375 236.91497802734375 -24344.599609375
v -4068.117919921875 283.80841064453125 -24344.599609375
v -4080.030517578125 236.91497802734375 -24333.669921875
v -4067.015869140625 283.80841064453125 -24339.060546875
v -4073.8388671875 236.91497802734375 -24324.40234375
v -4063.878173828125 283.80841064453125 -24334.36328125
v -4053.642333984375 236.91497802734375 -24316.037109375
v -4053.642333984375 283.80841064453125 -24330.125
v -4033.44580078125 236.91497802734375 -24324.40234375
v -4043.406494140625 283.80841064453125 -24334.36328125
v -4027.254150390625 236.91497802734375 -24333.669921875
v -4040.268798828125 283.80841064453125 -24339.060546875
v -4025.080078125 236.91497802734375 -24344.599609375
v -4039.166748046875 283.80841064453125 -24344.599609375
v -4025.080078125 236.91497802734375 -24344.599609375
v -4027.254150390625 236.91497802734375 -24333.669921875
v -4033.44580078125 236.91497802734375 -24324.40234375
v -4053.642333984375 236.91497802734375 -24316.037109375
v -4073.8388671875 236.91497802734375 -24324.40234375
v -4080.030517578125 236.91497802734375 -24333.669921875
v -4082.20458984375 236.91497802734375 -24344.599609375
v -4080.030517578125 236.91497802734375 -24355.529296875
v -4073.8388671875 236.91497802734375 -24364.796875
v -4053.642333984375 236.91497802734375 -24373.162109375
v -4033.44580078125 236.91497802734375 -24364.796875
v -4027.254150390625 236.91497802734375 -24355.529296875
v -4039.166748046875 283.80841064453125 -24344.599609375
v -4040.268798828125 283.80841064453125 -24350.138671875
v -4043.406494140625 283.80841064453125 -24354.8359375
v -4053.642333984375 283.80841064453125 -24359.07421875
v -4063.878173828125 283.80841064453125 -24354.8359375
v -4067.015869140625 283.80841064453125 -24350.138671875
v -4068.117919921875 283.80841064453125 -24344.599609375
v -4067.015869140625 283.80841064453125 -24339.060546875
v -4063.878173828125 283.80841064453125 -24334.36328125
v -4053.642333984375 283.80841064453125 -24330.125
v -4043.406494140625 283.80841064453125 -24334.36328125
v -4040.268798828125 283.80841064453125 -24339.060546875
vt 0.59927594661712646 0
vt 0.32347720861434937 0
vt 0.59927594661712646 0.062408447265625
vt 0.32347720861434937 0.062408447265625
vt 0.59927594661712646 0.12481689453125
vt 0.32347720861434937 0.12481689453125
vt 0.59927594661712646 0.2496337890625
vt 0.32347720861434937 0.2496337890625
vt 0.59927594661712646 0.37445068359375
vt 0.32347720861434937 0.37445068359375
vt 0.59927594661712646 0.436859130859375
vt 0.32347720861434937 0.436859130859375
vt 0.59927594661712646 0.499267578125
vt 0.32347720861434937 0.499267578125
vt 0.59927594661712646 0.561676025390625
vt 0.32347720861434937 0.561676025390625
vt 0.59927594661712646 0.62408447265625
vt 0.32347720861434937 0.62408447265625
vt 0.59927594661712646 0.7489013671875
vt 0.32347720861434937 0.7489013671875
vt 0.59927594661712646 0.87371826171875
vt 0.32347720861434937 0.87371826171875
vt 0.59927594661712646 0.936126708984375
vt 0.32347720861434937 0.936126708984375
vt 0.59927594661712646 0.99853515625
vt 0.32347720861434937 0.99853515625
vt 0.16100618243217468 0.6598207950592041
vt 0.099391788244247437 0.64750915765762329
vt 0.047157611697912216 0.61244863271713257
vt 0 0.49808219075202942
vt 0.047157611697912216 0.38371571898460388
vt 0.099391788244247437 0.34865519404411316
vt 0.16100618243217468 0.33634358644485474
vt 0.22262057662010193 0.34865519404411316
vt 0.27485474944114685 0.38371571898460388
vt 0.32201236486434937 0.49808219075202942
vt 0.27485474944114685 0.61244863271713257
vt 0.22262057662010193 0.64750915765762329
vt 0.081969738006591797 0.16393947601318359
vt 0.050601277500391006 0.15769989788532257
vt 0.024008376523852348 0.1399310976266861
vt 0 0.081969738006591797
vt 0.024008376523852348 0.024008380249142647
vt 0.050601277500391006 0.0062395744025707245
vt 0.081969738006591797 0
vt 0.11333819478750229 0.0062395744025707245
vt 0.1399310827255249 0.024008380249142647
vt 0.16393947601318359 0.081969738006591797
vt 0.1399310827255249 0.1399310976266861
vt 0.11333819478750229 0.15769989788532257
vn 0.95772045850753784 0.28770050406455994 0
vn 0.95772045850753784 0.28770050406455994 0
vn 0.88481831550598145 0.28770050406455994 -0.36650374531745911
vn 0.88481831550598145 0.28770050406455994 -0.36650374531745911
vn 0.67721062898635864 0.28770050406455994 -0.67721062898635864
vn 0.67721062898635864 0.28770050406455994 -0.67721062898635864
vn 0 0.28770050406455994 -0.95772045850753784
vn 0 0.28770050406455994 -0.95772045850753784
vn -0.67721062898635864 0.28770050406455994 -0.67721062898635864
vn -0.67721062898635864 0.28770050406455994 -0.67721062898635864
vn -0.88481831550598145 0.28770050406455994 -0.36650374531745911
vn -0.88481831550598145 0.28770050406455994 -0.36650374531745911
vn -0.95772045850753784 0.28770050406455994 0
vn -0.95772045850753784 0.28770050406455994 0
vn -0.88481831550598145 0.28770050406455994 0.36650374531745911
vn -0.88481831550598145 0.28770050406455994 0.36650374531745911
vn -0.67721062898635864 0.28770050406455994 0.67721062898635864
vn -0.67721062898635864 0.28770050406455994 0.67721062898635864
vn 0 0.28770050406455994 0.95772045850753784
vn 0 0.28770050406455994 0.95772045850753784
vn 0.67721062898635864 0.28770050406455994 0.67721062898635864
vn 0.67721062898635864 0.28770050406455994 0.67721062898635864
vn 0.88481831550598145 0.28770050406455994 0.36650374531745911
vn 0.88481831550598145 0.28770050406455994 0.36650374531745911
vn 0.95772045850753784 0.28770050406455994 0
vn 0.95772045850753784 0.28770050406455994 0
vn 0 -1 0
vn 0 -1 0
vn 0 -1 0
vn 0 -1 0
vn 0 -1 0
vn 0 -1 0
vn 0 -1 0
vn 0 -1 0
vn 0 -1 0
vn 0 -1 0
vn 0 -1 0
vn 0 -1 0
vn 0 1 0
vn 0 1 0
vn 0 1 0
vn 0 1 0
vn 0 1 0
vn 0 1 0
vn 0 1 0
vn 0 1 0
vn 0 1 0
vn 0 1 0
vn 0 1 0
vn 0 1 0
f 3/3/3 4/4/4 2/2/2 1/1/1
f 5/5/5 6/6/6 4/4/4 3/3/3
f 9/9/9 10/10/10 8/8/8 7/7/7
f 11/11/11 12/12/12 10/10/10 9/9/9
f 7/7/7 8/8/8 6/6/6 5/5/5
f 13/13/13 14/14/14 12/12/12 11/11/11
f 17/17/17 18/18/18 16/16/16 15/15/15
f 19/19/19 20/20/20 18/18/18 17/17/17
f 23/23/23 24/24/24 22/22/22 21/21/21
f 25/25/25 26/26/26 24/24/24 23/23/23
f 21/21/21 22/22/22 20/20/20 19/19/19
f 15/15/15 16/16/16 14/14/14 13/13/13
f 35/35/35 33/33/33 34/34/34
f 36/36/36 31/31/31 35/35/35
f 32/32/32 33/33/33 31/31/31
f 35/35/35 31/31/31 33/33/33
f 31/31/31 36/36/36 29/29/29
f 27/27/27 37/37/37 38/38/38
f 29/29/29 37/37/37 27/27/27
f 31/31/31 29/29/29 30/30/30
f 28/28/28 29/29/29 27/27/27
f 37/37/37 29/29/29 36/36/36
f 44/44/44 46/46/46 47/47/47 43/43/43
f 47/47/47 42/42/42 43/43/43
f 45/45/45 46/46/46 44/44/44
f 49/49/49 47/47/47 48/48/48
f 50/50/50 40/40/40 41/41/41 49/49/49
f 39/39/39 40/40/40 50/50/50
f 42/42/42 49/49/49 41/41/41
f 47/47/47 49/49/49 42/42/42
